<svg xmlns="http://www.w3.org/2000/svg" xmlns:xlink="http://www.w3.org/1999/xlink" xmlns:lucid="lucid" width="820" height="330.39"><g transform="translate(-320 -240)" lucid:page-tab-id="0_0"><path d="M0 0h1870.87v1322.84H0z" fill="#fff"/><path d="M880 481.35c0 5-26.86 9.04-60 9.04s-60-4.05-60-9.05v-72.3c0-5 26.86-9.05 60-9.05s60 4.05 60 9.04z" stroke="#3a414a" fill="#fff"/><path d="M880 409.04c0 5-26.86 9.04-60 9.04s-60-4.05-60-9.04" stroke="#3a414a" fill="none"/><use xlink:href="#a" transform="matrix(1,0,0,1,765,423.0787401574803) translate(32.77777777777778 37.46527777777778)"/><use xlink:href="#b" transform="matrix(1,0,0,1,765,423.0787401574803) translate(55 37.46527777777778)"/><path d="M740 266a6 6 0 0 1 6-6h148a6 6 0 0 1 6 6v38.4a6 6 0 0 1-6 6H746a6 6 0 0 1-6-6z" stroke="#3a414a" fill="#fff"/><use xlink:href="#c" transform="matrix(1,0,0,1,745,265) translate(30.555555555555557 25.46527777777778)"/><use xlink:href="#d" transform="matrix(1,0,0,1,745,265) translate(52.77777777777778 25.46527777777778)"/><use xlink:href="#e" transform="matrix(1,0,0,1,745,265) translate(75 25.46527777777778)"/><use xlink:href="#f" transform="matrix(1,0,0,1,745,265) translate(97.22222222222221 25.46527777777778)"/><path d="M960 326a6 6 0 0 1 6-6h148a6 6 0 0 1 6 6v38.4a6 6 0 0 1-6 6H966a6 6 0 0 1-6-6z" stroke="#3a414a" fill="#fff"/><use xlink:href="#g" transform="matrix(1,0,0,1,965,325) translate(30.555555555555557 25.46527777777778)"/><use xlink:href="#h" transform="matrix(1,0,0,1,965,325) translate(52.77777777777778 25.46527777777778)"/><use xlink:href="#i" transform="matrix(1,0,0,1,965,325) translate(75 25.46527777777778)"/><use xlink:href="#j" transform="matrix(1,0,0,1,965,325) translate(97.22222222222221 25.46527777777778)"/><path d="M960 426a6 6 0 0 1 6-6h148a6 6 0 0 1 6 6v38.4a6 6 0 0 1-6 6H966a6 6 0 0 1-6-6z" stroke="#3a414a" fill="#fff"/><use xlink:href="#k" transform="matrix(1,0,0,1,965,424.9999999489077) translate(52.77777777777778 25.46527777777778)"/><use xlink:href="#l" transform="matrix(1,0,0,1,965,424.9999999489077) translate(75 25.46527777777778)"/><path d="M960 506a6 6 0 0 1 6-6h148a6 6 0 0 1 6 6v38.4a6 6 0 0 1-6 6H966a6 6 0 0 1-6-6z" stroke="#3a414a" fill="#fff"/><use xlink:href="#m" transform="matrix(1,0,0,1,965,505) translate(30.555555555555557 25.46527777777778)"/><use xlink:href="#n" transform="matrix(1,0,0,1,965,505) translate(52.77777777777778 25.46527777777778)"/><use xlink:href="#o" transform="matrix(1,0,0,1,965,505) translate(75 25.46527777777778)"/><use xlink:href="#p" transform="matrix(1,0,0,1,965,505) translate(97.22222222222221 25.46527777777778)"/><path d="M540 346a6 6 0 0 1 6-6h148a6 6 0 0 1 6 6v38.4a6 6 0 0 1-6 6H546a6 6 0 0 1-6-6z" stroke="#3a414a" fill="#fff"/><use xlink:href="#q" transform="matrix(1,0,0,1,545,345) translate(30.555555555555557 25.46527777777778)"/><use xlink:href="#r" transform="matrix(1,0,0,1,545,345) translate(52.77777777777778 25.46527777777778)"/><use xlink:href="#s" transform="matrix(1,0,0,1,545,345) translate(75 25.46527777777778)"/><use xlink:href="#t" transform="matrix(1,0,0,1,545,345) translate(97.22222222222221 25.46527777777778)"/><path d="M540 506a6 6 0 0 1 6-6h148a6 6 0 0 1 6 6v38.4a6 6 0 0 1-6 6H546a6 6 0 0 1-6-6z" stroke="#3a414a" fill="#fff"/><use xlink:href="#u" transform="matrix(1,0,0,1,545,504.99999999999994) translate(30.555555555555557 25.46527777777778)"/><use xlink:href="#v" transform="matrix(1,0,0,1,545,504.99999999999994) translate(52.77777777777778 25.46527777777778)"/><use xlink:href="#w" transform="matrix(1,0,0,1,545,504.99999999999994) translate(75 25.46527777777778)"/><use xlink:href="#x" transform="matrix(1,0,0,1,545,504.99999999999994) translate(97.22222222222221 25.46527777777778)"/><path d="M460 477.2c0 4.42-26.86 8-60 8s-60-3.58-60-8v-64c0-4.42 26.86-8 60-8s60 3.58 60 8z" stroke="#3a414a" fill="#fff"/><path d="M460 413.2c0 4.42-26.86 8-60 8s-60-3.58-60-8" stroke="#3a414a" fill="none"/><use xlink:href="#y" transform="matrix(1,0,0,1,345,426.1968503937008) translate(32.77777777777778 31.27777777777778)"/><use xlink:href="#z" transform="matrix(1,0,0,1,345,426.1968503937008) translate(55 31.27777777777778)"/><path d="M959.2 345.6l-78.4 99.2" stroke="#3a414a" fill="none"/><path d="M959.5 345.85l-.7-.56.7-.9zM881.2 445.1l-.7.9v-1.46z" stroke="#3a414a" stroke-width=".05" fill="#3a414a"/><path d="M959 445.2h-5.2m-5.2 0h-10.4m-5.2 0h-10.4m-5.2 0H907m-5.2 0h-10.4m-5.2 0H881" stroke="#3a414a" fill="none"/><path d="M959.5 445.7h-.5v-1h.5zM881 445.7h-.5v-1h.5z" stroke="#3a414a" stroke-width=".05" fill="#3a414a"/><path d="M959.15 524.84l-3.73-3.73m-3.73-3.7l-7.47-7.47m-3.73-3.73l-7.45-7.45m-3.73-3.73l-7.46-7.46m-3.73-3.73l-7.45-7.45m-3.73-3.73l-7.46-7.46m-3.74-3.74L888.3 454m-3.72-3.72l-3.73-3.73" stroke="#3a414a" fill="none"/><path d="M959.5 524.5v1.4l-.72-.7.7-.72zM881.2 446.2l-.7.7v-1.4z" stroke="#3a414a" stroke-width=".05" fill="#3a414a"/><path d="M820 311.4V399" stroke="#3a414a" fill="none"/><path d="M820.5 311.4h-1v-.5h1zM820.5 399.52l-.5-.02-.5.02V399h1z" stroke="#3a414a" stroke-width=".05" fill="#3a414a"/><path d="M700.8 524.8l58.4-79.2" stroke="#3a414a" fill="none"/><path d="M701.2 525.08l-.7.96v-1.48zM759.5 445.83l-.7-.52.7-.94z" stroke="#3a414a" stroke-width=".05" fill="#3a414a"/><path d="M700.8 362.4l58.4 82.4" stroke="#3a414a" fill="none"/><path d="M701.2 362.13l-.7.5v-1.5zM759.5 446.06l-.7-1 .7-.5z" stroke="#3a414a" stroke-width=".05" fill="#3a414a"/><path d="M539.15 365.55l-78.3 79.3" stroke="#3a414a" fill="none"/><path d="M539.5 365.9l-.72-.7.72-.7zM461.22 445.18l-.72.73v-1.42z" stroke="#3a414a" stroke-width=".05" fill="#3a414a"/><path d="M539.15 524.84l-3.73-3.77m-3.73-3.78l-7.47-7.56m-3.72-3.78l-7.45-7.55m-3.73-3.76l-7.46-7.56m-3.72-3.77l-7.46-7.54m-3.73-3.78l-7.46-7.55m-3.74-3.78l-7.45-7.55m-3.72-3.77l-3.73-3.78" stroke="#3a414a" fill="none"/><path d="M539.5 524.5v1.4l-.72-.72.72-.7zM461.22 445.2l-.72.7v-1.4z" stroke="#3a414a" stroke-width=".05" fill="#3a414a"/><defs><path fill="#3a414a" d="M298-210c0-7 18-13 8-19-5-3-10-8-15-14l-12 11H81l-23-13c4 15 5 45 5 93C62-38 58-14 21 50l2 1C54 11 69-12 77-67h89V49c3 5 16-1 17-6V-67h99v80c-1 25-24 9-46 9v4c15 6 25 15 30 28 10-2 36-17 32-33v-231zM78-77c2-18 3-39 3-65h85v65H78zm105-65h99v65h-99v-65zM81-152v-70h85v70H81zm102-70h99v70h-99v-70" id="A"/><use transform="matrix(0.06172839506172839,0,0,0.06172839506172839,0,0)" xlink:href="#A" id="a"/><path fill="#3a414a" d="M137-254c25 20 33 37 48 53 11 0 14-20 4-26-5-6-21-15-49-29zm160 86c-1-14 28-15 8-24-4-3-9-8-14-14l-14 13H82l-26-15c4 11 6 33 6 67C61-32 56-8 18 53l3 1C61 6 76-15 80-97h225c5 0 7-2 7-6-20-7-13-39-15-65zM81-184h196v77H81v-77" id="B"/><use transform="matrix(0.06172839506172839,0,0,0.06172839506172839,0,0)" xlink:href="#B" id="b"/><path fill="#3a414a" d="M148-197c-34 48-74 74-130 96l1 4c67-22 109-46 147-97 1 24-3 55 2 75 5-3 14-3 16-10v-55c54 22 88 43 107 61 12 12 23 18 30 18 13-10-1-27-15-37-19-14-60-29-122-45v-10h133c10 1 12-9 3-11-9-5-17-12-22-18l-18 19h-96c0-17-2-38 7-44-4-7-24-4-29-8 4 8 4 34 4 52H29l5 10h114zM258-85c-1-9 26-15 7-22-5-3-10-8-16-14l-11 12H111l-20-12c11 38-2 94 6 135 10-2 18-5 15-20h128c-4 16 13 12 18 5v-84zM112-16v-37h128v37H112zm0-47v-37h128v37H112zM303 7l-17 19H21l5 10h297c10 0 10-7 2-11-9-4-17-12-22-18" id="C"/><use transform="matrix(0.06172839506172839,0,0,0.06172839506172839,0,0)" xlink:href="#C" id="c"/><path fill="#3a414a" d="M288-78c-1-8 20-14 4-20-4-3-10-7-15-13l-11 11H133l-7-6c7-9 12-19 18-30h173c11 1 12-9 3-11-9-5-15-11-20-18l-17 20H149c5-10 9-21 13-32h124c8 0 8-8 1-11-8-5-15-10-19-16l-17 18h-86c3-11 6-23 8-35 42-2 82-11 118-12 9 1 9-6 2-8-5-3-11-8-17-14-60 22-136 29-235 34l2 4c39 0 76-1 111-3-2 11-4 23-7 34H52l6 9h86c-3 11-7 22-12 32H23l6 9h99C103-82 66-46 18-8l3 3c37-25 67-53 91-83V50c1 9 10 0 14 0 6-2 2-9 3-15h143c1 5-3 15 3 15 4-2 11-3 13-7V-78zM129 25v-36h143v36H129zm0-45v-32h143v32H129zm0-42v-28h143v28H129" id="D"/><use transform="matrix(0.06172839506172839,0,0,0.06172839506172839,0,0)" xlink:href="#D" id="d"/><path fill="#3a414a" d="M82-210c12-2 14-22 1-29-6-3-21-18-33-17 13 15 16 18 23 38 2 5 5 8 9 8zm-15 76c16-40 39-56 57-91-26 26-48 47-64 67-8 10-26 3-35 11 37-2 13 46 41 50 17-4 5-27 1-37zm113-95c0-11 26-18 11-24-5-2-11-5-18-10-9 40-27 68-52 92l3 3c22-15 35-30 50-51h45c-13 56-48 74-105 89l1 3c56-10 90-26 112-64 12 35 40 50 74 62 8-9 24-8 33-13-50-8-85-22-103-57 3-6 5-12 7-20h56c-9 15-17 27-25 35 16 3 26-27 50-28 18-11-12-17-16-28l-11 11H180zm89 131c1-7 24-13 6-19-4-3-9-7-14-13l-12 12H103l-19-9c9 35 2 82 4 123 2 7 14-1 16-4v-100h149V-8c1 9 9 0 13 0 9-22 0-62 3-90zm-82 49c-6-18 14-30-2-33-7-1-14-3-22-6 10 8 7 78-9 84-34 33-61 39-125 54l1 3c76-15 150-20 157-102zm7 43c51 18 78 39 109 57 16-3 7-19-3-26-14-10-49-22-105-36" id="E"/><use transform="matrix(0.06172839506172839,0,0,0.06172839506172839,0,0)" xlink:href="#E" id="e"/><path fill="#3a414a" d="M67-165c-4-20-17-38-38-53 15 22 23 43 23 63 0 4 2 7 6 7 6 0 10-9 9-17zm51 13c20-4 28-46 48-62-4-6-15-6-22-12-5 25-13 50-26 74zm33 84c-6-17-26-27-48-39v-15h62c9 1 9-9 1-11-8-5-14-10-19-16l-17 18h-27c3-38-7-90 6-117-3-7-20-4-25-8 4 32 1 87 2 125H19l6 9h53C59-52 55-48 19 18l2 2C51-17 69-45 86-96c2 49-4 105 2 150 5-3 14-2 15-8v-148c16 14 21 18 30 40 5 13 20 11 18-6zm32-138c27 15 33 31 49 43 10-1 10-19 1-25-8-5-24-12-49-20zm-4 76c25 14 29 32 45 44 11 0 10-21 1-26-7-6-22-13-45-21zm98-104c-1-9 13-15 1-18-8-2-15-2-20-4 7 56 1 135 3 197L144-41l7 10 110-17 1 103c5-3 14-2 15-8v-98l51-8c8-12-18-13-25-24l-11 19-15 2v-172" id="F"/><use transform="matrix(0.06172839506172839,0,0,0.06172839506172839,0,0)" xlink:href="#F" id="f"/><use transform="matrix(0.06172839506172839,0,0,0.06172839506172839,0,0)" xlink:href="#A" id="g"/><use transform="matrix(0.06172839506172839,0,0,0.06172839506172839,0,0)" xlink:href="#B" id="h"/><path fill="#3a414a" d="M57 51c39 4 20-94 24-141 13-8 28-19 45-31-14-2-32 15-45 17v-74c14-3 41 7 45-6-5-7-19-12-22-19-8 5-9 16-23 15v-51c-1-7 16-10 1-14-6 0-13-2-20-5 5 16 2 48 3 70H15l6 10h44v80c-17 4-36 12-51 13 5 6 10 21 16 28 4-9 20-18 35-24V24c-2 10-29 4-38 4v4c16 3 26 9 30 19zm172-294c-1-9 13-14 1-17-8-2-14-3-18-5l1 144h-66v-45h50c7 0 6-7 2-10-7-3-14-8-18-15l-13 16h-21v-41c16-3 39-9 56-14-5-7-12-10-18-18-11 11-23 18-37 25l-22-10c9 41 2 96 4 143 10 7 22-5 17-21h66c1 10-1 23 1 32 15-1 17-14 15-32h69c1 6-3 18 3 19 4-2 13-1 14-6v-112c0-6 21-10 5-17-4-3-7-7-11-12-11 15-45 7-70 9l5 9h54v46h-56l5 9h51v45h-69v-122zm-7 258c22 14 56 29 84 34 6-9 16-15 29-18v-5c-40-1-68-10-95-21 21-13 42-31 63-55 4-7 25-6 11-16-5-4-9-10-14-20l-17 14H117c2 14 23 8 38 9 20 34 34 56 54 69-30 15-69 30-118 44l1 4c60-11 100-23 130-39zm-62-78h126c-18 27-38 47-61 61-26-16-45-33-65-61" id="G"/><use transform="matrix(0.06172839506172839,0,0,0.06172839506172839,0,0)" xlink:href="#G" id="i"/><path fill="#3a414a" d="M273-124c17 4 22-27 48-26 19-12-12-21-16-31l-14 13H185v-40h125c7 1 11-9 2-11-8-5-15-11-20-17l-16 18h-91c-7-19 16-30 1-36-7-1-15-4-23-7 6 9 5 27 5 43H44l6 10h118v40H62c-1-5 3-15-4-13 1 17-22 42-29 55 0 7 3 10 8 11 19-3 23-18 24-44h233c-8 15-15 27-21 35zm-100-12c6 1 13-8 2-10-6-2-12-5-19-9-5 21-15 36-26 51-8-3-18-6-30-10l-1 3c30 14 37 31 54 44 18-11 0-29-16-34 12-8 24-20 36-35zm-9 83c29-14 50-39 75-60 6-1 7-8-1-9-6-3-12-5-17-9-18 35-35 51-66 78H56c6 6 7 25 14 32 14-15 65-13 99-18v90c3 6 17-1 18-7v-85c25-3 52-8 83-13 10 10 16 34 24 38 12-1 11-21 3-31-6-7-22-23-51-45l-3 3 24 30c-38 3-73 5-103 6zm-54 30C90 16 78 20 40 46l3 3c35-14 61-30 79-47 3-1 23-5 7-11-6-2-12-7-19-14zm115 2l-2 2c27 20 46 37 56 52 7 9 11 14 15 14 11-1 13-22 1-29-7-8-31-20-70-39" id="H"/><use transform="matrix(0.06172839506172839,0,0,0.06172839506172839,0,0)" xlink:href="#H" id="j"/><path fill="#3a414a" d="M45-245c25 17 30 36 46 49 12-1 12-22 2-29-7-8-22-16-45-25zm-22 86c23 16 29 34 43 47 12 0 12-20 3-28-8-6-21-15-43-23zM69 47c22-9-2-48 1-67 9-54 29-103 42-153l-2-1C89-128 73-88 59-54c-6 14-14 12-26 16v4c40 1-1 73 36 81zm104-298c24 19 31 39 45 56 12-1 10-21 2-30-8-8-23-19-46-30zm118 45l-16 20H122l6 9h72v87h-72l5 9h67V24h-97l6 9h214c11 0 10-8 1-11-10-6-17-12-22-19l-18 21h-67V-81h77c10 0 10-7 2-11-9-4-15-11-20-17l-17 19h-42v-87h92c10 0 10-7 2-11-9-4-15-11-20-18" id="I"/><use transform="matrix(0.06172839506172839,0,0,0.06172839506172839,0,0)" xlink:href="#I" id="k"/><path fill="#3a414a" d="M153-217c0-7 17-13 7-19-5-3-9-8-14-14l-13 14c-31 0-67 4-82-12 3 19 4 70 4 133H18l5 10h32C54-19 50-1 25 53l2 1C62 4 70-14 71-105h65V14c0 20-16 11-33 10v4c12 6 19 13 23 25 9-2 30-16 27-31v-127h36c-2 80-6 104-28 158l2 1c31-51 41-74 42-159h67V14c-1 20-16 11-33 10v4c14 5 19 14 25 25 9-2 24-16 24-31v-127c15-2 41 6 46-6-6-8-21-14-25-22-7 6-10 16-21 18v-100c1-7 20-13 8-20-5-3-9-7-14-13l-13 14h-62l-22-13c4 14 4 86 4 132h-36v-102zM71-115v-111h65v111H71zm135 0v-110h66v110h-66" id="J"/><use transform="matrix(0.06172839506172839,0,0,0.06172839506172839,0,0)" xlink:href="#J" id="l"/><path fill="#3a414a" d="M284-166c-1-8 19-13 4-20-5-2-10-7-15-13l-11 11h-79v-38h145c8-1 8-11-1-13-7-4-14-11-22-20l-21 23H18l5 10h143v38c-35-2-81 7-103-9 9 41 2 96 4 143 8 6 22-5 17-20h78c-3 24-7 40-16 57-15-10-29-22-44-37l-3 2c13 17 27 32 41 44-29 38-55 43-122 59l1 3c66-9 102-19 131-54 41 28 90 41 151 50 9-9 20-15 33-19v-5c-67 0-135-10-176-36 11-18 17-37 21-64h89c1 4-3 13 3 12 4-2 12-2 13-6v-98zM84-83v-46h82c0 16-1 32-3 46H84zm98-46h86v46h-88c2-14 2-29 2-46zm-98-9v-40h82v40H84zm99-40h85v40h-85v-40" id="K"/><use transform="matrix(0.06172839506172839,0,0,0.06172839506172839,0,0)" xlink:href="#K" id="m"/><path fill="#3a414a" d="M137-207c1-6 17-12 3-17-4-3-7-7-11-12l-12 12H22l5 10h94v84c-32-1-70 4-87-11 8 35 1 75 4 115 3 43-1 46 39 46 28 0 63 8 71-15-10-7-14-28-12-51h-4c-6 20 2 54-28 49-29-5-49 11-49-29v-95h66c1 7-3 19 3 21 4-2 13-1 13-7v-100zM240-31c26-36 42-80 48-139h35c7 0 6-8 1-11-9-4-16-10-22-18l-18 19h-78c4-14 10-31 15-52 3-4 19-8 5-14-7-2-13-5-21-10-17 92-24 120-65 181l3 3c19-20 34-39 44-59 11 46 21 75 36 99-27 37-60 63-108 83l2 3c51-19 85-39 114-73 15 21 35 40 61 59 13-10 22-14 38-11v-4c-39-13-67-28-90-56zm-49-107c5-9 7-17 12-32h66c-6 52-18 92-39 127-14-19-27-48-39-95" id="L"/><use transform="matrix(0.06172839506172839,0,0,0.06172839506172839,0,0)" xlink:href="#L" id="n"/><path fill="#3a414a" d="M183-218c-6-16 14-27 1-32-8-1-15-2-23-5 7 7 3 24 4 37H54c0-6 1-12 1-19h-4c6 23-47 54-19 69 17-3 19-18 22-40h241c-7 15-13 27-19 35 15 8 21-24 46-24 9 0 10-11 3-14s-13-9-19-16l-14 9H183zM76-168c-3 27-29 42-39 63 8 13 21 6 28-10 5-10 15-35 11-53zm56 73c-3-24-6-66 5-79-6-4-19-5-27-10 7 31-4 70 6 98-35 19-67 33-95 41l1 4c35-6 70-17 104-34 7 4 26 5 57 5 51 0 66 5 81-18-7-3-9-21-8-35h-3c-6 40-13 38-70 37-15 0-27-1-35-2 35-19 61-43 102-82 11 0 11-4 5-8-4-2-8-7-13-13-38 44-71 74-110 96zm15-101c22 13 27 30 40 41 9 0 9-18 0-23-6-6-19-14-39-21zm117 43c27 20 35 37 52 52 12 0 13-19 3-25-6-6-24-15-54-30zM183 29c1-28-3-63 6-78-6-5-19-5-28-10 8 22 2 59 4 88H84c2-22-5-54 7-64-4-7-24-5-29-9 8 22 1 72 5 101 8-4 20-3 17-18h185c1 5-2 14 2 16 5-3 13-3 16-9 2-27-7-66 7-80-5-7-23-4-29-8 5 13 4 49 4 71h-86" id="M"/><use transform="matrix(0.06172839506172839,0,0,0.06172839506172839,0,0)" xlink:href="#M" id="o"/><path fill="#3a414a" d="M141-112c1-7 19-14 4-21-4-3-10-6-15-12l-10 12c-17-1-38 2-51-2 7-20 14-48 21-82h57c9 0 9-8 1-10-8-5-14-11-19-17l-17 18H21l5 9h43C55-133 49-105 18-50l3 2c16-20 29-41 38-62V36c1 8 11 1 14 1 7-5 1-18 3-27h49c1 5-2 14 3 14 4-2 11-3 13-7v-129zM76 0v-123h49V0H76zm212-222c3-5 21-11 5-18-5-3-9-6-14-12l-13 11H158l5 9h109l-8 124h-85c11-32 5-74 20-99-5-4-18-5-26-10 2 42-2 87-15 119-1 2 10 7 12 8 4 1 6-7 9-8h130c-9 71-6 98-25 128-13 6-19 2-41-1v3c15 5 23 12 29 22 20 0 33-14 38-33 6-20 11-57 14-109 0-9 18-11 5-19-4-2-8-6-13-12-6 10-18 13-35 11zM261-64l-18 19h-96l6 10h127c9 1 11-9 2-11-9-5-16-12-21-18" id="N"/><use transform="matrix(0.06172839506172839,0,0,0.06172839506172839,0,0)" xlink:href="#N" id="p"/><path fill="#3a414a" d="M135-217c0-7 19-14 7-19-5-3-9-8-14-14-15 17-67 13-84-2 3 16 4 49 4 101C47-40 45-16 18 53l3 1C48 9 58-16 63-79h55v89c0 22-21 9-40 10v4c17 5 29 12 36 23 8-3 21-17 21-30v-234zM63-89l2-71h53v71H63zm2-81v-60h53v60H65zm235-42c1-5 22-7 8-16-5-3-10-9-14-16-24 17-77 5-114 8l-19-9c11 91 1 200 4 298 3 5 13-2 16-4v-156h26c8 52 17 79 40 108-14 18-29 30-60 48l1 2c29-11 50-22 67-40 13 14 29 27 46 35 9-7 20-11 33-11v-3c-28-7-52-18-68-34 20-28 29-48 40-96 6-3 21-7 7-13-4-4-8-10-12-18l-14 13H181v-110h103c-5 30 5 76-48 59v2c15 6 24 14 30 25 33-17 24-18 34-72zm-89 105h77c-6 46-14 67-31 95-24-26-37-54-46-95" id="O"/><use transform="matrix(0.06172839506172839,0,0,0.06172839506172839,0,0)" xlink:href="#O" id="q"/><path fill="#3a414a" d="M130-221c6-6 7-18 17-22 6-2 5-5-2-8-6-2-13-6-20-11-18 55-47 92-91 124l3 2c35-20 57-40 81-68 16 29 35 50 54 65-49 26-81 35-153 50l3 3c68-11 117-19 162-46 26 15 61 30 106 43 13-13 23-17 42-14v-4c-54-8-94-16-133-34 18-12 36-31 60-58 1-7 27-8 15-18-5-4-11-11-16-19l-16 15H130zm114 10c-23 32-36 45-59 63-25-12-41-30-63-61 35-6 83 0 122-2zM203 22c17 4 28 16 36 29 44-27 29-29 44-97 4-5 24-10 8-17-5-3-10-7-14-14l-13 13h-90c4-10 1-26 11-29 6-11-14-10-24-18-1 18-3 33-6 47H60l6 10h87C134 8 90 30 18 51l1 4C94 39 152 14 172-54h94c-10 76-4 88-63 72v4" id="P"/><use transform="matrix(0.06172839506172839,0,0,0.06172839506172839,0,0)" xlink:href="#P" id="r"/><path fill="#3a414a" d="M26 54c69-42 92-67 102-150h95l2 150c5-3 14-3 15-10V-96h83c10 0 10-7 2-11-9-4-17-11-22-17l-17 19h-46v-114h62c11 0 10-8 2-12-9-4-15-11-20-17l-16 19H43l5 10h64l-1 114H21l5 9h84C101-18 81 5 23 51zm197-159h-94c2-36 1-76 1-114h93v114" id="Q"/><use transform="matrix(0.06172839506172839,0,0,0.06172839506172839,0,0)" xlink:href="#Q" id="s"/><path fill="#3a414a" d="M305-152c1-7 19-14 7-20-5-3-10-7-14-13l-12 11h-59c6-5 7-16-2-22 25-7 49-23 80-29 19-11-11-17-15-29l-13 10H118l6 10h153l-56 35c-8-6-26-15-53-27l-2 2c28 19 39 32 53 50-32-1-72 6-90-10 10 58 1 133 4 198 2 7 15-1 17-4v-66h59c2 22-4 53 3 70 4-3 13-2 13-8v-62h63c-2 14 5 43-5 48-9 0-21-1-36-3v3c16 5 26 12 33 23 9-1 28-14 25-27v-140zM150-65v-47h59v47h-59zm75-47h63v47h-63v-47zm-75-10v-43h59v43h-59zm75-43h63v43h-63v-43zM70-189c6 16 23 10 21-8-7-19-29-34-54-43 19 20 24 23 33 51zm18 93c0-11 21-11 6-20-3-2-8-6-12-11-8 16-37 10-60 11l5 9h44V5C55 17 38 26 18 31c9 8 11 16 18 22 1-1 1-4 1-7C53 34 68 21 80 9c35 51 142 30 228 35 8-12 16-19 24-22v-4C285 26 115 45 88 5V-96" id="R"/><use transform="matrix(0.06172839506172839,0,0,0.06172839506172839,0,0)" xlink:href="#R" id="t"/><path fill="#3a414a" d="M82-193c5 14 21 8 20-8-7-21-30-38-55-49 21 23 24 26 35 57zm17 71c1-9 20-12 6-20-4-2-9-5-14-11-11 15-44 7-68 9l6 10h52V9c0 6-3 11-7 15 6 6 11 13 14 19 23-16 45-37 66-61l-1-2C135-6 117 4 99 11v-133zm129-90c5 14 21 8 18-7-3-16-23-32-41-39 13 18 15 23 23 46zm80 109c2-5 15-11 3-17-4-3-9-7-14-14l-14 11h-71l1-59h111c8 1 12-9 3-11-9-5-16-12-21-18l-16 19H140l6 10h49c0 117-10 172-73 233l3 3c60-48 80-80 86-168h77c1 44-4 107-17 130-7 11-24 5-43 4v4c16 6 26 14 31 26 54-25 39-73 49-153" id="S"/><use transform="matrix(0.06172839506172839,0,0,0.06172839506172839,0,0)" xlink:href="#S" id="u"/><path fill="#3a414a" d="M59-186c-1-9 13-15 0-18-8-1-14-2-18-4 6 82-2 179 3 263 5-3 13-2 15-8v-233zm-14-64c26 18 33 37 47 53 11-1 10-23 1-29-7-8-22-18-46-28zm265 39c1-10 18-12 5-20-4-2-8-5-12-10l-11 11H111l6 9h177V10c3 25-30 12-40 12v4c18 7 25 15 30 27 8 0 28-17 26-28v-236zm-79 93c-1-9 21-13 5-20-5-3-10-7-15-13l-11 11c-34-2-77 6-98-9 11 35 3 86 5 129 2 5 14-1 16-4v-20h81c1 7-3 18 3 20 4-2 12-4 14-7v-87zm-98 65v-77h81v77h-81" id="T"/><use transform="matrix(0.06172839506172839,0,0,0.06172839506172839,0,0)" xlink:href="#T" id="v"/><path fill="#3a414a" d="M82-184c13-2 14-22 1-30-6-4-23-20-36-20 16 17 17 20 26 42 2 5 5 8 9 8zm4 55c1-9 17-10 6-18-4-2-8-6-12-11-8 17-39 10-62 11l5 10h47V-2c0 7-4 11-12 15 6 7 10 13 13 19 20-13 40-30 57-50l-2-2C113-11 99-5 86 0v-129zm145-89c-2-14 5-17 7-26l-26-8c3 7 2 23 2 34h-89l5 10h84v27h-74l6 10h68v31h-96l6 10h202c7 0 8-10 1-11-8-5-14-9-18-15l-15 16h-63v-31h70c8 1 10-9 2-10-7-4-12-9-16-14l-14 14h-42v-27h88c9 0 10-10 1-11-8-5-14-9-18-15l-15 16h-56zm71 137c0-7 18-13 8-19-5-3-10-8-15-14l-12 9H166l-19-10c10 48 1 111 4 166 2 7 15-1 17-4V-9h118c-1 11 3 34-6 35-12 0-26 0-45-2v4c20 4 31 13 40 23 9-2 30-15 27-30V-81zM168-19v-34h118v34H168zm0-44v-33h118v33H168" id="U"/><use transform="matrix(0.06172839506172839,0,0,0.06172839506172839,0,0)" xlink:href="#U" id="w"/><path fill="#3a414a" d="M216-83c29-8 58-28 86-47 8-10-13-14-18-25-11 24-35 46-71 67-11-26-31-52-29-96h133c11 1 11-7 3-11-9-4-15-11-20-17l-17 19h-99c0-21-3-48 8-55-5-7-21-4-30-10 4 14 3 45 3 65H25l5 9h135V20c-5 12-38 4-51 4v4c21 4 31 13 37 26 14 0 33-15 33-34v-155C205-58 246-5 297 31c7-11 24-11 35-16-54-22-88-52-116-98zm-94 1c18-7 11-30-6-41-12-8-33-26-58-35 30 26 36 30 53 66 3 6 6 10 11 10zM52 28c4 0 7-11 8-14 32-26 64-57 95-93v-6C103-41 62-11 32 3c8 8 12 19 20 25zm161-275c27 16 33 34 49 47 12-1 11-20 1-27-9-6-24-15-49-24" id="V"/><use transform="matrix(0.06172839506172839,0,0,0.06172839506172839,0,0)" xlink:href="#V" id="x"/><path fill="#3a414a" d="M85-192c7 15 21 7 19-8-7-23-33-39-61-51 25 22 28 27 42 59zm27 70c0-10 21-12 7-20-4-2-10-5-15-11l-10 9H22l5 10h68v119c0 7-6 13-17 17 6 7 12 13 16 20 22-13 42-29 61-48-11-1-29 14-43 15v-111zm82-81c7-9 6-30 18-35 5-2 6-8-2-9-6-2-14-6-21-11-9 54-25 94-52 129l3 3c21-20 35-42 49-67h36v86h-92l6 10h86V53c4 5 16-2 18-7V-97h83c10 0 10-9 1-12-10-6-17-11-22-18l-18 20h-44v-86h70c8 0 8-9 1-12-9-4-17-10-23-19l-19 21h-78" id="W"/><use transform="matrix(0.06172839506172839,0,0,0.06172839506172839,0,0)" xlink:href="#W" id="y"/><path fill="#3a414a" d="M257 54c11-3 22-19 22-36v-237c16-3 46 7 52-6-7-8-25-16-29-25l-18 21H18l5 10h238V15c-1 17-33 9-49 9v4c27 4 36 13 45 26zm-70-195c0-9 21-14 5-21-5-3-10-6-15-12l-11 12c-35-2-80 7-101-9 12 44-2 111 6 158 15 0 15-15 14-32h85c1 6-3 16 3 17 4-2 12-3 14-7v-106zM85-54v-98h85v98H85" id="X"/><use transform="matrix(0.06172839506172839,0,0,0.06172839506172839,0,0)" xlink:href="#X" id="z"/></defs></g></svg>