<svg xmlns="http://www.w3.org/2000/svg" xmlns:xlink="http://www.w3.org/1999/xlink" xmlns:lucid="lucid" width="1057.48" height="343.03"><g transform="translate(-360 -200)" lucid:page-tab-id="0_0"><path d="M0 0h1870.87v1322.84H0z" fill="#fff"/><path d="M380 226a6 6 0 0 1 6-6h145.48a6 6 0 0 1 6 6v82.5a6 6 0 0 1-6 6H386a6 6 0 0 1-6-6z" stroke="#3a414a" fill="#fff"/><use xlink:href="#a" transform="matrix(1,0,0,1,385,225) translate(40.66666666666667 46.99652777777778)"/><use xlink:href="#b" transform="matrix(1,0,0,1,385,225) translate(62.88888888888889 46.99652777777778)"/><use xlink:href="#c" transform="matrix(1,0,0,1,385,225) translate(85.11111111111111 46.99652777777778)"/><path d="M660 226a6 6 0 0 1 6-6h145.48a6 6 0 0 1 6 6v82.5a6 6 0 0 1-6 6H666a6 6 0 0 1-6-6z" stroke="#3a414a" fill="#fff"/><use xlink:href="#d" transform="matrix(1,0,0,1,665,225) translate(7.333333333333329 46.99652777777778)"/><use xlink:href="#e" transform="matrix(1,0,0,1,665,225) translate(29.55555555555555 46.99652777777778)"/><use xlink:href="#f" transform="matrix(1,0,0,1,665,225) translate(51.77777777777777 46.99652777777778)"/><use xlink:href="#g" transform="matrix(1,0,0,1,665,225) translate(73.99999999999999 46.99652777777778)"/><use xlink:href="#h" transform="matrix(1,0,0,1,665,225) translate(96.22222222222221 46.99652777777778)"/><use xlink:href="#i" transform="matrix(1,0,0,1,665,225) translate(118.44444444444444 46.99652777777778)"/><path d="M960 226a6 6 0 0 1 6-6h145.48a6 6 0 0 1 6 6v82.5a6 6 0 0 1-6 6H966a6 6 0 0 1-6-6z" stroke="#3a414a" fill="#fff"/><use xlink:href="#j" transform="matrix(1,0,0,1,965,225) translate(51.77777777777778 46.99652777777778)"/><use xlink:href="#k" transform="matrix(1,0,0,1,965,225) translate(74 46.99652777777778)"/><path d="M1240 226a6 6 0 0 1 6-6h145.48a6 6 0 0 1 6 6v82.5a6 6 0 0 1-6 6H1246a6 6 0 0 1-6-6z" stroke="#3a414a" fill="#fff"/><use xlink:href="#l" transform="matrix(1,0,0,1,1245,225) translate(18.444444444444443 46.99652777777778)"/><use xlink:href="#m" transform="matrix(1,0,0,1,1245,225) translate(40.666666666666664 46.99652777777778)"/><use xlink:href="#n" transform="matrix(1,0,0,1,1245,225) translate(62.888888888888886 46.99652777777778)"/><use xlink:href="#o" transform="matrix(1,0,0,1,1245,225) translate(85.1111111111111 46.99652777777778)"/><use xlink:href="#p" transform="matrix(1,0,0,1,1245,225) translate(107.33333333333333 46.99652777777778)"/><path d="M1240 390.03a6 6 0 0 1 6-6h145.48a6 6 0 0 1 6 6v82.5a6 6 0 0 1-6 6H1246a6 6 0 0 1-6-6z" stroke="#3a414a" fill="#fff"/><use xlink:href="#q" transform="matrix(1,0,0,1,1245,389.0318959999472) translate(51.77777777777778 33.71527777777778)"/><use xlink:href="#r" transform="matrix(1,0,0,1,1245,389.0318959999472) translate(74 33.71527777777778)"/><use xlink:href="#s" transform="matrix(1,0,0,1,1245,389.0318959999472) translate(30.20370370370371 60.38194444444445)"/><use xlink:href="#t" transform="matrix(1,0,0,1,1245,389.0318959999472) translate(73.35185185185185 60.38194444444445)"/><use xlink:href="#u" transform="matrix(1,0,0,1,1245,389.0318959999472) translate(95.57407407407408 60.38194444444445)"/><path d="M960 390.03a6 6 0 0 1 6-6h145.48a6 6 0 0 1 6 6v82.5a6 6 0 0 1-6 6H966a6 6 0 0 1-6-6z" stroke="#3a414a" fill="#fff"/><use xlink:href="#v" transform="matrix(1,0,0,1,965,389.0318959999472) translate(51.77777777777778 46.99652777777778)"/><use xlink:href="#w" transform="matrix(1,0,0,1,965,389.0318959999472) translate(74 46.99652777777778)"/><path d="M520 266a6 6 0 0 1 6-6h19.5a6 6 0 0 1 6 6v19.5a6 6 0 0 1-6 6H526a6 6 0 0 1-6-6z" stroke="#3a414a" fill="#b8f5ed"/><path d="M1303 378.54a6 6 0 0 1 6-6h19.5a6 6 0 0 1 6 6v19.5a6 6 0 0 1-6 6H1309a6 6 0 0 1-6-6zM1303 306a6 6 0 0 1 6-6h19.5a6 6 0 0 1 6 6v19.5a6 6 0 0 1-6 6H1309a6 6 0 0 1-6-6z" stroke="#3a414a" fill="#cfe4ff"/><path d="M1220 266a6 6 0 0 1 6-6h19.5a6 6 0 0 1 6 6v19.5a6 6 0 0 1-6 6H1226a6 6 0 0 1-6-6zM1100 266a6 6 0 0 1 6-6h19.5a6 6 0 0 1 6 6v19.5a6 6 0 0 1-6 6H1106a6 6 0 0 1-6-6zM950 266a6 6 0 0 1 6-6h19.5a6 6 0 0 1 6 6v19.5a6 6 0 0 1-6 6H956a6 6 0 0 1-6-6zM800 266a6 6 0 0 1 6-6h19.5a6 6 0 0 1 6 6v19.5a6 6 0 0 1-6 6H806a6 6 0 0 1-6-6z" stroke="#3a414a" fill="#b8f5ed"/><use xlink:href="#x" transform="matrix(1,0,0,1,805,265) translate(11 17.77777777777778)"/><use xlink:href="#y" transform="matrix(1,0,0,1,805,265) translate(11 44.44444444444444)"/><path d="M650 266a6 6 0 0 1 6-6h19.5a6 6 0 0 1 6 6v19.5a6 6 0 0 1-6 6H656a6 6 0 0 1-6-6z" stroke="#3a414a" fill="#b8f5ed"/><use xlink:href="#x" transform="matrix(1,0,0,1,655,265) translate(11 17.77777777777778)"/><use xlink:href="#y" transform="matrix(1,0,0,1,655,265) translate(11 44.44444444444444)"/><path d="M1220 430.03a6 6 0 0 1 6-6h19.5a6 6 0 0 1 6 6v19.5a6 6 0 0 1-6 6H1226a6 6 0 0 1-6-6zM1100 430.03a6 6 0 0 1 6-6h19.5a6 6 0 0 1 6 6v19.5a6 6 0 0 1-6 6H1106a6 6 0 0 1-6-6z" stroke="#3a414a" fill="#c3f7c8"/><path d="M420.75 374.04a.75.75 0 0 1 .75-.75h67a.75.75 0 0 1 .75.74.75.75 0 0 1-.75.75h-67a.75.75 0 0 1-.75-.76z" stroke="#3a414a" stroke-width="1.5" fill="none"/><path d="M435 410.03a6 6 0 0 1 6-6h28a6 6 0 0 1 6 6v28a6 6 0 0 1-6 6h-28a6 6 0 0 1-6-6z" stroke="#3a414a" fill="#fff"/><path d="M380 478.53a6 6 0 0 1 6-6h28a6 6 0 0 1 6 6v29a6 6 0 0 1-6 6h-28a6 6 0 0 1-6-6z" stroke="#3a414a" fill="#c3f7c8"/><path d="M511.5 478.53a6 6 0 0 1 6-6h28a6 6 0 0 1 6 6v29a6 6 0 0 1-6 6h-28a6 6 0 0 1-6-6z" stroke="#3a414a" fill="#cfe4ff"/><path d="M445 478.53a6 6 0 0 1 6-6h28a6 6 0 0 1 6 6v29a6 6 0 0 1-6 6h-28a6 6 0 0 1-6-6z" stroke="#3a414a" fill="#b8f5ed"/><path d="M552.5 275.75H649" stroke="#3a414a" fill="none"/><path d="M552.5 276.25h-.5v-1h.5zM649.5 276.25h-.5v-1h.5z" stroke="#3a414a" stroke-width=".05" fill="#3a414a"/><path d="M832.5 275.75H949" stroke="#3a414a" fill="none"/><path d="M832.5 276.25h-.5v-1h.5zM949.5 276.25h-.5v-1h.5z" stroke="#3a414a" stroke-width=".05" fill="#3a414a"/><path d="M1132.5 275.75h86.5" stroke="#3a414a" fill="none"/><path d="M1132.5 276.25h-.5v-1h.5zM1219.5 276.25h-.5v-1h.5z" stroke="#3a414a" stroke-width=".05" fill="#3a414a"/><path d="M1318.74 332.5v39.04" stroke="#3a414a" fill="none"/><path d="M1319.24 332.5h-1v-.5h1zM1319.24 372.04h-1v-.52h1z" stroke="#3a414a" stroke-width=".05" fill="#3a414a"/><path d="M1219 439.78h-86.5" stroke="#3a414a" fill="none"/><path d="M1219.5 440.28h-.5v-1h.5zM1132.5 440.28h-.5v-1h.5z" stroke="#3a414a" stroke-width=".05" fill="#3a414a"/><path d="M445 350.04a6 6 0 0 1 6-6h228a6 6 0 0 1 6 6v48a6 6 0 0 1-6 6H451a6 6 0 0 1-6-6z" stroke="#000" stroke-opacity="0" fill="#fff" fill-opacity="0"/><g><use xlink:href="#z" transform="matrix(1,0,0,1,450,349.0358330078212) translate(72.43827160493828 30.27777777777778)"/><use xlink:href="#A" transform="matrix(1,0,0,1,450,349.0358330078212) translate(113.11728395061729 30.27777777777778)"/><use xlink:href="#B" transform="matrix(1,0,0,1,450,349.0358330078212) translate(135.3395061728395 30.27777777777778)"/></g><path d="M435 400.03a6 6 0 0 1 6-6h228a6 6 0 0 1 6 6v48a6 6 0 0 1-6 6H441a6 6 0 0 1-6-6z" stroke="#000" stroke-opacity="0" fill="#fff" fill-opacity="0"/><g><use xlink:href="#C" transform="matrix(1,0,0,1,440,399.0318959999472) translate(81.66666666666667 30.27777777777778)"/><use xlink:href="#D" transform="matrix(1,0,0,1,440,399.0318959999472) translate(103.88888888888889 30.27777777777778)"/><use xlink:href="#E" transform="matrix(1,0,0,1,440,399.0318959999472) translate(126.11111111111111 30.27777777777778)"/></g><path d="M511.5 469.03a6 6 0 0 1 6-6h228a6 6 0 0 1 6 6v48a6 6 0 0 1-6 6h-228a6 6 0 0 1-6-6z" stroke="#000" stroke-opacity="0" fill="#fff" fill-opacity="0"/><g><use xlink:href="#F" transform="matrix(1,0,0,1,516.496062992126,468.0279589920732) translate(81.66666666666667 30.27777777777778)"/><use xlink:href="#G" transform="matrix(1,0,0,1,516.496062992126,468.0279589920732) translate(103.88888888888889 30.27777777777778)"/><use xlink:href="#H" transform="matrix(1,0,0,1,516.496062992126,468.0279589920732) translate(126.11111111111111 30.27777777777778)"/></g><defs><path fill="#3a414a" d="M280-243l-19 22H48l5 10h112V14H19l6 10h296c12 0 13-10 3-12-11-6-18-13-24-21l-21 23h-95v-225h117c12 1 11-9 3-12-10-6-18-13-24-20" id="I"/><use transform="matrix(0.06172839506172839,0,0,0.06172839506172839,0,0)" xlink:href="#I" id="a"/><path fill="#3a414a" d="M85-156c2-8 11-12-1-15 13-18 25-39 40-63 3-5 19-7 4-13-6-3-12-8-19-15-20 64-51 110-91 153l3 2c16-12 31-26 46-43V50c1 9 10 0 15 0 2-1 3-2 3-4v-202zm83-40c8-13 10-33 23-44 6-2 5-6-2-8-6-2-13-6-20-10-9 61-35 105-70 147l1 3c22-17 46-48 63-78h34l2 240c5-3 14-3 15-10v-92h101c7 0 6-8 1-11-8-3-16-8-21-16l-18 18h-63v-52h99c7 0 8-8 2-11-9-4-16-9-21-17l-18 18h-62v-67h114c7 0 8-9 2-12-9-4-16-9-22-17l-18 19H168" id="J"/><use transform="matrix(0.06172839506172839,0,0,0.06172839506172839,0,0)" xlink:href="#J" id="b"/><path fill="#3a414a" d="M44-241c21 13 25 28 37 40 11 0 13-19 4-26-7-5-19-11-38-18zm-19 70c18 14 22 29 33 41 10 0 12-19 4-26-5-6-17-12-35-19zM70-13c10-65 20-92 34-154l-2-1C84-122 69-83 57-49c-6 18-17 14-34 16v5c31 2 30 20 30 49 0 14 16 25 23 13 8-13-9-32-6-47zm236-145c-1-8 19-13 4-20-5-3-10-7-15-13l-11 10h-67c9-12 17-27 24-44h86c7 0 6-8 1-11-9-4-16-10-22-18l-18 20H143l-23-14c4 12 5 36 5 75-1 117-3 143-36 212l3 1c51-64 51-137 51-265h77c-2 15-4 29-8 44-22 1-40-1-51-10 9 36 2 85 4 127 5 5 20-1 16-13h50v95c-1 15-30 8-44 7v4c24 4 31 14 40 24 34-12 16-85 20-130h43c1 4-2 11 2 12 4-2 12-3 14-7v-86zM181-86v-40h109v40H181zm0-50v-35h109v35H181zM122 38c33-10 54-46 81-69-4-7-15-8-22-17-13 37-33 62-59 86zm191-17c6 14 22 8 19-8-5-26-33-45-63-58 26 27 30 30 44 66" id="K"/><use transform="matrix(0.06172839506172839,0,0,0.06172839506172839,0,0)" xlink:href="#K" id="c"/><path fill="#3a414a" d="M106-225l44-16c-4-8-12-10-18-20-17 18-52 35-106 50l1 3c21-2 42-6 62-12v58H22l5 10h57C66-75 52-67 19 5c32-39 52-69 70-122V51c2 6 16 0 17-5v-172c19 9 18 34 37 44 5 0 8-7 8-15-5-16-25-24-45-34v-21c17-3 45 6 52-6-6-8-20-14-25-22-8 7-10 20-27 18v-63zm124 7c8-9 14-22 26-29-5-5-15-7-21-15-16 43-42 72-72 100 9 4 19-12 29-17 15 13 18 30 28 41 4 0 7-3 7-11 0-19-13-22-31-33 9-8 18-16 26-26h65c-41 71-64 88-134 134v3c75-33 104-61 150-126 5-4 20-5 9-14-4-4-9-9-14-16-11 15-44 7-68 9zm18 126c7-9 16-15 25-23-5-5-15-6-22-12-33 52-57 68-115 97l1 3c23-7 44-15 64-27 17 9 12 35 30 43 6 1 8-7 8-15-4-14-19-22-34-31 12-7 23-16 33-25h62C257-7 220 22 140 53 233 37 270 3 317-74c4-6 21-5 11-15-4-3-9-8-15-15l-13 12h-52" id="L"/><use transform="matrix(0.06172839506172839,0,0,0.06172839506172839,0,0)" xlink:href="#L" id="d"/><path fill="#3a414a" d="M128-89c-1-32-14-45-37-67 24-30 25-57 47-72 10-1 10-8 1-10-4-3-9-9-15-16-15 18-72 15-94 2 11 92 1 204 4 303 2 7 15-1 17-4v-280h61c-10 29-19 54-30 77 18 22 28 35 28 67 0 27-20 33-47 21v4c14 6 24 15 29 29 22-11 38-21 36-54zm79-165c-22 64-37 84-81 123l2 4c42-20 69-61 91-103 7 34 54 86 75 97 11-8 22-12 34-12v-3c-55-17-76-35-105-85 8-1 14-7 3-10-5-2-12-6-19-11zm-8 307c34-13 18-85 21-131h85c11 1 10-9 2-11-9-5-15-11-20-18l-16 19h-51v-45h46c8 1 9-7 2-11-8-4-14-10-19-16l-17 18h-77c4 15 31 7 48 9v45h-71l5 10h66v95c0 13-29 8-42 8v4c22 4 31 13 38 24zM161-60c-22 46-34 61-73 89l1 4c36-12 63-38 83-68 3-5 22-9 7-14-5-2-11-6-18-11zm88 4l-3 3c23 25 40 46 48 64 5 11 9 17 12 17 14-2 12-22 2-32-6-10-25-27-59-52" id="M"/><use transform="matrix(0.06172839506172839,0,0,0.06172839506172839,0,0)" xlink:href="#M" id="e"/><path fill="#3a414a" d="M183-174c0-7 11-13-1-15 8-14 9-14 17-29h121c11 0 10-8 2-12-10-5-17-11-22-18l-18 21H25l5 9h146C135-139 89-96 18-56l1 4c62-26 109-60 144-110V50c3 9 18-1 20-6v-218zm5 22l-1 3c40 30 67 55 82 76 10 14 17 21 22 21 16-5 7-23-4-35-11-11-43-34-99-65" id="N"/><use transform="matrix(0.06172839506172839,0,0,0.06172839506172839,0,0)" xlink:href="#N" id="f"/><path fill="#3a414a" d="M179-211c-1-18 0-33 6-41-6-5-20-5-29-10 7 11 5 33 5 51-35-1-75 4-95-11 8 75 1 165 3 245-9 2-17 4-25 5 6 3 12 36 21 21 31-24 69-32 119-68l-3-2c-40 19-67 32-95 39V-90h86c24 72 68 110 126 136 7-10 23-10 33-15-48-12-81-29-110-56 33-12 56-35 87-49-6-5-15-10-22-19-17 27-45 48-69 64-16-16-28-36-39-61h75c-2 12 8 6 14 4 3-1 4-2 4-3v-99c1-8 24-12 6-20-5-3-10-8-16-14-13 18-53 9-82 11zm-93 10h167v45H86v-45zm0 54h167v47H86v-47" id="O"/><use transform="matrix(0.06172839506172839,0,0,0.06172839506172839,0,0)" xlink:href="#O" id="g"/><path fill="#3a414a" d="M48-245c15 16 22 30 30 44 8 0 11-16 4-22-3-5-13-13-32-25zm85 45c21-2 32-27 50-37-4-6-14-7-20-14-7 22-17 36-30 51zm28 76c23-21-14-36-39-44v-13h69c9 1 9-8 2-10-7-4-13-10-17-15l-15 15h-39c1-20-4-48 6-59-5-5-20-4-25-8 4 12 3 47 3 67H29l5 10h63c-18 38-42 60-74 80l2 4c36-16 60-36 81-66v54l-4-2c-2 10-7 22-14 36H21l5 10h57C75-49 64-30 50-8c11 11 21-5 24-14 16 5 30 10 41 17-22 30-50 45-96 56v3c51-7 83-23 108-51 20 12 22 21 36 28 4-1 7-4 7-10-6-15-18-19-35-29 9-13 18-27 31-57 13-1 52 3 35-11-7-6-16-11-20-17l-16 18h-59c4-9 11-19 19-23-1-5-12-5-17-9 23-1 12-36 14-58 16 11 20 16 31 34 2 4 4 7 8 7zm-14 59c-10 25-18 42-25 51-11-5-27-9-45-13l23-38h47zm109 33c22-41 35-79 43-143 11 0 38 2 24-11-8-3-15-8-20-15l-16 16h-57c6-13 11-29 17-47 3-4 20-8 5-14-7-2-13-6-21-12-11 65-27 112-58 155l3 3c14-15 25-31 35-49 3 44 13 84 28 119-24 37-52 60-99 81l1 3c47-15 82-35 105-70 10 17 27 38 49 62 13-6 20-11 32-3l1-4c-35-21-54-41-72-71zm-7-14c-12-28-28-69-32-114 3-5 6-9 9-15h55c-6 58-16 92-32 129" id="P"/><use transform="matrix(0.06172839506172839,0,0,0.06172839506172839,0,0)" xlink:href="#P" id="h"/><path fill="#3a414a" d="M56 53c10 7 28-13 28-28V-83c15-6 32-13 51-22-14-6-37 8-51 8v-70h49c7 1 10-9 2-10-7-4-13-10-17-15-8 9-14 18-34 15v-60c-1-7 16-11 0-14-6 0-12-2-19-5 4 20 1 55 2 79H18l5 10h44v74l-52 7c5 5 9 22 17 27 4-8 21-14 35-18V25c-2 11-26 4-35 4v4c13 3 21 10 24 20zm257-279c0-9 24-13 7-21-4-3-10-6-15-12l-11 14H162l-23-14c4 13 5 42 5 86-2 125-9 151-56 219l3 1c44-50 62-74 69-158h69v51c-25 0-50 2-63-10 9 34 2 81 4 121 9 8 21-4 17-20h107c1 6-3 19 3 20 4-2 11-3 13-7v-85c0-9 23-12 7-21-5-3-10-6-15-12l-11 14h-45v-51h84c7 1 6-8 2-11-8-3-15-8-20-15l-17 16h-49c-2-19 1-32 7-41l-26-8c4 12 1 33 2 49h-68c1-15 1-33 1-52h135c1 6-3 16 3 17 4-2 11-3 13-7v-63zM187 21v-71h107v71H187zm-25-257h135v54H162v-54" id="Q"/><use transform="matrix(0.06172839506172839,0,0,0.06172839506172839,0,0)" xlink:href="#Q" id="i"/><path fill="#3a414a" d="M71 58c13 0 29-13 29-30V-90c15-11 33-24 53-41l-3-3c-18 12-35 23-50 31v-70h51c9 1 11-8 3-11-9-5-16-11-21-17-9 9-12 23-33 19 2-24-5-59 7-69-5-5-18-3-26-8 5 18 2 53 3 77H17l5 9h62v79C65-84 39-73 21-70c5 5 8 22 16 28 6-13 30-25 47-36V28c-5 10-30 3-40 1v4c15 4 24 12 27 25zm164-1c10-2 28-16 27-29v-231h59c12 0 11-7 2-11s-16-12-21-18l-18 20H148l6 9h92V24c0 4-1 7-4 7-16 0-29-2-40-5v5c18 4 26 13 33 26" id="R"/><use transform="matrix(0.06172839506172839,0,0,0.06172839506172839,0,0)" xlink:href="#R" id="j"/><path fill="#3a414a" d="M120-239c-28 70-47 93-101 135l2 4c50-22 85-63 112-112 3-7 24-10 7-16-6-2-12-6-20-11zm216 121c-65-21-96-58-118-123h-5c16 70 44 109 90 138 8-8 19-12 32-12zM185 24c13 4 20 14 25 26 29-9 32-12 40-38 5-19 8-58 12-117 4-4 18-10 7-17-5-3-11-8-15-14l-15 14H77l5 10h59C131-27 98 21 33 51l1 3c76-27 117-74 127-166h85c-8 79-1 119-32 134-4 0-12 0-27-2" id="S"/><use transform="matrix(0.06172839506172839,0,0,0.06172839506172839,0,0)" xlink:href="#S" id="k"/><path fill="#3a414a" d="M137-89c0-25-18-28-42-42v-37h45c8 1 10-9 2-11-8-5-14-10-18-16-8 7-11 20-29 17 2-24-5-57 5-72-4-6-19-4-24-8 4 17 1 57 2 80H22l5 10h46c-9 52-26 91-56 134l2 3c26-26 46-56 59-90l2 176c5-3 13-2 15-8v-170c18 15 23 34 34 46 5 0 8-4 8-12zm147-152l-16 17H153l5 10h144c9 1 9-9 2-11-8-5-16-10-20-16zM216 51c8 7 23-11 23-26v-156h87c10 0 10-8 2-12-9-4-15-11-20-17l-17 19H129l6 10h88V24c-1 12-24 7-34 5v4c15 4 24 10 27 18zm-40-154c-12 50-27 86-58 117l3 3c33-30 50-51 70-98 2-4 17-5 4-11-6-2-12-6-19-11zM305 7c4 15 21 8 19-8-5-40-30-65-60-97l-2 1c26 42 28 50 43 104" id="T"/><use transform="matrix(0.06172839506172839,0,0,0.06172839506172839,0,0)" xlink:href="#T" id="l"/><path fill="#3a414a" d="M59-181c6 14 21 8 19-8-3-20-19-31-38-47 3 20 16 28 19 55zm3 203c22-6-2-52 1-70 11-50 22-71 39-118l-3-1c-19 35-36 65-48 91-6 12-15 8-22 14 25 5 14 42 18 67 0 12 4 17 15 17zm189-248c1-4 19-10 4-13-7-1-13-4-20-8-2 19-8 42-19 66h-63c8-16 14-34 21-53 3-5 26-10 8-16-6-2-13-7-21-12-21 79-32 109-73 161l1 4c18-13 33-31 48-55V51c12 9 19-6 17-22h174c8 1 8-8 2-11-9-4-16-10-22-18l-18 20h-52v-62h65c7 0 8-7 3-11-8-3-15-8-20-15l-17 16h-31v-56h65c7 0 8-8 3-11-8-3-15-8-20-15l-17 16h-31v-53h83c7 0 9-8 2-11-9-4-16-10-22-18l-18 19h-62c12-13 22-28 30-45zM154 20v-62h67v62h-67zm67-72h-67v-56h67v56zm0-66h-67v-53h67v53" id="U"/><use transform="matrix(0.06172839506172839,0,0,0.06172839506172839,0,0)" xlink:href="#U" id="m"/><path fill="#3a414a" d="M97-159c1-7 9-10 0-14 12-19 23-40 33-64 4-5 24-10 7-15-6-2-12-6-20-11C88-178 70-149 15-96l2 4c23-13 45-32 64-57V47c1 9 10 0 14 0 7-63-1-139 2-206zm91-71c-2-8 16-13 1-16-6-1-12-3-19-6 5 83-2 173 2 259 2 36 19 31 73 31 53 0 68 4 86-16-11-7-11-26-12-49h-3c-3 19-4 42-16 47-18-1-120 14-112-13v-116c50-11 89-28 118-51 5-7 27-5 11-15-5-2-10-7-16-13-21 30-59 55-113 75v-117" id="V"/><use transform="matrix(0.06172839506172839,0,0,0.06172839506172839,0,0)" xlink:href="#V" id="n"/><use transform="matrix(0.06172839506172839,0,0,0.06172839506172839,0,0)" xlink:href="#S" id="o"/><use transform="matrix(0.06172839506172839,0,0,0.06172839506172839,0,0)" xlink:href="#P" id="p"/><path fill="#3a414a" d="M130-231c1-10 28-11 11-19-6-2-12-6-19-11-30 67-49 89-105 128l1 4c15-6 29-14 43-24L62 9c1 22 2 34 22 34h107c12 0 16-6 19-17-12-5-13-28-13-53h-3c-5 23 7 61-29 53H91c-12 0-13-6-13-17v-145h85v88c-1 22-31 7-46 7v3c21 6 31 13 38 25 11-4 25-12 25-31 0-33-9-83 11-97-4-8-14-9-21-18l-9 14c-33-2-79 7-97-10 26-19 45-44 64-72 29 20 50 37 61 52 8 11 14 16 18 16 5 0 9-4 9-12-14-30-32-30-86-60zm119 24c-2-9 11-15 0-18-8-2-15-2-20-4 8 59-1 144 4 208 5-3 13-4 16-9v-177zm67-32c-1-7 16-10 1-14-6 0-13-2-20-5 8 85 1 187 3 278-4 11-32 5-42 2v4c18 4 26 15 32 27 12-1 26-15 26-33v-259" id="W"/><use transform="matrix(0.06172839506172839,0,0,0.06172839506172839,0,0)" xlink:href="#W" id="q"/><path fill="#3a414a" d="M286-199c-1-7 21-10 8-18-5-4-10-8-14-13-11 13-39 8-62 9-5-15 13-25 1-30-8-1-15-2-20-4 2 7 3 18 3 34h-59l5 10h54v33h-85l5 10h80v34h-59l5 10h54v34h-67l5 9h62v33h-82l5 10h77c1 17-2 38 1 53 5-3 14-2 15-8v-45h98c9 0 10-10 1-11-8-5-15-10-19-16l-16 17h-64v-33h74c9 1 11-8 3-9-7-4-12-9-16-14l-14 14h-47v-34h51c-3 11 5 11 14 7 8-10 1-35 3-51 14-2 56 7 42-11-8-4-14-9-18-14-8 5-9 17-24 15v-21zm-68-12h51v33h-51v-33zm0 43h51v34h-51v-34zM19 49C55 28 67 21 85-6c57 49 95 47 221 50 7-11 15-18 26-22v-4C243 28 133 31 90-15c20-33 25-60 35-107 1-5 16-7 7-12-5-3-10-8-14-15-9 9-27 9-45 8l36-74c5-6 20-8 9-16-4-2-9-5-14-10l-10 9H22l5 10h67L43-116c4 2 14 1 19 0l7-15h37c-6 47-11 74-26 104-11-13-22-32-32-55 4 27 17 50 27 64C61 6 47 21 18 46" id="X"/><use transform="matrix(0.06172839506172839,0,0,0.06172839506172839,0,0)" xlink:href="#X" id="r"/><path fill="#3a414a" d="M52-115c0 93 80 130 150 87l7-35h11l-1 55c-23 7-52 12-83 12C60 4 19-37 15-115c-5-113 97-141 201-114l1 51h-12l-5-30c-15-9-39-16-62-16-66 0-86 41-86 109" id="Y"/><path fill="#3a414a" d="M178-68c0 79-95 82-154 59v-54h12c1 35 22 52 60 52 50 0 69-58 33-82-39-24-105-21-105-85 0-67 86-66 142-53v49h-12l-6-29c-31-27-121-7-89 42 28 43 119 24 119 101" id="Z"/><path fill="#3a414a" d="M256-236v10l-26 4L135 5h-9L31-222l-27-4v-10h95v10l-31 4 71 174 71-174-31-4v-10h77" id="aa"/><g id="s"><use transform="matrix(0.06172839506172839,0,0,0.06172839506172839,0,0)" xlink:href="#Y"/><use transform="matrix(0.06172839506172839,0,0,0.06172839506172839,14.814814814814813,0)" xlink:href="#Z"/><use transform="matrix(0.06172839506172839,0,0,0.06172839506172839,27.160493827160494,0)" xlink:href="#aa"/></g><path fill="#3a414a" d="M183-191c1-19-4-45 6-54-3-7-18-4-26-9 5 17 2 42 3 63H25l5 10h75c15 71 28 108 60 148C138-6 76 32 19 49l3 4c62-18 112-41 152-75 28 32 64 57 106 73 10-8 24-12 39-12v-4c-59-12-99-36-132-69 27-30 48-73 72-147h64c8-1 6-10-2-12-6-4-12-10-20-19l-19 21h-99zm-73 10h129c-17 61-38 106-63 136-34-37-53-79-66-136" id="ab"/><use transform="matrix(0.06172839506172839,0,0,0.06172839506172839,0,0)" xlink:href="#ab" id="t"/><path fill="#3a414a" d="M81-153c4-8 8-14-5-17 10-19 20-41 30-66 3-3 19-6 5-12-6-3-12-7-19-14-16 70-41 120-74 168l3 2c14-15 28-33 42-55V51c1 9 10 0 15 0 2-1 3-2 3-4v-200zm77-20c9-11 9-32 22-41 6-2 5-6-2-9-6-2-13-5-20-10-10 54-26 93-55 126l3 3c20-18 33-37 47-59h59v86H102l5 10h105l1 122c5-3 14-3 16-9V-67h98c10 0 10-7 2-11-9-4-16-12-21-18l-18 19h-61v-86h86c7 0 6-8 1-11-9-4-16-10-22-18l-18 19h-47c2-26-6-62 7-75-5-7-23-4-29-8 7 15 5 57 5 83h-54" id="ac"/><use transform="matrix(0.06172839506172839,0,0,0.06172839506172839,0,0)" xlink:href="#ac" id="u"/><path fill="#3a414a" d="M81-159c0-5 9-11 0-13 11-18 22-38 33-62 4-5 19-7 5-13-6-3-13-8-20-15-17 65-45 113-81 158l3 3c15-13 29-28 44-47l2 202c5-2 14-2 14-8v-205zm203-60c0-10 24-15 6-23-5-3-11-7-17-13l-11 11c-45-3-104 9-132-11 12 34-1 90 7 129 9-3 19-4 16-18h113c-3 13 6 11 15 8 8-21 0-57 3-83zm-131 66v-81h113v81H153zm33 68C162-29 133 6 89 35l2 3c51-26 82-61 108-114l1 130c5-3 14-3 17-8V-81c7 37 56 93 77 107 12-8 24-12 37-12v-4c-58-20-79-39-110-95h103c8 1 9-7 2-11-8-4-15-10-20-16l-16 18h-73c-1-15 0-28 7-33-2-9-23-5-27-10 3 11 2 28 2 43H95l5 9h86" id="ad"/><use transform="matrix(0.06172839506172839,0,0,0.06172839506172839,0,0)" xlink:href="#ad" id="v"/><path fill="#3a414a" d="M99-129c11-26 30-42 43-72h174c11 0 10-8 2-12-9-4-16-11-21-17l-18 19H147c6-12 11-28 22-36-6-5-20-8-29-15-3 17-8 34-14 51H30l6 10h87c-8 18-17 36-28 53-8-1-13-3-18-4 2 5 4 14 4 25-16 22-36 43-59 65l3 3c19-14 37-31 56-52l1 165c6-3 15-3 17-10v-173zm133 24c21-7 31-27 58-31 11-1 13-8 5-13-6-4-12-11-18-21l-13 12H140l6 10h120c-14 17-28 31-42 42-6-1-11-3-18-5 3 10 3 30 3 46h-99l5 9h94v74c-2 12-32 6-44 6v4c17 4 24 13 30 25 13-2 32-16 32-35v-74h96c9 0 11-9 2-11-9-5-15-12-20-18l-17 20h-61c-1-17 0-32 8-38 0-1-1-2-3-2" id="ae"/><use transform="matrix(0.06172839506172839,0,0,0.06172839506172839,0,0)" xlink:href="#ae" id="w"/><path fill="#3a414a" d="M55 0v-9l38-5v-207c-22 1-53 0-70 4l-5 37H7v-56h207v56h-12l-5-37-70-3v206l37 5v9H55" id="af"/><path fill="#3a414a" d="M75-108c48 3 76-12 76-58s-28-57-76-54v112zm111-58c-1 60-46 78-111 74v78l37 5v9H13v-9l28-5v-208l-31-4v-10c81 1 178-14 176 70" id="ag"/><g id="z"><use transform="matrix(0.06172839506172839,0,0,0.06172839506172839,0,0)" xlink:href="#af"/><use transform="matrix(0.06172839506172839,0,0,0.06172839506172839,13.518518518518517,0)" xlink:href="#Y"/><use transform="matrix(0.06172839506172839,0,0,0.06172839506172839,28.33333333333333,0)" xlink:href="#ag"/></g><path fill="#3a414a" d="M86-221c1-13 32-19 17-28-6-2-12-5-19-10-17 47-30 64-63 93l1 4c23-10 43-29 58-49h26c12 12 11 41 26 46 23-11-7-37-19-46h57c7 0 8-8 2-11-8-3-14-8-19-15l-17 16H86zm132 0c6-8 10-20 20-24-5-6-17-9-25-16-7 34-19 58-39 79-5-1-10-2-16-4 7 7 3 22 4 35H59v-17h-4c-2 32-20 40-34 57 1 6 5 9 11 10 17-4 24-19 26-40h240c-7 15-13 26-19 34l3 3c15-7 20-27 43-30 9-1 9-11 2-14-6-4-12-10-18-17l-14 14H180c-6-16 16-25 1-30 12-9 21-19 30-30h32c14 12 14 39 29 46 6-1 9-4 10-12-5-13-19-25-32-34h76c7 0 6-9 1-11-8-3-14-8-19-15l-17 16h-73zm33 128c0-8 25-13 8-21-5-3-10-6-15-12l-11 12H102l-21-10C91-74 82-7 85 50c1 9 10 0 14 0 5-1 4-4 4-9h154c-3 11 6 8 13 5 7-10 1-33 3-48-1-9 25-13 8-21-5-3-10-7-15-12l-10 12H103v-30h132c-2 12 5 12 13 7 7-10 3-32 3-47zM103 32v-45h154v45H103zm0-95v-41h132v41H103" id="ah"/><use transform="matrix(0.06172839506172839,0,0,0.06172839506172839,0,0)" xlink:href="#ah" id="A"/><path fill="#3a414a" d="M188-204c8-2 13-17 4-25-5-4-20-23-41-29 14 14 24 31 30 50 2 3 4 4 7 4zm85-39c5 1 12-9 2-9-5-1-11-5-17-9-6 24-16 42-31 58H104l6 10h89c-4 14-9 26-16 37-21 2-35-3-46-11 10 53 1 124 4 184 1 9 10 0 15 0 7-3 1-17 3-25h110c1 7-3 19 3 21 5-2 12-3 15-7v-137c0-9 26-16 7-23-5-3-11-7-17-13l-11 11h-79c12-10 22-22 31-37h99c8 1 10-9 2-11-8-5-14-9-18-15l-15 16h-50c13-9 25-23 37-40zM159-18v-38h110v38H159zm0-47v-38h110v38H159zm0-47v-35h110v35H159zm-83-51c14-5 11-25-3-36-9-7-24-19-44-30l-2 2c23 22 27 25 39 56 2 5 6 8 10 8zm10 69c0-11 19-15 4-22-4-3-8-7-12-13l-13 15H18l5 10h46V-1C54 14 36 25 17 32c9 8 11 16 17 22C44 32 66 21 77 3c32 58 141 36 229 41 8-12 17-19 25-22v-4c-23 6-65 10-125 10-64 0-96 3-120-29v-93" id="ai"/><use transform="matrix(0.06172839506172839,0,0,0.06172839506172839,0,0)" xlink:href="#ai" id="B"/><path fill="#3a414a" d="M227 12c11 9 34-13 34-31v-154h56c12 0 11-8 2-11-10-6-17-12-22-19-10 9-13 25-36 21 2-25-6-63 8-73-5-6-20-3-29-8 5 20 2 55 3 81H128l5 9h110v154c-6 15-41 4-55 3v4c21 4 34 12 39 24zm-46-97c5 14 23 9 19-8-5-21-28-37-52-47 19 21 23 26 33 55zM82-197c9-2 15-18 6-27-4-4-24-20-48-27 17 15 29 31 36 50 2 3 3 4 6 4zM56 9c42 53 161 32 256 37 9-12 18-21 26-24v-4C290 26 95 46 64 3c27-25 38-44 54-86 5-3 19-5 8-14-4-4-9-10-14-17-5 12-21 12-39 11 11-18 17-42 33-55 11-9-7-11-11-19l-10 11H21l5 10h59L45-85c8 6 22 0 23-8h34C90-46 84-33 62 0c-1-1-4-2-5 0-13 17-28 28-45 36 9 3 13 25 17 13C39 36 48 22 56 9" id="aj"/><use transform="matrix(0.06172839506172839,0,0,0.06172839506172839,0,0)" xlink:href="#aj" id="C"/><path fill="#3a414a" d="M38-245c21 17 27 32 39 46 10 1 12-16 5-23-4-5-18-13-41-26zm-20 86c20 15 27 31 38 45 11 1 14-22 4-28-6-6-19-13-39-21zM59-11c12-61 24-86 41-142l-3-2L50-41c-6 14-11 13-25 14v3c27 2 16 35 19 60-2 14 13 22 20 13 6-13-7-44-5-60zm155-214c-3-15 5-17 7-26l-26-8c6 18 2 48 3 71-33 0-69 3-87-12 8 19 6 38 6 62-1 79-6 142-39 191l2 2c53-49 55-134 55-233h168c-3 13-14 24-11 31 13-3 17-19 36-20 10-1 8-9 2-13s-12-9-18-16l-11 8h-87v-27h86c15-10-16-16-18-26l-17 16h-51zm32 122c-35 0-43 2-41-28l70-9c5 0 8-8 1-10-7-3-13-9-18-15l-10 19-43 5c-6-17 16-27 0-30-6-1-11-3-18-6l1 38-48 6 7 10 41-6c0 41 7 41 58 41 41 0 52 4 64-15-10-2-13-11-13-26h-3c-4 28-7 27-48 26zm-96 53c-1 34-14 46-25 65 3 9 12 15 18 5 10-18 11-34 11-70h-4zm45 59c0-22-3-50 7-58-7-4-18-5-28-10 5 22 1 43 3 68 2 32 11 32 56 32 40 0 53 4 64-17-9-4-5-23-11-35-5 34-5 40-53 36-28-2-38 2-38-16zm17-81c24 17 28 36 44 49 12-1 8-21 1-28-8-7-22-15-44-24zM323 6c13-5 11-25-1-36-8-6-24-24-42-29 19 23 24 26 33 57 2 5 6 8 10 8" id="ak"/><use transform="matrix(0.06172839506172839,0,0,0.06172839506172839,0,0)" xlink:href="#ak" id="D"/><path fill="#3a414a" d="M151-215c1-7 22-11 6-19-4-3-9-7-14-13-15 18-73 15-95 2 8 27 2 65 4 98 7 6 21-1 17-16h66c-2 12 5 12 13 7 8-13 1-40 3-59zm-82 42v-53h66v53H69zm226 18c11-20-8-67 14-72-3-8-15-11-21-20l-12 11c-30-1-68 5-85-9 8 27 2 64 4 97 6 6 21-1 17-15h70c1 4-2 12 2 12zm-83-18v-53h70v53h-70zm-10 68c18 25 35 42 65 54-23 4-64 5-80-8 8 31 2 73 4 110 8 7 19-3 16-18h62c1 5-2 15 3 16 5-2 12-4 14-8v-69c2-7 15-14 23-10 4-9 15-10 21-16-50-3-93-20-122-51h108c9 0 10-10 1-11-8-5-15-11-19-17l-16 18H158c11-10 11-18 26-27 8-10-14-10-19-17-9 17-19 32-28 44H23l6 10h100C99-73 74-57 18-33l1 3c16-6 31-11 44-16 6 27-2 72 4 100 10-2 17-7 14-21h58c1 4-2 13 2 14 4-2 12-3 14-7v-68c1-7 24-13 6-19-4-3-9-7-14-13-9 16-51 13-72 8 37-17 48-24 75-53h52zm5 129v-63h62v63h-62zM81 24v-63h58v63H81" id="al"/><use transform="matrix(0.06172839506172839,0,0,0.06172839506172839,0,0)" xlink:href="#al" id="E"/><path fill="#3a414a" d="M57 54c10 8 28-11 28-28V-89c15-5 32-12 52-20l-2-3c-19 4-35 7-50 10v-75h50c7 1 8-8 2-10-8-3-13-9-17-14-8 8-15 18-35 15 2-23-5-57 7-66-4-6-18-4-26-9 5 18 2 51 3 75H18l5 9h46v78l-55 6c5 6 10 21 16 28 3-10 23-13 39-18V26c-4 11-30 5-40 2v4c15 4 24 11 28 22zm170-269c-1-18 1-31 6-40-4-5-18-4-26-8 4 11 3 32 3 48h-85l5 9h193c10 0 10-7 2-11-9-4-15-11-20-17l-17 19h-61zm26 79c15-11 29-37 45-56-5-4-15-5-22-11-7 28-17 48-32 67h-49c10-28-20-44-41-56 18 20 17 31 29 56h-73l5 10h80l-23 44h-72l6 10h60L129-2c17 9 27-13 32-25 21 6 41 13 57 20-29 32-71 45-121 57l2 4c55-5 102-23 133-53 33 15 58 41 80 52 13-7 5-26-8-32-11-8-37-20-61-31 13-15 24-35 33-62h55c11 0 10-8 2-12-10-5-18-12-23-19l-18 21H189l22-44h117c9 1 11-8 3-11-9-5-16-12-21-18l-16 19h-41zM227-16c-18-6-39-11-64-16l21-40h72c-8 23-17 42-29 56" id="am"/><use transform="matrix(0.06172839506172839,0,0,0.06172839506172839,0,0)" xlink:href="#am" id="F"/><path fill="#3a414a" d="M147-229c2-5 20-10 5-17-4-3-10-7-15-13l-12 11H18l5 9h107l-17 131H48c12-36 6-82 21-110-5-4-18-4-26-9 3 47-4 94-17 131-1 2 9 8 12 8 5 1 7-10 12-10h101c-8 69-6 94-25 123-14 6-18 2-38-4v3c12 6 21 14 24 27 57-11 44-61 54-137-2-9 18-11 6-19-4-2-9-7-14-13-6 7-13 12-28 10zM18-20c8 2 20 36 27 14 33-17 62-35 88-54l-1-3C82-41 44-27 18-20zm302-129c0-23-32-35-54-48 11-11 23-25 37-42 15 1 14-3 7-8-4-3-10-7-15-14-15 22-29 41-43 56-22-11-48-22-79-34l-1 5c27 12 50 24 71 38-27 23-65 48-89 56l1 4c34-6 71-27 101-51 23 15 36 34 57 47 4-1 7-3 7-9zM237-19c-24 28-54 47-91 65l1 3c40-15 72-35 97-59 18 24 37 44 56 59 8-7 17-11 30-11l1-3c-28-13-54-31-77-56 16-20 32-50 46-91 0-5 17-7 4-14-5-2-11-5-17-11-13 55-21 75-41 106-27-28-42-67-63-103 20 56 34 86 54 115" id="an"/><use transform="matrix(0.06172839506172839,0,0,0.06172839506172839,0,0)" xlink:href="#an" id="G"/><path fill="#3a414a" d="M174-207c-1-19 0-36 7-45-6-5-19-5-28-10 7 32 1 78 3 115-32-1-70 5-87-11 9 35 2 83 4 124 1 9 10 0 14 0 7-1 3-9 4-16h168c1 5-2 16 3 16 5-2 13-3 15-7 3-34-9-83 10-99-3-10-16-10-23-20l-11 13h-79v-50h139c7 0 9-8 2-11-9-4-17-10-23-18l-17 19H174zM91-60v-77h168v77H91zM66-23C61 5 33 19 21 41c8 16 23 8 33-9 7-12 13-31 16-55h-4zm67 62c6 14 22 8 20-8-3-23-21-37-42-54 8 25 17 32 22 62zm81-1c5 15 21 7 19-9-3-22-25-41-46-52 16 23 17 30 27 61zm51-59c31 24 39 49 56 70 14-3 9-27 0-36-10-10-27-24-55-37" id="ao"/><use transform="matrix(0.06172839506172839,0,0,0.06172839506172839,0,0)" xlink:href="#ao" id="H"/></defs></g></svg>