<svg xmlns="http://www.w3.org/2000/svg" xmlns:xlink="http://www.w3.org/1999/xlink" xmlns:lucid="lucid" width="840.31" height="640"><g transform="translate(-380 -140)" lucid:page-tab-id="0_0"><path d="M0 0h1870.87v1322.84H0z" fill="#fff"/><path d="M400 326a6 6 0 0 1 6-6h168.16a6 6 0 0 1 6 6v68a6 6 0 0 1-6 6H406a6 6 0 0 1-6-6z" stroke="#3a414a" fill="#fff"/><use xlink:href="#a" transform="matrix(1,0,0,1,405,325) translate(67.6604938271605 39.65277777777778)"/><path d="M400 466a6 6 0 0 1 6-6h168.16a6 6 0 0 1 6 6v68a6 6 0 0 1-6 6H406a6 6 0 0 1-6-6z" stroke="#3a414a" fill="#fff"/><use xlink:href="#b" transform="matrix(1,0,0,1,405,465) translate(41.05555555555556 39.65277777777778)"/><use xlink:href="#c" transform="matrix(1,0,0,1,405,465) translate(63.27777777777778 39.65277777777778)"/><use xlink:href="#d" transform="matrix(1,0,0,1,405,465) translate(85.5 39.65277777777778)"/><use xlink:href="#e" transform="matrix(1,0,0,1,405,465) translate(107.72222222222221 39.65277777777778)"/><path d="M400 606a6 6 0 0 1 6-6h168.16a6 6 0 0 1 6 6v68a6 6 0 0 1-6 6H406a6 6 0 0 1-6-6z" stroke="#3a414a" fill="#fff"/><use xlink:href="#f" transform="matrix(1,0,0,1,405,605) translate(41.05555555555556 39.65277777777778)"/><use xlink:href="#g" transform="matrix(1,0,0,1,405,605) translate(63.27777777777778 39.65277777777778)"/><use xlink:href="#h" transform="matrix(1,0,0,1,405,605) translate(85.5 39.65277777777778)"/><use xlink:href="#i" transform="matrix(1,0,0,1,405,605) translate(107.72222222222221 39.65277777777778)"/><path d="M640 466a6 6 0 0 1 6-6h168.16a6 6 0 0 1 6 6v68a6 6 0 0 1-6 6H646a6 6 0 0 1-6-6z" stroke="#3a414a" fill="#fff"/><use xlink:href="#j" transform="matrix(1,0,0,1,645,465) translate(41.05555555555556 39.65277777777778)"/><use xlink:href="#k" transform="matrix(1,0,0,1,645,465) translate(63.27777777777778 39.65277777777778)"/><use xlink:href="#l" transform="matrix(1,0,0,1,645,465) translate(85.5 39.65277777777778)"/><use xlink:href="#m" transform="matrix(1,0,0,1,645,465) translate(107.72222222222221 39.65277777777778)"/><path d="M1020.16 340H840v80h180.16z" stroke="#3a414a" fill="#fff"/><use xlink:href="#a" transform="matrix(1,0,0,1,845,345) translate(67.6604938271605 39.65277777777778)"/><path d="M1020.16 420H840v80h180.16z" stroke="#3a414a" fill="#fff"/><use xlink:href="#b" transform="matrix(1,0,0,1,845,425) translate(41.05555555555556 39.65277777777778)"/><use xlink:href="#c" transform="matrix(1,0,0,1,845,425) translate(63.27777777777778 39.65277777777778)"/><use xlink:href="#d" transform="matrix(1,0,0,1,845,425) translate(85.5 39.65277777777778)"/><use xlink:href="#e" transform="matrix(1,0,0,1,845,425) translate(107.72222222222221 39.65277777777778)"/><path d="M1020.16 500H840v80h180.16z" stroke="#3a414a" fill="#fff"/><use xlink:href="#f" transform="matrix(1,0,0,1,845,505) translate(41.05555555555556 39.65277777777778)"/><use xlink:href="#g" transform="matrix(1,0,0,1,845,505) translate(63.27777777777778 39.65277777777778)"/><use xlink:href="#n" transform="matrix(1,0,0,1,845,505) translate(85.5 39.65277777777778)"/><use xlink:href="#o" transform="matrix(1,0,0,1,845,505) translate(107.72222222222221 39.65277777777778)"/><path d="M1200.32 340h-180.16v240h180.16z" stroke="#3a414a" fill="#fff"/><use xlink:href="#j" transform="matrix(1,0,0,1,1025.1574803149606,345) translate(41.05555555555556 118.84027777777777)"/><use xlink:href="#k" transform="matrix(1,0,0,1,1025.1574803149606,345) translate(63.27777777777778 118.84027777777777)"/><use xlink:href="#p" transform="matrix(1,0,0,1,1025.1574803149606,345) translate(85.5 118.84027777777777)"/><use xlink:href="#q" transform="matrix(1,0,0,1,1025.1574803149606,345) translate(107.72222222222221 118.84027777777777)"/><path d="M490.08 401v42.12" stroke="#3a414a" fill="none"/><path d="M490.58 401h-1v-.5h1z" stroke="#3a414a" stroke-width=".05" fill="#3a414a"/><path d="M490.08 457.88l-4.64-14.26h9.27z" stroke="#3a414a" fill="#3a414a"/><path d="M490.08 541v42.12" stroke="#3a414a" fill="none"/><path d="M490.58 541h-1v-.5h1z" stroke="#3a414a" stroke-width=".05" fill="#3a414a"/><path d="M490.08 597.88l-4.64-14.26h9.27z" stroke="#3a414a" fill="#3a414a"/><path d="M581.16 360h142.92a6 6 0 0 1 6 6v77.12" stroke="#3a414a" fill="none"/><path d="M581.17 360.5h-.5v-1h.5z" stroke="#3a414a" stroke-width=".05" fill="#3a414a"/><path d="M730.08 457.88l-4.64-14.26h9.27z" stroke="#3a414a" fill="#3a414a"/><path d="M581.16 500h41.96" stroke="#3a414a" fill="none"/><path d="M581.17 500.5h-.5v-1h.5z" stroke="#3a414a" stroke-width=".05" fill="#3a414a"/><path d="M637.88 500l-14.26 4.63v-9.26z" stroke="#3a414a" fill="#3a414a"/><path d="M581.16 640h142.92a6 6 0 0 0 6-6v-77.12" stroke="#3a414a" fill="none"/><path d="M581.17 640.5h-.5v-1h.5z" stroke="#3a414a" stroke-width=".05" fill="#3a414a"/><path d="M730.08 542.12l4.63 14.26h-9.26z" stroke="#3a414a" fill="#3a414a"/><path d="M900 706a6 6 0 0 1 6-6h228a6 6 0 0 1 6 6v48a6 6 0 0 1-6 6H906a6 6 0 0 1-6-6z" stroke="#000" stroke-opacity="0" fill="#fff" fill-opacity="0"/><g><use xlink:href="#r" transform="matrix(1,0,0,1,905,705) translate(59.44444444444444 30.27777777777778)"/><use xlink:href="#s" transform="matrix(1,0,0,1,905,705) translate(81.66666666666666 30.27777777777778)"/><use xlink:href="#t" transform="matrix(1,0,0,1,905,705) translate(103.88888888888889 30.27777777777778)"/><use xlink:href="#u" transform="matrix(1,0,0,1,905,705) translate(126.1111111111111 30.27777777777778)"/><use xlink:href="#v" transform="matrix(1,0,0,1,905,705) translate(148.33333333333331 30.27777777777778)"/></g><path d="M460 706a6 6 0 0 1 6-6h228a6 6 0 0 1 6 6v48a6 6 0 0 1-6 6H466a6 6 0 0 1-6-6z" stroke="#000" stroke-opacity="0" fill="#fff" fill-opacity="0"/><g><use xlink:href="#w" transform="matrix(1,0,0,1,465,705) translate(37.222222222222214 30.27777777777778)"/><use xlink:href="#x" transform="matrix(1,0,0,1,465,705) translate(59.444444444444436 30.27777777777778)"/><use xlink:href="#y" transform="matrix(1,0,0,1,465,705) translate(81.66666666666666 30.27777777777778)"/><use xlink:href="#k" transform="matrix(1,0,0,1,465,705) translate(103.88888888888887 30.27777777777778)"/><use xlink:href="#t" transform="matrix(1,0,0,1,465,705) translate(126.1111111111111 30.27777777777778)"/><use xlink:href="#u" transform="matrix(1,0,0,1,465,705) translate(148.33333333333331 30.27777777777778)"/><use xlink:href="#z" transform="matrix(1,0,0,1,465,705) translate(170.55555555555554 30.27777777777778)"/></g><path d="M820 176a6 6 0 0 1 6-6h28a6 6 0 0 1 6 6v28a6 6 0 0 1-6 6h-28a6 6 0 0 1-6-6z" stroke="#3a414a" fill="#fff"/><path d="M900 166a6 6 0 0 1 6-6h228a6 6 0 0 1 6 6v48a6 6 0 0 1-6 6H906a6 6 0 0 1-6-6z" stroke="#000" stroke-opacity="0" fill="#fff" fill-opacity="0"/><g><use xlink:href="#A" transform="matrix(1,0,0,1,905,165) translate(103.88888888888889 30.27777777777778)"/></g><path d="M820.5 260h43.12" stroke="#3a414a" fill="none"/><path d="M820.5 260.5h-.5v-1h.5z" stroke="#3a414a" stroke-width=".05" fill="#3a414a"/><path d="M878.38 260l-14.26 4.63v-9.26z" stroke="#3a414a" fill="#3a414a"/><path d="M920 236a6 6 0 0 1 6-6h228a6 6 0 0 1 6 6v48a6 6 0 0 1-6 6H926a6 6 0 0 1-6-6z" stroke="#000" stroke-opacity="0" fill="#fff" fill-opacity="0"/><g><use xlink:href="#B" transform="matrix(1,0,0,1,925,235) translate(55.15432098765432 30.27777777777778)"/><use xlink:href="#C" transform="matrix(1,0,0,1,925,235) translate(71.14197530864197 30.27777777777778)"/><use xlink:href="#x" transform="matrix(1,0,0,1,925,235) translate(93.3641975308642 30.27777777777778)"/><use xlink:href="#y" transform="matrix(1,0,0,1,925,235) translate(115.58641975308642 30.27777777777778)"/><use xlink:href="#D" transform="matrix(1,0,0,1,925,235) translate(137.80864197530863 30.27777777777778)"/></g><path d="M760 246a6 6 0 0 1 6-6h48a6 6 0 0 1 6 6v28a6 6 0 0 1-6 6h-48a6 6 0 0 1-6-6z" stroke="#000" stroke-opacity="0" fill="#fff" fill-opacity="0"/><g><use xlink:href="#E" transform="matrix(1,0,0,1,765,245) translate(17.006172839506174 19.65277777777778)"/></g><path d="M880 236a6 6 0 0 1 6-6h48a6 6 0 0 1 6 6v48a6 6 0 0 1-6 6h-48a6 6 0 0 1-6-6z" stroke="#000" stroke-opacity="0" fill="#fff" fill-opacity="0"/><g><use xlink:href="#F" transform="matrix(1,0,0,1,885,235) translate(17.592592592592595 30.27777777777778)"/></g><defs><path fill="#3a414a" d="M81-9v9H4v-9l26-5 81-224h33l83 224 30 5v9h-99v-9l31-5-23-68H73L49-14zm38-203L78-98h82" id="G"/><path fill="#3a414a" d="M75-108c48 3 76-12 76-58s-28-57-76-54v112zm111-58c-1 60-46 78-111 74v78l37 5v9H13v-9l28-5v-208l-31-4v-10c81 1 178-14 176 70" id="H"/><path fill="#3a414a" d="M77-14l30 5v9H13v-9l30-5v-208l-30-4v-10h94v10l-30 4v208" id="I"/><g id="a"><use transform="matrix(0.06172839506172839,0,0,0.06172839506172839,0,0)" xlink:href="#G"/><use transform="matrix(0.06172839506172839,0,0,0.06172839506172839,15.987654320987653,0)" xlink:href="#H"/><use transform="matrix(0.06172839506172839,0,0,0.06172839506172839,28.333333333333332,0)" xlink:href="#I"/></g><path fill="#3a414a" d="M144-226c-2-9 15-15 2-19-6-1-13-3-21-6 8 81 1 178 3 264H18l5 9h303c11 0 10-8 1-11-10-6-17-12-22-19l-18 21h-64v-59c35-35 63-76 85-125 2-5 21-11 2-14-8-2-16-6-24-11-6 41-27 88-63 140v-170c-2-9 14-15 1-19-6-1-14-3-21-6 8 81 1 178 3 264h-62v-239zM85-39c24-13 13-38 0-70-9-22-25-47-47-76l-2 1c26 46 41 92 41 135 0 6 3 9 8 10" id="J"/><use transform="matrix(0.06172839506172839,0,0,0.06172839506172839,0,0)" xlink:href="#J" id="b"/><path fill="#3a414a" d="M130-221c6-6 7-18 17-22 6-2 5-5-2-8-6-2-13-6-20-11-18 55-47 92-91 124l3 2c35-20 57-40 81-68 16 29 35 50 54 65-49 26-81 35-153 50l3 3c68-11 117-19 162-46 26 15 61 30 106 43 13-13 23-17 42-14v-4c-54-8-94-16-133-34 18-12 36-31 60-58 1-7 27-8 15-18-5-4-11-11-16-19l-16 15H130zm114 10c-23 32-36 45-59 63-25-12-41-30-63-61 35-6 83 0 122-2zM203 22c17 4 28 16 36 29 44-27 29-29 44-97 4-5 24-10 8-17-5-3-10-7-14-14l-13 13h-90c4-10 1-26 11-29 6-11-14-10-24-18-1 18-3 33-6 47H60l6 10h87C134 8 90 30 18 51l1 4C94 39 152 14 172-54h94c-10 76-4 88-63 72v4" id="K"/><use transform="matrix(0.06172839506172839,0,0,0.06172839506172839,0,0)" xlink:href="#K" id="c"/><path fill="#3a414a" d="M317-219c0-8 21-14 5-21-5-3-9-6-14-12l-11 9H151l-19-9c8 30 2 72 4 108 10 8 20-5 17-21h148c1 4-2 12 2 13 4-2 12-3 14-7v-60zm-164 45v-59h38v59h-38zm53 0v-59h40v59h-40zm55 0v-59h40v59h-40zm-54 53c6-10 13-23 24-30-5-4-15-6-22-12-21 57-36 75-77 109 15 1 35-20 49-32 20 17 25 36 36 51-26 18-52 35-89 48 86-15 120-45 166-116 4-7 21-6 10-15-4-3-8-8-14-15l-14 12h-69zm18 79c-1-30-16-32-41-48 6-7 11-14 16-21h76c-17 29-33 52-51 69zM81-195c10-2 14-17 5-26-4-5-23-22-46-30 16 15 27 32 34 52 2 3 4 4 7 4zM53 10c43 53 164 31 259 36 9-12 18-21 26-24v-4C289 26 95 45 61 4c26-25 36-46 50-87 5-4 20-6 9-14-4-4-9-10-14-17-6 9-17 13-34 11 12-18 19-43 36-55 11-8-8-12-12-19l-10 11H21l5 10h60L44-85c7 6 22 1 22-8h29C85-47 79-32 59 1c-2 0-3-2-5 0-12 16-26 28-42 35 9 3 13 25 17 13 9-13 17-26 24-39" id="L"/><use transform="matrix(0.06172839506172839,0,0,0.06172839506172839,0,0)" xlink:href="#L" id="d"/><path fill="#3a414a" d="M22-89c4 9 18 10 22 0h45v57c-23 8-50 16-71 19 6 3 10 31 19 20 7-9 36-17 52-27 2 25-4 57 2 78 5-3 13-2 15-8v-78c13-7 28-16 44-26l-2-3c-15 7-29 13-42 18v-50h41c11-11-13-15-19-26-8 5-10 16-22 17 2-26-5-63 5-80-3-7-20-4-25-8 5 19 2 62 3 88H45c9-31 18-65 27-103h75c8 1 10-9 2-11-8-5-15-9-19-15l-15 16H75c5-19 2-33 16-44-4-4-14-4-21-8-4 18-7 35-11 52H18l5 10h33c-10 39-19 73-30 102-2 4-4 8-4 10zm258-92c30 12 8-54 26-56-2-10-14-10-20-19l-11 9c-38-2-88 7-112-9 11 22 0 60 7 86 8-2 17-5 14-18h96v7zm-96-16v-40h96v40h-96zm125 23l-15 15H143l5 10h20V-4l-40 6 7 9L279-7c2 20-4 49 3 64 4-3 11-4 13-8V-9l39-6c6-12-18-13-24-24-5 6-4 19-15 19v-129c13 0 47 3 31-11-8-4-13-9-17-14zM184-6v-51h95v39zm0-61v-38h95v38h-95zm0-48v-34h95v34h-95" id="M"/><use transform="matrix(0.06172839506172839,0,0,0.06172839506172839,0,0)" xlink:href="#M" id="e"/><path fill="#3a414a" d="M48-245c15 16 22 30 30 44 8 0 11-16 4-22-3-5-13-13-32-25zm85 45c21-2 32-27 50-37-4-6-14-7-20-14-7 22-17 36-30 51zm28 76c23-21-14-36-39-44v-13h69c9 1 9-8 2-10-7-4-13-10-17-15l-15 15h-39c1-20-4-48 6-59-5-5-20-4-25-8 4 12 3 47 3 67H29l5 10h63c-18 38-42 60-74 80l2 4c36-16 60-36 81-66v54l-4-2c-2 10-7 22-14 36H21l5 10h57C75-49 64-30 50-8c11 11 21-5 24-14 16 5 30 10 41 17-22 30-50 45-96 56v3c51-7 83-23 108-51 20 12 22 21 36 28 4-1 7-4 7-10-6-15-18-19-35-29 9-13 18-27 31-57 13-1 52 3 35-11-7-6-16-11-20-17l-16 18h-59c4-9 11-19 19-23-1-5-12-5-17-9 23-1 12-36 14-58 16 11 20 16 31 34 2 4 4 7 8 7zm-14 59c-10 25-18 42-25 51-11-5-27-9-45-13l23-38h47zm109 33c22-41 35-79 43-143 11 0 38 2 24-11-8-3-15-8-20-15l-16 16h-57c6-13 11-29 17-47 3-4 20-8 5-14-7-2-13-6-21-12-11 65-27 112-58 155l3 3c14-15 25-31 35-49 3 44 13 84 28 119-24 37-52 60-99 81l1 3c47-15 82-35 105-70 10 17 27 38 49 62 13-6 20-11 32-3l1-4c-35-21-54-41-72-71zm-7-14c-12-28-28-69-32-114 3-5 6-9 9-15h55c-6 58-16 92-32 129" id="N"/><use transform="matrix(0.06172839506172839,0,0,0.06172839506172839,0,0)" xlink:href="#N" id="f"/><path fill="#3a414a" d="M56 53c10 7 28-13 28-28V-83c15-6 32-13 51-22-14-6-37 8-51 8v-70h49c7 1 10-9 2-10-7-4-13-10-17-15-8 9-14 18-34 15v-60c-1-7 16-11 0-14-6 0-12-2-19-5 4 20 1 55 2 79H18l5 10h44v74l-52 7c5 5 9 22 17 27 4-8 21-14 35-18V25c-2 11-26 4-35 4v4c13 3 21 10 24 20zm257-279c0-9 24-13 7-21-4-3-10-6-15-12l-11 14H162l-23-14c4 13 5 42 5 86-2 125-9 151-56 219l3 1c44-50 62-74 69-158h69v51c-25 0-50 2-63-10 9 34 2 81 4 121 9 8 21-4 17-20h107c1 6-3 19 3 20 4-2 11-3 13-7v-85c0-9 23-12 7-21-5-3-10-6-15-12l-11 14h-45v-51h84c7 1 6-8 2-11-8-3-15-8-20-15l-17 16h-49c-2-19 1-32 7-41l-26-8c4 12 1 33 2 49h-68c1-15 1-33 1-52h135c1 6-3 16 3 17 4-2 11-3 13-7v-63zM187 21v-71h107v71H187zm-25-257h135v54H162v-54" id="O"/><use transform="matrix(0.06172839506172839,0,0,0.06172839506172839,0,0)" xlink:href="#O" id="g"/><path fill="#3a414a" d="M82-193c5 14 21 8 20-8-7-21-30-38-55-49 21 23 24 26 35 57zm17 71c1-9 20-12 6-20-4-2-9-5-14-11-11 15-44 7-68 9l6 10h52V9c0 6-3 11-7 15 6 6 11 13 14 19 23-16 45-37 66-61l-1-2C135-6 117 4 99 11v-133zm129-90c5 14 21 8 18-7-3-16-23-32-41-39 13 18 15 23 23 46zm80 109c2-5 15-11 3-17-4-3-9-7-14-14l-14 11h-71l1-59h111c8 1 12-9 3-11-9-5-16-12-21-18l-16 19H140l6 10h49c0 117-10 172-73 233l3 3c60-48 80-80 86-168h77c1 44-4 107-17 130-7 11-24 5-43 4v4c16 6 26 14 31 26 54-25 39-73 49-153" id="P"/><use transform="matrix(0.06172839506172839,0,0,0.06172839506172839,0,0)" xlink:href="#P" id="h"/><path fill="#3a414a" d="M59-186c-1-9 13-15 0-18-8-1-14-2-18-4 6 82-2 179 3 263 5-3 13-2 15-8v-233zm-14-64c26 18 33 37 47 53 11-1 10-23 1-29-7-8-22-18-46-28zm265 39c1-10 18-12 5-20-4-2-8-5-12-10l-11 11H111l6 9h177V10c3 25-30 12-40 12v4c18 7 25 15 30 27 8 0 28-17 26-28v-236zm-79 93c-1-9 21-13 5-20-5-3-10-7-15-13l-11 11c-34-2-77 6-98-9 11 35 3 86 5 129 2 5 14-1 16-4v-20h81c1 7-3 18 3 20 4-2 12-4 14-7v-87zm-98 65v-77h81v77h-81" id="Q"/><use transform="matrix(0.06172839506172839,0,0,0.06172839506172839,0,0)" xlink:href="#Q" id="i"/><path fill="#3a414a" d="M305-152c1-7 19-14 7-20-5-3-10-7-14-13l-12 11h-59c6-5 7-16-2-22 25-7 49-23 80-29 19-11-11-17-15-29l-13 10H118l6 10h153l-56 35c-8-6-26-15-53-27l-2 2c28 19 39 32 53 50-32-1-72 6-90-10 10 58 1 133 4 198 2 7 15-1 17-4v-66h59c2 22-4 53 3 70 4-3 13-2 13-8v-62h63c-2 14 5 43-5 48-9 0-21-1-36-3v3c16 5 26 12 33 23 9-1 28-14 25-27v-140zM150-65v-47h59v47h-59zm75-47h63v47h-63v-47zm-75-10v-43h59v43h-59zm75-43h63v43h-63v-43zM70-189c6 16 23 10 21-8-7-19-29-34-54-43 19 20 24 23 33 51zm18 93c0-11 21-11 6-20-3-2-8-6-12-11-8 16-37 10-60 11l5 9h44V5C55 17 38 26 18 31c9 8 11 16 18 22 1-1 1-4 1-7C53 34 68 21 80 9c35 51 142 30 228 35 8-12 16-19 24-22v-4C285 26 115 45 88 5V-96" id="R"/><use transform="matrix(0.06172839506172839,0,0,0.06172839506172839,0,0)" xlink:href="#R" id="j"/><path fill="#3a414a" d="M298-210c0-7 18-13 8-19-5-3-10-8-15-14l-12 11H81l-23-13c4 15 5 45 5 93C62-38 58-14 21 50l2 1C54 11 69-12 77-67h89V49c3 5 16-1 17-6V-67h99v80c-1 25-24 9-46 9v4c15 6 25 15 30 28 10-2 36-17 32-33v-231zM78-77c2-18 3-39 3-65h85v65H78zm105-65h99v65h-99v-65zM81-152v-70h85v70H81zm102-70h99v70h-99v-70" id="S"/><use transform="matrix(0.06172839506172839,0,0,0.06172839506172839,0,0)" xlink:href="#S" id="k"/><path fill="#3a414a" d="M120-121c-3-15-20-24-35-34v-27c15-3 42 6 47-6-5-6-18-11-21-18-7 6-10 17-26 14 1-21-4-50 6-62-3-7-20-4-25-8 4 13 3 49 3 70H18l5 10h42C54-125 41-87 18-52l1 3c22-20 38-53 50-87l1 190c5-3 14-2 15-8v-194c13 10 10 32 26 41 6 0 10-5 9-14zm77-96c0-14-1-30 5-37-3-7-20-4-25-8 3 7 3 29 3 45h-56l5 10h51c1 10-2 22 1 30 5-3 14-2 16-8v-22h50c1 9-3 24 2 30 14-1 17-13 15-30h59c10 1 10-9 2-11-9-5-15-11-20-18l-17 19h-24c0-14-1-30 5-37-3-7-20-4-25-8 3 7 3 29 3 45h-50zm101 73c0-8 25-13 8-21-4-3-10-6-15-12l-11 10H161l-20-10c12 31-1 84 7 120 12-1 16-10 14-25h48c-1 13-2 24-3 34H104l6 10h95c-9 52-43 76-94 88l1 4c64-7 97-32 109-90 7 31 56 79 76 89 10-10 26-9 34-15-54-16-76-31-106-76h98c9 0 11-9 2-11-9-5-15-12-20-18l-17 19h-65c1-10 2-21 3-34h56c-3 12 5 12 13 7 8-16 3-47 3-69zM162-92v-29h120v29H162zm0-38v-28h120v28H162" id="T"/><use transform="matrix(0.06172839506172839,0,0,0.06172839506172839,0,0)" xlink:href="#T" id="l"/><path fill="#3a414a" d="M12-35c6 3 13 36 21 22 30-15 65-20 113-43l-3-3c-21 5-39 10-55 13v-103h49c8 1 10-9 2-11-7-4-13-9-17-14-8 9-14 18-34 15 2-31-5-73 7-92l-26-8c5 28 1 68 2 100H17l5 10h49v106zm276-58c3-32-8-83 9-98-2-8-14-9-18-19l-14 14h-48c0-20-2-46 6-55l-29-8c3 3 4 23 5 63h-64l5 10h59c0 33-2 70-5 93h-83l6 10h75c-18 72-40 97-97 134l1 3c60-23 98-65 114-137h118c7 1 11-9 2-11-8-5-15-11-20-17-8 6-9 18-22 18zm-71-93h54v93h-59c3-21 5-60 5-93zm14 136l-2 4c36 27 64 58 83 93 4 8 18 11 18-3-14-45-49-59-99-94" id="U"/><use transform="matrix(0.06172839506172839,0,0,0.06172839506172839,0,0)" xlink:href="#U" id="m"/><use transform="matrix(0.06172839506172839,0,0,0.06172839506172839,0,0)" xlink:href="#P" id="n"/><use transform="matrix(0.06172839506172839,0,0,0.06172839506172839,0,0)" xlink:href="#Q" id="o"/><use transform="matrix(0.06172839506172839,0,0,0.06172839506172839,0,0)" xlink:href="#T" id="p"/><use transform="matrix(0.06172839506172839,0,0,0.06172839506172839,0,0)" xlink:href="#U" id="q"/><path fill="#3a414a" d="M268-251l-18 19H71l6 10h210c11 1 10-9 2-11-9-5-16-11-21-18zm49 216c-5 42 7 69-45 63-38-4-51 5-51-25v-137h102c10 0 10-9 1-12-10-6-17-12-22-19l-18 21H23l6 10h91C123-20 90 15 18 50l1 3c81-27 122-74 118-187h66V3c-5 44 29 42 69 41 47-2 49 3 62-19-14-8-11-38-14-60h-3" id="V"/><use transform="matrix(0.06172839506172839,0,0,0.06172839506172839,0,0)" xlink:href="#V" id="r"/><path fill="#3a414a" d="M153-74c-3-11-16-18-30-23 20-11 37-25 50-40h151c8 1 10-9 2-11-8-5-15-11-20-17l-16 18H184v-30h99c8 1 9-8 2-10-8-4-13-9-17-14l-15 15h-69v-31h117c9 0 9-8 1-10-8-5-15-11-19-17l-17 18h-82c-6-16 16-23 1-29-7-1-15-4-23-7 5 8 4 23 4 36H47l5 9h114v31H66l5 9h95v30H21l5 10h121c-6 13-16 26-29 39-9-3-20-7-33-10l-1 3c32 15 41 30 60 43 5 0 9-4 9-12zm0 25c29-14 52-37 77-58 3 0 5-1 5-4-4-5-16-7-22-12-18 34-39 50-70 75-37 1-61 4-95 0 6 6 7 23 14 29 13-16 71-12 106-18 2 29-3 65 2 91 5-3 14-3 15-10v-84c24-4 52-8 82-13 8 10 16 33 24 37 12 0 14-21 5-31-7-7-24-22-54-43l-3 4c10 11 18 21 25 30-41 4-78 5-111 7zm-47 25C85 13 73 17 33 41l3 3c37-13 65-28 84-44 5 0 20-4 6-10-6-3-13-7-20-14zm121 0l-2 3c28 19 48 35 58 49 7 9 11 13 15 13 13-1 13-20 1-27-8-7-31-19-72-38" id="W"/><use transform="matrix(0.06172839506172839,0,0,0.06172839506172839,0,0)" xlink:href="#W" id="s"/><path fill="#3a414a" d="M77-191c19-20 23-42 41-56-7-6-18-7-26-15-2 25-9 49-19 71-19 2-32-3-43-9 10 71 1 160 4 238 3 5 15-2 17-5V7h75c-4 16 6 30 17 15v-131c18-17 37-45 51-72h112c-3 76-5 133-11 170-4 24-5 39-23 39s-32-1-40-4v4c20 4 31 14 40 26 32-7 35-29 40-68 5-37 6-88 9-154 1-7 22-13 8-19-5-3-9-7-13-14l-13 10H199c9-17 13-44 29-56-6-5-18-8-26-14-8 58-30 103-59 145 1-25-6-60 11-66-3-9-15-10-21-19-8 14-35 9-56 10zM51-2v-90h75v90H51zm0-99v-80h75v80H51zm181 45c15-4 12-25 0-36-8-6-22-24-38-29 16 23 20 27 29 57 2 5 5 8 9 8" id="X"/><use transform="matrix(0.06172839506172839,0,0,0.06172839506172839,0,0)" xlink:href="#X" id="t"/><path fill="#3a414a" d="M141-182c15-5 12-26-2-37-10-9-26-19-47-31 16 25 30 28 40 59 2 5 5 9 9 9zM19 54C96 33 152 0 174-72h5C207 1 237 28 303 51c6-9 16-15 29-18v-4c-81-7-116-43-148-101h132c11 0 10-8 2-12-9-4-16-11-21-17l-18 19H177c4-21 7-49 7-83h111c9 1 11-8 3-10-9-5-16-11-21-18l-16 19h-65c20-14 38-34 54-58 6-4 20-8 5-15-6-3-13-5-19-9-13 37-26 53-49 82H53l6 9h106c0 37-2 65-6 83H32l5 10h119C136-4 88 26 18 50" id="Y"/><use transform="matrix(0.06172839506172839,0,0,0.06172839506172839,0,0)" xlink:href="#Y" id="u"/><path fill="#3a414a" d="M271-258c-56 24-129 31-224 37l1 4c87 0 164-6 232-19 9 5 20-2 8-7-5-2-11-8-17-15zM119-135c25-18 39-46 60-68-7-4-18-5-26-11-4 22-16 48-38 76-10-7-24-15-41-24l-1 3c32 25 43 46 63 65 18-11-1-33-17-41zm167 44c10 10 18 34 27 38 13-2 13-23 2-32-6-9-27-25-61-48l-3 3c13 13 24 24 32 35-43 4-82 8-117 10 30-22 57-52 81-89 5-5 21-9 5-15-6-3-13-6-19-10-20 52-40 74-77 114L40-83c5 5 8 22 13 30 17-16 80-14 120-21V53c4 5 16-2 18-7V-76c28-4 60-9 95-15zM27 43c43-16 73-47 108-76-6-5-16-8-23-16C93-9 61 17 26 41zm206-95l-2 3c28 26 47 49 57 68 7 12 11 19 15 19 14-2 12-26 1-35-7-10-31-29-71-55" id="Z"/><use transform="matrix(0.06172839506172839,0,0,0.06172839506172839,0,0)" xlink:href="#Z" id="v"/><path fill="#3a414a" d="M97-145c36-23 65-60 96-97 9-2 7-8-2-10-6-3-12-6-18-10-23 54-46 78-87 118l-46-1c7 6 5 42 19 26 0-3 50-9 69-11C131-15 106 9 25 51l1 3c84-37 116-53 122-172 1-5 16-11 2-13-2 0-4-2-5-2 18-2 35-5 53-8l1 156c3 37 18 32 63 32 46 0 54 2 72-11-1-3-16-9-14-15l-1-44h-3c-11 34-1 62-54 55-32-4-45 7-45-17v-139c6-10 13-16-6-19 23-4 46-9 69-15 9 9 14 39 29 47 20-9 8-32-8-48-13-13-37-35-66-48 21 19 33 29 42 45-63 9-123 15-180 17" id="aa"/><use transform="matrix(0.06172839506172839,0,0,0.06172839506172839,0,0)" xlink:href="#aa" id="w"/><path fill="#3a414a" d="M85-192c7 15 21 7 19-8-7-23-33-39-61-51 25 22 28 27 42 59zm27 70c0-10 21-12 7-20-4-2-10-5-15-11l-10 9H22l5 10h68v119c0 7-6 13-17 17 6 7 12 13 16 20 22-13 42-29 61-48-11-1-29 14-43 15v-111zm82-81c7-9 6-30 18-35 5-2 6-8-2-9-6-2-14-6-21-11-9 54-25 94-52 129l3 3c21-20 35-42 49-67h36v86h-92l6 10h86V53c4 5 16-2 18-7V-97h83c10 0 10-9 1-12-10-6-17-11-22-18l-18 20h-44v-86h70c8 0 8-9 1-12-9-4-17-10-23-19l-19 21h-78" id="ab"/><use transform="matrix(0.06172839506172839,0,0,0.06172839506172839,0,0)" xlink:href="#ab" id="x"/><path fill="#3a414a" d="M81-156c1-5 9-14-2-14 11-18 23-39 35-64 4-5 19-7 5-13-6-3-13-8-20-15-17 65-45 113-81 158l3 3c15-13 29-28 44-47l2 202c5-2 14-2 14-8v-202zm232 15c1-9 24-13 7-21-4-3-10-6-15-12-12 16-51 7-77 9v-36h95c10 0 10-8 2-12-9-4-15-11-20-17l-17 19h-60c-1-15 0-29 5-37l-26-8c1 3 3 17 4 45H109l5 10h97v36c-31-1-69 5-87-9 10 30-2 78 6 111 7-3 17-3 14-15h65c-3 34-13 50-27 70-18-10-36-25-54-45l-3 3c15 22 32 38 49 51-22 24-42 31-85 50l2 3c37-9 68-24 94-45 32 20 72 29 118 37 8-8 19-14 31-18v-4c-51 0-103-9-139-26 17-21 27-39 31-76h71c-2 12 6 10 13 6 8-16 1-47 3-69zM144-88v-67h67c0 20 2 48-1 67h-66zm84-67h69v67h-70c1-20 1-45 1-67" id="ac"/><use transform="matrix(0.06172839506172839,0,0,0.06172839506172839,0,0)" xlink:href="#ac" id="y"/><use transform="matrix(0.06172839506172839,0,0,0.06172839506172839,0,0)" xlink:href="#Z" id="z"/><path fill="#3a414a" d="M305-218c-1-8 23-13 6-21-5-3-9-6-14-12l-11 14H81l-25-13c8 19 6 38 6 62-1 95-5 174-43 234l2 3C67-4 77-78 79-174h209c1 6-3 17 3 18 4-2 12-3 14-7v-55zm-225-9h208v43H80v-43zm188 76l-17 20H99l5 9h182c10 1 10-9 2-11-9-5-15-11-20-18zm-74 95c-2-4-15-5-19-9h142c11 0 11-9 2-12-10-6-17-12-22-19l-18 21H82l6 10h77c-7 21-33 82-74 87 11 14 10 15 16 24 50-17 121-19 173-39 7 7 9 31 22 34 16-7 8-27-6-41-11-9-33-29-57-38 20 17 28 26 38 40-41 9-95 16-162 20 24-17 48-40 70-72 2-3 9-2 9-6" id="ad"/><use transform="matrix(0.06172839506172839,0,0,0.06172839506172839,0,0)" xlink:href="#ad" id="A"/><use transform="matrix(0.06172839506172839,0,0,0.06172839506172839,0,0)" xlink:href="#G" id="B"/><use transform="matrix(0.06172839506172839,0,0,0.06172839506172839,0,0)" xlink:href="#aa" id="C"/><path fill="#3a414a" d="M75-131c50 2 93 3 93-48 0-46-48-41-93-41v89zm0 115c55 4 111 6 111-51 0-53-58-48-111-48v99zm148-52C223 24 102-3 10 0v-9l31-5v-208l-31-4v-10c77 6 193-24 194 56 0 33-20 48-48 54 36 5 67 20 67 58" id="ae"/><g id="D"><use transform="matrix(0.06172839506172839,0,0,0.06172839506172839,0,0)" xlink:href="#S"/><use transform="matrix(0.06172839506172839,0,0,0.06172839506172839,22.22222222222222,0)" xlink:href="#ae"/></g><use transform="matrix(0.06172839506172839,0,0,0.06172839506172839,0,0)" xlink:href="#G" id="E"/><use transform="matrix(0.06172839506172839,0,0,0.06172839506172839,0,0)" xlink:href="#ae" id="F"/></defs></g></svg>