<svg xmlns="http://www.w3.org/2000/svg" xmlns:xlink="http://www.w3.org/1999/xlink" xmlns:lucid="lucid" width="980" height="433.16"><g transform="translate(-120 -80)" lucid:page-tab-id="0_0"><path d="M0 0h1870.87v1322.84H0z" fill="#fff"/><path d="M152 106a6 6 0 0 1 6-6h148a6 6 0 0 1 6 6v51a6 6 0 0 1-6 6H158a6 6 0 0 1-6-6z" stroke="#3a414a" fill="#fff"/><use xlink:href="#a" transform="matrix(1,0,0,1,157,105) translate(52.77777777777778 31.02777777777778)"/><use xlink:href="#b" transform="matrix(1,0,0,1,157,105) translate(75 31.02777777777778)"/><path d="M260 306a6 6 0 0 1 6-6h148a6 6 0 0 1 6 6v51a6 6 0 0 1-6 6H266a6 6 0 0 1-6-6z" stroke="#3a414a" fill="#fff"/><use xlink:href="#c" transform="matrix(1,0,0,1,265,305) translate(52.77777777777778 31.02777777777778)"/><use xlink:href="#d" transform="matrix(1,0,0,1,265,305) translate(75 31.02777777777778)"/><path d="M568 106a6 6 0 0 1 6-6h148a6 6 0 0 1 6 6v51a6 6 0 0 1-6 6H574a6 6 0 0 1-6-6z" stroke="#3a414a" fill="#fff"/><use xlink:href="#e" transform="matrix(1,0,0,1,573,105) translate(19.444444444444443 31.02777777777778)"/><use xlink:href="#f" transform="matrix(1,0,0,1,573,105) translate(41.666666666666664 31.02777777777778)"/><use xlink:href="#g" transform="matrix(1,0,0,1,573,105) translate(63.888888888888886 31.02777777777778)"/><use xlink:href="#h" transform="matrix(1,0,0,1,573,105) translate(86.1111111111111 31.02777777777778)"/><use xlink:href="#i" transform="matrix(1,0,0,1,573,105) translate(108.33333333333333 31.02777777777778)"/><path d="M360 106a6 6 0 0 1 6-6h148a6 6 0 0 1 6 6v51a6 6 0 0 1-6 6H366a6 6 0 0 1-6-6z" stroke="#3a414a" fill="#fff"/><use xlink:href="#j" transform="matrix(1,0,0,1,365,105) translate(19.444444444444443 31.02777777777778)"/><use xlink:href="#k" transform="matrix(1,0,0,1,365,105) translate(41.666666666666664 31.02777777777778)"/><use xlink:href="#l" transform="matrix(1,0,0,1,365,105) translate(63.888888888888886 31.02777777777778)"/><use xlink:href="#m" transform="matrix(1,0,0,1,365,105) translate(86.1111111111111 31.02777777777778)"/><use xlink:href="#n" transform="matrix(1,0,0,1,365,105) translate(108.33333333333333 31.02777777777778)"/><path d="M776 106a6 6 0 0 1 6-6h148a6 6 0 0 1 6 6v51a6 6 0 0 1-6 6H782a6 6 0 0 1-6-6z" stroke="#3a414a" fill="#fff"/><use xlink:href="#o" transform="matrix(1,0,0,1,781,105) translate(19.444444444444443 31.02777777777778)"/><use xlink:href="#f" transform="matrix(1,0,0,1,781,105) translate(41.666666666666664 31.02777777777778)"/><use xlink:href="#g" transform="matrix(1,0,0,1,781,105) translate(63.888888888888886 31.02777777777778)"/><use xlink:href="#h" transform="matrix(1,0,0,1,781,105) translate(86.1111111111111 31.02777777777778)"/><use xlink:href="#i" transform="matrix(1,0,0,1,781,105) translate(108.33333333333333 31.02777777777778)"/><path d="M490 306a6 6 0 0 1 6-6h148a6 6 0 0 1 6 6v51a6 6 0 0 1-6 6H496a6 6 0 0 1-6-6z" stroke="#3a414a" fill="#fff"/><use xlink:href="#e" transform="matrix(1,0,0,1,495,305) translate(41.66666666666667 31.02777777777778)"/><use xlink:href="#p" transform="matrix(1,0,0,1,495,305) translate(63.88888888888889 31.02777777777778)"/><use xlink:href="#i" transform="matrix(1,0,0,1,495,305) translate(86.11111111111111 31.02777777777778)"/><path d="M720 306a6 6 0 0 1 6-6h148a6 6 0 0 1 6 6v51a6 6 0 0 1-6 6H726a6 6 0 0 1-6-6z" stroke="#3a414a" fill="#fff"/><use xlink:href="#q" transform="matrix(1,0,0,1,725,305) translate(30.555555555555557 31.02777777777778)"/><use xlink:href="#r" transform="matrix(1,0,0,1,725,305) translate(52.77777777777778 31.02777777777778)"/><use xlink:href="#s" transform="matrix(1,0,0,1,725,305) translate(75 31.02777777777778)"/><use xlink:href="#t" transform="matrix(1,0,0,1,725,305) translate(97.22222222222221 31.02777777777778)"/><path d="M1080 471c0 6.62-26.86 12-60 12s-60-5.38-60-12v-96c0-6.63 26.86-12 60-12s60 5.37 60 12z" stroke="#3a414a" fill="#fff"/><path d="M1080 375c0 6.62-26.86 12-60 12s-60-5.38-60-12" stroke="#3a414a" fill="none"/><use xlink:href="#u" transform="matrix(1,0,0,1,965,391.99212598425197) translate(14.413580246913583 47.34027777777778)"/><path d="M140 226a6 6 0 0 1 6-6h784a6 6 0 0 1 6 6v8a6 6 0 0 1-6 6H146a6 6 0 0 1-6-6z" stroke="#3a414a" fill="#edf5ff"/><path d="M800 364v53a6 6 0 0 0 6 6h123.17" stroke="#3a414a" fill="none"/><path d="M800.5 364h-1v-.5h1z" stroke="#3a414a" stroke-width=".05" fill="#3a414a"/><path d="M959 423c0 8.28-6.72 15-15 15-8.28 0-15-6.72-15-15 0-8.3 6.72-15 15-15 8.28 0 15 6.7 15 15z" stroke="#3a414a" fill="#3a414a"/><path d="M798.67 241v58" stroke="#3a414a" fill="none"/><path d="M799.17 241h-1v-.5h1zM799.17 299.5h-1v-.5h1z" stroke="#3a414a" stroke-width=".05" fill="#3a414a"/><path d="M856 164v4.58m0 4.58v9.17m0 4.58v9.18m0 4.58v9.17m0 4.58v4.6" stroke="#3a414a" fill="none"/><path d="M856.5 164h-1v-.5h1zM856.5 219.5h-1v-.5h1z" stroke="#3a414a" stroke-width=".05" fill="#3a414a"/><path d="M648 164v4.58m0 4.58v9.17m0 4.58v9.18m0 4.58v9.17m0 4.58v4.6" stroke="#3a414a" fill="none"/><path d="M648.5 164h-1v-.5h1zM648.5 219.5h-1v-.5h1z" stroke="#3a414a" stroke-width=".05" fill="#3a414a"/><path d="M440 164v4.58m0 4.58v9.17m0 4.58v9.18m0 4.58v9.17m0 4.58v4.6" stroke="#3a414a" fill="none"/><path d="M440.5 164h-1v-.5h1zM440.5 219.5h-1v-.5h1z" stroke="#3a414a" stroke-width=".05" fill="#3a414a"/><path d="M232 164v55" stroke="#3a414a" fill="none"/><path d="M232.5 164h-1v-.5h1zM232.5 219.5h-1v-.5h1z" stroke="#3a414a" stroke-width=".05" fill="#3a414a"/><path d="M298.67 299v-58" stroke="#3a414a" fill="none"/><path d="M299.17 299.5h-1v-.5h1zM299.17 241h-1v-.5h1z" stroke="#3a414a" stroke-width=".05" fill="#3a414a"/><path d="M382.67 299v-4.83m0-4.84v-9.66m0-4.84v-9.66m0-4.84v-9.66m0-4.84V241" stroke="#3a414a" fill="none"/><path d="M383.17 299.5h-1v-.5h1zM383.17 241h-1v-.5h1z" stroke="#3a414a" stroke-width=".05" fill="#3a414a"/><path d="M525.33 299v-4.83m0-4.84v-9.66m0-4.84v-9.66m0-4.84v-9.66m0-4.84V241" stroke="#3a414a" fill="none"/><path d="M525.83 299.5h-1v-.5h1zM525.83 241h-1v-.5h1z" stroke="#3a414a" stroke-width=".05" fill="#3a414a"/><path d="M612 299v-58" stroke="#3a414a" fill="none"/><path d="M612.5 299.5h-1v-.5h1zM612.5 241h-1v-.5h1z" stroke="#3a414a" stroke-width=".05" fill="#3a414a"/><path d="M140.5 400h4.92m4.9 0h9.85m4.9 0h9.85m4.9 0h9.85m4.9 0h4.93M140.5 400h-.5M199.5 400h.5M320.5 400h59M320.5 400h-.5M379.5 400h.5M508.5 400h29.17M508.5 400h-.5" stroke="#3a414a" fill="none"/><path d="M567.5 400c0 8.28-6.72 15-15 15-8.28 0-15-6.72-15-15 0-8.28 6.72-15 15-15 8.28 0 15 6.72 15 15z" stroke="#3a414a" fill="#3a414a"/><path d="M140 446a6 6 0 0 1 6-6h48a6 6 0 0 1 6 6v28a6 6 0 0 1-6 6h-48a6 6 0 0 1-6-6z" stroke="#3a414a" fill="#edf5ff"/><path d="M320 446a6 6 0 0 1 6-6h48a6 6 0 0 1 6 6v28a6 6 0 0 1-6 6h-48a6 6 0 0 1-6-6zM568 476c0 2.2-13.43 4-30 4s-30-1.8-30-4v-32c0-2.2 13.43-4 30-4s30 1.8 30 4z" stroke="#3a414a" fill="#fff"/><path d="M568 444c0 2.2-13.43 4-30 4s-30-1.8-30-4" stroke="#3a414a" fill="none"/><path d="M220 377.5a6 6 0 0 1 6-6h68a6 6 0 0 1 6 6v48a6 6 0 0 1-6 6h-68a6 6 0 0 1-6-6z" stroke="#000" stroke-opacity="0" fill="#fff" fill-opacity="0"/><g><use xlink:href="#v" transform="matrix(1,0,0,1,225,376.496062992126) translate(12.777777777777779 30.27777777777778)"/><use xlink:href="#w" transform="matrix(1,0,0,1,225,376.496062992126) translate(35 30.27777777777778)"/></g><path d="M400 377.5a6 6 0 0 1 6-6h68a6 6 0 0 1 6 6v48a6 6 0 0 1-6 6h-68a6 6 0 0 1-6-6z" stroke="#000" stroke-opacity="0" fill="#fff" fill-opacity="0"/><g><use xlink:href="#x" transform="matrix(1,0,0,1,405,376.496062992126) translate(12.777777777777779 30.27777777777778)"/><use xlink:href="#y" transform="matrix(1,0,0,1,405,376.496062992126) translate(35 30.27777777777778)"/></g><path d="M608 377.5a6 6 0 0 1 6-6h68a6 6 0 0 1 6 6v48a6 6 0 0 1-6 6h-68a6 6 0 0 1-6-6z" stroke="#000" stroke-opacity="0" fill="#fff" fill-opacity="0"/><g><use xlink:href="#z" transform="matrix(1,0,0,1,613,376.496062992126) translate(9.691358024691361 30.27777777777778)"/><use xlink:href="#A" transform="matrix(1,0,0,1,613,376.496062992126) translate(38.08641975308642 30.27777777777778)"/></g><path d="M220 435.83a6 6 0 0 1 6-6h88a6 6 0 0 1 6 6v51.33a6 6 0 0 1-6 6h-88a6 6 0 0 1-6-6z" stroke="#000" stroke-opacity="0" fill="#fff" fill-opacity="0"/><g><use xlink:href="#B" transform="matrix(1,0,0,1,225,434.8293963254593) translate(0.5555555555555571 31.27777777777778)"/><use xlink:href="#C" transform="matrix(1,0,0,1,225,434.8293963254593) translate(22.77777777777778 31.27777777777778)"/><use xlink:href="#D" transform="matrix(1,0,0,1,225,434.8293963254593) translate(45 31.27777777777778)"/><use xlink:href="#E" transform="matrix(1,0,0,1,225,434.8293963254593) translate(67.22222222222221 31.27777777777778)"/></g><path d="M404 436a6 6 0 0 1 6-6h68a6 6 0 0 1 6 6v48a6 6 0 0 1-6 6h-68a6 6 0 0 1-6-6z" stroke="#000" stroke-opacity="0" fill="#fff" fill-opacity="0"/><g><use xlink:href="#F" transform="matrix(1,0,0,1,409,435) translate(12.777777777777779 30.27777777777778)"/><use xlink:href="#G" transform="matrix(1,0,0,1,409,435) translate(35 30.27777777777778)"/></g><path d="M608 436a6 6 0 0 1 6-6h68a6 6 0 0 1 6 6v48a6 6 0 0 1-6 6h-68a6 6 0 0 1-6-6z" stroke="#000" stroke-opacity="0" fill="#fff" fill-opacity="0"/><g><use xlink:href="#H" transform="matrix(1,0,0,1,613,435) translate(1.6666666666666714 30.27777777777778)"/><use xlink:href="#I" transform="matrix(1,0,0,1,613,435) translate(23.888888888888893 30.27777777777778)"/><use xlink:href="#J" transform="matrix(1,0,0,1,613,435) translate(46.111111111111114 30.27777777777778)"/></g><defs><path fill="#3a414a" d="M73 51c10 10 27-11 27-27V-85c15-10 31-22 50-36l-3-2c-17 10-33 19-47 26v-70h53c7 0 9-10 1-11-8-5-14-9-18-15l-15 16h-21c2-23-5-57 7-66-5-6-18-3-26-8 5 17 2 51 3 74H22l5 10h57v78c-20 9-46 19-65 22 6 3 12 36 21 21 3-9 31-20 44-28v98c-4 10-30 3-40 4v4c16 3 25 9 29 19zm225-266c1-5 24-7 9-16-5-3-11-9-15-16l-13 11c-40-3-94 8-120-9 11 90 1 199 4 296 2 7 15-1 17-4v-152h14c10 54 22 81 46 112-12 13-30 27-56 43l1 3c31-13 50-27 64-36 14 14 31 25 49 33 9-8 22-12 36-12v-3c-30-7-54-18-72-33 24-29 34-58 44-102 2-4 16-7 7-12-5-3-9-8-13-15l-14 12H180v-111h103c-5 19 2 61-21 63-4 0-14-1-30-3v3c16 6 25 14 33 23 33-17 23-20 33-75zm-99 110h88c-7 46-16 71-35 98-27-26-42-56-53-98" id="K"/><use transform="matrix(0.06172839506172839,0,0,0.06172839506172839,0,0)" xlink:href="#K" id="a"/><path fill="#3a414a" d="M148-119c33-4 14-48 33-70-2-8-11-8-15-17-22 13-68 3-100 6 3-2 14-6 4-8 7-2 15-4 12-16h44c2 6-4 18 3 18 9 0 14-5 12-18h42c7 1 9-8 2-9-7-4-12-9-16-14-7 7-11 17-28 14-5-12 14-20 1-23-6 0-12-3-18-5 2 10 2 18 2 28H82c-5-12 14-20 1-23-6 0-12-3-18-5 2 10 2 18 2 28H21c3 15 30 7 46 9v14c-4-2-7-4-12-7-10 27-16 36-34 52l1 3c11-3 21-10 28-18 6 15-3 43 5 56 5-4 14-3 12-13h48c-2 10 7 6 12 4 5-4 1-15 2-22 1-6 15-12 3-17-4-2-8-5-12-10-12 12-53 10-68 0 4-4 3-4 7-9h100c-2 25 5 63-26 51 4 10 15 11 15 21zm-81-28v-19h48v19H67zm183 1c12 12 29 18 47 24 9-7 20-11 33-11v-3c-29-5-51-10-67-21 14-13 22-29 31-54 12 0 43 4 29-11-8-3-13-8-18-15l-15 16h-70c5-8 7-21 16-27-4-5-15-5-22-11-2 35-20 59-30 84 9-7 19-18 27-31 7 25 15 39 30 52-18 16-42 25-69 32l1 3c30-3 57-12 77-27zm-35-65h61c-6 21-14 36-25 47-17-13-27-26-36-47zm43 84l-12 12H77l5 10h190c6 1 7-9 1-10-6-4-11-8-15-12zm48 20l-15 17H21l5 9h297c9 1 9-9 1-10-8-5-14-10-18-16zm-38 29l-12 14H66l5 10h212c6 1 7-9 1-10-7-4-12-9-16-14zm-2 28l-12 13H67l6 10h209c7 0 7-9 0-10-7-4-12-8-16-13zm0 104c26-2 5-45 24-49-3-9-15-10-21-20l-11 7H86L67-18c7 20 3 46 4 71 4 4 20 0 17-12h176c1 4-2 12 2 13zM88 32V2h176v30H88" id="L"/><use transform="matrix(0.06172839506172839,0,0,0.06172839506172839,0,0)" xlink:href="#L" id="b"/><path fill="#3a414a" d="M154-163c1-25-5-57 9-66-2-10-14-10-20-19l-11 12c-31 0-67 4-84-11 10 70 4 150-34 188l1 3c29-25 40-42 48-84 9 25-3 69 6 94 10-2 15-8 13-22h57c1 5-2 14 2 15 4-2 12-3 14-7 2-25-6-60 11-67-3-9-14-10-20-20l-11 11c-26-1-56 4-71-8 2-10 3-20 4-30h69c1 6-3 17 3 18 4-2 12-4 14-7zM82-78v-48h57v48H82zM69-226h68v42H68zm181 7c-6-17 16-27 1-32-6-2-12-2-20-5 3 8 2 25 2 37h-61l5 9h139c9 0 9-8 1-10-8-5-13-10-17-16l-16 17h-34zm-36 60c12-1 12-19 2-26-5-3-15-18-24-16 8 15 10 16 14 35 2 5 4 7 8 7zm47 3c13-8 19-25 32-34 7-2 7-8-2-9-6-2-11-5-16-9-6 22-12 33-21 52h-88l6 9h61v36h-54l5 10h49c2 16-4 40 3 51 20-1 13-30 14-51h62c8 1 10-9 2-11-8-5-15-9-19-15l-15 16h-30v-36h73c9 1 9-9 1-10-8-5-14-10-18-16l-15 17h-30zM185-20c-6-18 14-26 2-33-6-1-14-3-21-6 4 8 3 26 3 39H62l5 9h102v47H33l5 10h278c10 0 11-9 3-12-9-5-16-11-21-17l-16 19h-97v-47h98c8 1 10-9 1-10-8-5-14-11-19-17l-16 18h-64" id="M"/><use transform="matrix(0.06172839506172839,0,0,0.06172839506172839,0,0)" xlink:href="#M" id="c"/><path fill="#3a414a" d="M50-184c-2 41-18 51-32 75 12 20 28-2 31-18 2-11 4-31 4-57h-3zm43 35c4-33-5-84 6-105-7-3-18-4-26-8C84-146 81-4 18 51l3 3C62 21 73-3 85-61c17 17 29 36 37 57 2 3 4 4 7 4 6 0 10-8 8-16-6-22-21-26-51-49 4-22 6-48 7-77 22-10 36-32 58-44-6-6-14-10-21-18-10 22-23 40-37 55zm217-105l-15 17H144l6 10h177c8 1 10-9 2-11-8-5-15-10-19-16zm6 92c-1-8 19-13 4-20-4-3-10-7-15-13l-11 14H180l-22-11c10 84 7 191-36 243l2 3c41-35 49-83 54-151h122c1 7-2 19 2 22 4-2 12-3 14-7v-80zm-138 55c2-20 1-43 1-64h121v64H178" id="N"/><use transform="matrix(0.06172839506172839,0,0,0.06172839506172839,0,0)" xlink:href="#N" id="d"/><path fill="#3a414a" d="M47-247c23 16 27 33 41 46 11 0 11-21 3-28-8-6-20-14-41-22zm-22 74c20 16 26 34 38 47 12 0 13-21 4-28-6-7-20-15-40-23zM66 40c23-6-1-42 1-58 9-54 33-103 47-153l-3-2L57-53c-7 16-17 14-34 16v4c29 4 27 25 28 55 0 13 5 17 15 18zm210-258c0-8 21-14 5-21-5-3-10-6-15-12l-10 12c-40-3-94 8-120-9 9 40 1 95 4 141 0 7 10-1 14-1 4-2 1-9 2-14h103c-3 12 6 11 14 7 2-1 3-2 3-3v-100zm-120 87v-47h103v47H156zm0-57v-41h103v41H156zM300-60c-2-11 20-12 5-21-4-2-9-6-13-12l-10 11H138l-21-10c2 40 0 84 1 125H89l6 10h237c9 1 9-8 2-10-7-4-13-10-17-15-6 5-9 12-17 15v-93zM135 33V-72h38V33h-38zm54 0V-72h39V33h-39zm55 0V-72h39V33h-39" id="O"/><use transform="matrix(0.06172839506172839,0,0,0.06172839506172839,0,0)" xlink:href="#O" id="e"/><path fill="#3a414a" d="M200-218c-6-18 14-30 2-36-8 0-15-2-23-5 7 9 3 26 4 41H78l-23-14c4 11 5 34 5 69C59-44 55-19 19 50l3 1c44-63 55-87 56-202h59c2 22-4 51 2 69 8-3 18-4 15-18h74c-3 14 7 8 14 5 6-14 0-38 2-56h75c7 1 6-7 2-10-8-3-15-9-20-16l-17 17h-40c-5-14 13-24 1-27-8-2-14-3-18-5l1 32h-74c-4-14 12-24 0-29-8-1-14-2-18-4l1 33H78v-48h242c7 0 9-8 2-11-8-4-15-9-21-17l-18 18h-83zm-46 109v-42h74v42h-74zM219 0c18-10 41-43 67-57-4-10-14-13-20-25l-16 15H92l5 10h33c18 23 36 45 61 59-44 23-71 30-135 44l3 3c60-10 102-16 143-39 20 14 81 34 106 36 7-9 15-15 26-18v-3c-39-2-78-10-115-25zm-83-57h117c-20 25-31 38-49 51-24-11-46-29-68-51" id="P"/><use transform="matrix(0.06172839506172839,0,0,0.06172839506172839,0,0)" xlink:href="#P" id="f"/><path fill="#3a414a" d="M81-153c3-6 7-14-3-15 12-19 24-40 36-66 4-5 19-7 5-13-6-3-13-8-20-15-17 65-45 113-81 158l3 3c15-13 29-28 44-47l2 202c5-2 14-2 14-8v-199zM243 49c20-11-6-34-20-41 28-21 53-46 74-73 3-5 21-8 9-16-4-3-10-8-15-15l-14 8H160c6-13 11-27 16-41h147c10 0 10-7 2-11-9-4-15-12-20-18l-17 20H179c6-18 11-36 16-55h108c8 1 10-9 2-11-8-5-15-11-19-17l-17 18h-71c5-17 5-40 16-49-4-6-15-5-23-11-3 20-6 40-11 60h-68l6 10h60c-4 19-10 37-16 55H95l5 9h58l-22 57 12 8c4 1 8-12 12-14h122c-19 33-40 60-63 83-18-11-40-21-69-33l-3 4c36 19 64 40 82 64 4 5 8 8 14 9" id="Q"/><use transform="matrix(0.06172839506172839,0,0,0.06172839506172839,0,0)" xlink:href="#Q" id="g"/><path fill="#3a414a" d="M254-113c-15-27-26-58-31-94h98c8 1 8-8 2-11-8-3-15-8-20-15l-16 16h-65c-2-14-4-33 5-38-5-6-18-1-29-7 5 14 8 32 9 45H74l-23-13c4 9 5 27 5 57 0 83-5 101-34 146l3 1c47-41 50-87 49-181h134c7 43 17 79 36 108-15 19-33 37-55 53l2 2c26-14 45-28 60-45 18 24 41 43 69 50 25-1 6-12 6-24 0-14 8-35 4-46-8 16-11 38-20 45-22-2-35-20-48-37 17-16 25-53 47-72-5-6-16-7-23-15-7 26-17 52-32 75zm-71-76l-14 14H88l6 9h103c7 1 8-8 2-10-7-4-12-8-16-13zm-2 127c11-17-7-60 13-65-3-9-14-10-20-18-12 16-62 12-80 1 9 24-4 66 6 90 7-2 15-4 12-16h57c-2 11 4 13 12 8zm-69-17v-47h57v47h-57zm132-180c17 11 23 23 32 33 8 0 12-17 3-22-5-3-16-9-33-14zM76-30C71-3 41 9 30 32c8 15 23 7 33-8 8-12 14-30 17-54h-4zm53 44c0-19-2-43 7-51l-25-8 1 59c5 37 17 33 72 33 52 0 66 4 82-18-9-7-9-26-10-47h-3c-3 18-3 41-15 46-18 0-118 15-109-14zm34-58c25 16 30 32 44 46 11 0 11-20 2-26-6-4-27-21-46-20zm150 82c16-6 11-27-1-39-8-7-23-25-40-32 18 25 22 30 31 62 2 5 6 9 10 9" id="R"/><use transform="matrix(0.06172839506172839,0,0,0.06172839506172839,0,0)" xlink:href="#R" id="h"/><path fill="#3a414a" d="M151-215c1-7 22-11 6-19-4-3-9-7-14-13-15 18-73 15-95 2 8 27 2 65 4 98 7 6 21-1 17-16h66c-2 12 5 12 13 7 8-13 1-40 3-59zm-82 42v-53h66v53H69zm226 18c11-20-8-67 14-72-3-8-15-11-21-20l-12 11c-30-1-68 5-85-9 8 27 2 64 4 97 6 6 21-1 17-15h70c1 4-2 12 2 12zm-83-18v-53h70v53h-70zm-10 68c18 25 35 42 65 54-23 4-64 5-80-8 8 31 2 73 4 110 8 7 19-3 16-18h62c1 5-2 15 3 16 5-2 12-4 14-8v-69c2-7 15-14 23-10 4-9 15-10 21-16-50-3-93-20-122-51h108c9 0 10-10 1-11-8-5-15-11-19-17l-16 18H158c11-10 11-18 26-27 8-10-14-10-19-17-9 17-19 32-28 44H23l6 10h100C99-73 74-57 18-33l1 3c16-6 31-11 44-16 6 27-2 72 4 100 10-2 17-7 14-21h58c1 4-2 13 2 14 4-2 12-3 14-7v-68c1-7 24-13 6-19-4-3-9-7-14-13-9 16-51 13-72 8 37-17 48-24 75-53h52zm5 129v-63h62v63h-62zM81 24v-63h58v63H81" id="S"/><use transform="matrix(0.06172839506172839,0,0,0.06172839506172839,0,0)" xlink:href="#S" id="i"/><path fill="#3a414a" d="M50-184c-2 41-18 51-32 75 12 20 28-2 31-18 2-11 4-31 4-57h-3zm43 29c4-31-5-80 6-99-7-3-18-4-26-8C84-146 81-4 18 51l3 3C61 21 73-1 85-59c16 18 28 39 36 61 2 3 4 4 7 4 5-1 8-10 8-17-6-23-21-29-50-53 4-23 6-51 7-83 20-11 33-32 53-44-7-4-14-9-21-17-8 21-19 39-32 53zm222-64c0-7 18-13 3-19-4-3-10-7-15-13l-12 12H165l-19-9c11 91 1 200 4 298 2 7 14-1 16-4V22h132c-3 18 4 31 17 17v-258zM166 13v-242h132V13H166zm122-48c0-36-20-37-55-73 2-10 3-21 4-32h45c7 1 8-8 2-10-8-3-14-10-18-15-8 7-10 19-28 16 2-16-3-39 6-50l-23-8c2 18 2 39 1 58h-46c3 15 29 7 45 9-4 60-17 94-47 125l2 3c33-26 46-48 56-90 25 28 33 58 48 79 5 0 8-4 8-12" id="T"/><use transform="matrix(0.06172839506172839,0,0,0.06172839506172839,0,0)" xlink:href="#T" id="j"/><path fill="#3a414a" d="M292-173c11 4 18-12 34-12 17-11-13-16-16-27l-10 6H181v-21h114c8 1 10-9 2-11-8-4-13-9-17-14l-15 15H56l6 10h104v21H52c-1-5 3-14-5-12-1 32-14 40-26 59 1 6 5 10 12 10 14-7 17-25 19-47h114c2 22-4 52 3 69 4-2 11-2 12-7v-62h120c-3 10-6 17-9 23zm-227 0v10h88v-10H65zm0 29v10h89v-10H65zm134-29v10h91v-10h-91zm1 29v10h92v-10h-92zm-7 83c32 11 71 19 109 23 6-9 16-14 30-15v-4c-32-1-83-4-116-12 21-7 36-20 55-30 11-10-10-14-14-25l-14 10h-99c3-4 17-6 5-10-4-1-10-3-16-7-27 35-44 46-89 64l1 3c28-6 54-17 75-31 19 12 37 21 58 29-32 10-84 20-156 32 81-6 126-16 171-27zm-67-37c4-3 3-3 7-6h111c-12 13-28 23-46 31-28-7-51-14-72-25zM276-2c0-11 18-13 5-20-4-2-8-6-12-11l-11 9h-79c-3-9 18-14 3-19-5-2-11-3-17-7-1 10-3 18-5 26H59l6 9h91C134 31 87 35 21 50l1 4c69-11 130-19 153-69h84c-2 14 5 42-6 46-23 0-40-2-51-5v3c28 6 36 13 44 24 7 0 32-13 30-22V-2" id="U"/><use transform="matrix(0.06172839506172839,0,0,0.06172839506172839,0,0)" xlink:href="#U" id="k"/><use transform="matrix(0.06172839506172839,0,0,0.06172839506172839,0,0)" xlink:href="#Q" id="l"/><use transform="matrix(0.06172839506172839,0,0,0.06172839506172839,0,0)" xlink:href="#R" id="m"/><use transform="matrix(0.06172839506172839,0,0,0.06172839506172839,0,0)" xlink:href="#S" id="n"/><path fill="#3a414a" d="M50-241c20 13 25 27 36 40 11 0 13-19 4-26-7-5-19-11-38-18zm-24 63c19 13 24 28 36 40 10 0 12-18 4-25-6-5-18-12-37-19zM71-18c9-65 22-92 36-152l-3-1L59-53c-6 17-16 14-32 16v4c27 4 25 21 28 47-2 14 14 24 22 13 9-11-7-32-6-45zm223-199c-1-8 22-12 7-20-5-3-10-7-15-13l-11 11H154l-19-9c11 40-2 102 6 145 6-3 17-2 14-13h122c-4 16 12 12 17 5v-106zm-139 91v-47h122v47H155zm0-56v-47h122v47H155zm36 211c3-39-7-92 7-118l-26-8c5 37 1 85 2 126H92l5 10h227c8 1 12-9 3-11-9-5-16-11-21-18l-16 19h-41c3-39-8-94 7-118l-27-8c7 35 1 85 3 126h-41zM147-4c14-3 11-25-1-37-8-7-22-25-39-30 17 23 22 28 30 59 2 5 6 8 10 8zm121-1c19-12 35-38 57-58 7-10-15-9-22-16-5 20-18 43-38 71" id="V"/><use transform="matrix(0.06172839506172839,0,0,0.06172839506172839,0,0)" xlink:href="#V" id="o"/><path fill="#3a414a" d="M54 51c10 8 27-11 27-27V-89c15-6 32-13 51-22-14-6-37 9-51 9v-72c14-3 41 7 45-6-5-7-19-12-22-19-8 5-9 16-23 15v-53c-1-7 16-11 1-14-6 0-13-2-20-5 5 17 2 49 3 72H17l5 10h43v75l-53 7c5 6 10 21 17 28 3-9 21-13 36-18V24c-3 10-28 3-36 2v5c14 4 22 10 25 20zm184-270c-2-16 2-26 6-35l-26-8c4 9 3 29 3 43h-63c-1-5 4-16-4-15 1 21-21 53-29 68 1 7 3 10 8 11 21-4 23-23 25-55h39c-8 59-29 89-71 109l2 3c53-14 76-49 86-112h28c3 33-10 90 16 96 26-3 62 9 69-15-11 0-11-21-14-33-9 3-4 34-17 33-17-2-38 10-38-15v-66h47c-7 19-20 34-22 44 11-9 24-22 36-37 7 0 26-6 13-15-6-3-12-8-17-15l-12 14h-65zm53 119l-16 18H133l6 10h73V31H102l5 9h224c9 1 10-8 2-10-8-5-16-11-20-17l-16 18h-68V-72h80c8 0 10-9 1-11-8-5-14-11-19-17" id="W"/><use transform="matrix(0.06172839506172839,0,0,0.06172839506172839,0,0)" xlink:href="#W" id="p"/><path fill="#3a414a" d="M19 54C73-8 74-109 73-224h242c7 0 6-8 1-11-9-4-18-10-24-19l-19 21H76l-28-14c8 23 5 49 5 77C53-82 50-7 18 51zm273-159c-1-6 29-14 12-23-5-3-11-8-16-16l-17 13h-77c5-20-3-57 9-70-6-4-20-5-29-10 3 22 4 55 2 80H95l5 9h75C168-31 129 17 67 51l2 4c75-40 112-75 124-177h83c-4 71-3 105-19 140-11 8-22 3-43 0v3c17 4 26 13 33 28 23-9 29-16 35-43 4-17 7-54 10-111" id="X"/><use transform="matrix(0.06172839506172839,0,0,0.06172839506172839,0,0)" xlink:href="#X" id="q"/><path fill="#3a414a" d="M184-189c0-23-2-54 5-65l-28-8c3 3 4 28 5 73-37-2-84 7-106-10 13 34-1 90 7 128 12-1 16-10 14-25h81c-5 30-12 48-25 67-15-11-30-25-45-43l-3 2c13 19 27 36 42 50-31 36-54 47-113 71l1 3c50-12 93-32 123-64 42 32 94 46 159 57 9-9 20-15 33-19v-4c-71-1-141-14-184-44 15-22 27-39 30-76h84c1 5-3 14 2 15 5-2 13-2 14-7v-78c-2-8 23-13 7-20-5-3-10-7-15-13l-11 10h-77zM81-105v-75h85l-3 75H81zm103-75h80v75h-83c3-21 3-50 3-75" id="Y"/><use transform="matrix(0.06172839506172839,0,0,0.06172839506172839,0,0)" xlink:href="#Y" id="r"/><path fill="#3a414a" d="M48-245c15 16 22 30 30 44 8 0 11-16 4-22-3-5-13-13-32-25zm85 45c21-2 32-27 50-37-4-6-14-7-20-14-7 22-17 36-30 51zm28 76c23-21-14-36-39-44v-13h69c9 1 9-8 2-10-7-4-13-10-17-15l-15 15h-39c1-20-4-48 6-59-5-5-20-4-25-8 4 12 3 47 3 67H29l5 10h63c-18 38-42 60-74 80l2 4c36-16 60-36 81-66v54l-4-2c-2 10-7 22-14 36H21l5 10h57C75-49 64-30 50-8c11 11 21-5 24-14 16 5 30 10 41 17-22 30-50 45-96 56v3c51-7 83-23 108-51 20 12 22 21 36 28 4-1 7-4 7-10-6-15-18-19-35-29 9-13 18-27 31-57 13-1 52 3 35-11-7-6-16-11-20-17l-16 18h-59c4-9 11-19 19-23-1-5-12-5-17-9 23-1 12-36 14-58 16 11 20 16 31 34 2 4 4 7 8 7zm-14 59c-10 25-18 42-25 51-11-5-27-9-45-13l23-38h47zm109 33c22-41 35-79 43-143 11 0 38 2 24-11-8-3-15-8-20-15l-16 16h-57c6-13 11-29 17-47 3-4 20-8 5-14-7-2-13-6-21-12-11 65-27 112-58 155l3 3c14-15 25-31 35-49 3 44 13 84 28 119-24 37-52 60-99 81l1 3c47-15 82-35 105-70 10 17 27 38 49 62 13-6 20-11 32-3l1-4c-35-21-54-41-72-71zm-7-14c-12-28-28-69-32-114 3-5 6-9 9-15h55c-6 58-16 92-32 129" id="Z"/><use transform="matrix(0.06172839506172839,0,0,0.06172839506172839,0,0)" xlink:href="#Z" id="s"/><path fill="#3a414a" d="M56 53c10 7 28-13 28-28V-83c15-6 32-13 51-22-14-6-37 8-51 8v-70h49c7 1 10-9 2-10-7-4-13-10-17-15-8 9-14 18-34 15v-60c-1-7 16-11 0-14-6 0-12-2-19-5 4 20 1 55 2 79H18l5 10h44v74l-52 7c5 5 9 22 17 27 4-8 21-14 35-18V25c-2 11-26 4-35 4v4c13 3 21 10 24 20zm257-279c0-9 24-13 7-21-4-3-10-6-15-12l-11 14H162l-23-14c4 13 5 42 5 86-2 125-9 151-56 219l3 1c44-50 62-74 69-158h69v51c-25 0-50 2-63-10 9 34 2 81 4 121 9 8 21-4 17-20h107c1 6-3 19 3 20 4-2 11-3 13-7v-85c0-9 23-12 7-21-5-3-10-6-15-12l-11 14h-45v-51h84c7 1 6-8 2-11-8-3-15-8-20-15l-17 16h-49c-2-19 1-32 7-41l-26-8c4 12 1 33 2 49h-68c1-15 1-33 1-52h135c1 6-3 16 3 17 4-2 11-3 13-7v-63zM187 21v-71h107v71H187zm-25-257h135v54H162v-54" id="aa"/><use transform="matrix(0.06172839506172839,0,0,0.06172839506172839,0,0)" xlink:href="#aa" id="t"/><path fill="#3a414a" d="M75-17c87 13 134-18 134-103 0-78-51-106-134-100v203zm171-102C246 5 139 7 10 0v-9l31-5v-208l-31-4v-10h107c82 0 129 35 129 117" id="ab"/><path fill="#3a414a" d="M32-163c41-10 102-14 102 39v112c8 3 24-2 21 12h-45l-4-17C83 13 3 13 13-46c-2-50 45-50 92-51 4-36-5-70-42-56-6 2-12 4-16 6-4 7 0 23-15 20v-36zM42-47c0 41 41 33 63 22v-59c-34 1-63-1-63 37" id="ac"/><path fill="#3a414a" d="M54-38c-1 25 24 26 44 20v12C71 10 25 9 25-35v-115H4c-2-14 14-10 21-15l18-38h11v38h38v15H54v112" id="ad"/><path fill="#3a414a" d="M53-14c58 12 82-15 82-73 0-52-35-77-82-58v131zM89 4C64 4 42-2 24-9v-229l-24-4v-8h53l-1 94c48-33 114-4 114 69 0 57-23 91-77 91" id="ae"/><path fill="#3a414a" d="M41-130c7 48 86 23 86 84 0 56-69 57-112 41v-40c20 0 9 29 31 31 35 19 77-26 41-50-27-18-72-13-72-59 0-50 58-52 100-41v36c-19 1-8-25-28-25-21-7-50-1-46 23" id="af"/><path fill="#3a414a" d="M84-170c49 0 66 33 63 87H46c-8 60 38 80 95 63v10C128-2 108 4 88 4 34 4 14-29 14-84c-1-54 22-86 70-86zm33 73c12-57-57-82-69-24-1 7-2 15-2 24h71" id="ag"/><g id="u"><use transform="matrix(0.06172839506172839,0,0,0.06172839506172839,0,0)" xlink:href="#ab"/><use transform="matrix(0.06172839506172839,0,0,0.06172839506172839,15.987654320987653,0)" xlink:href="#ac"/><use transform="matrix(0.06172839506172839,0,0,0.06172839506172839,25.80246913580247,0)" xlink:href="#ad"/><use transform="matrix(0.06172839506172839,0,0,0.06172839506172839,31.975308641975307,0)" xlink:href="#ac"/><use transform="matrix(0.06172839506172839,0,0,0.06172839506172839,41.79012345679012,0)" xlink:href="#ae"/><use transform="matrix(0.06172839506172839,0,0,0.06172839506172839,52.90123456790123,0)" xlink:href="#ac"/><use transform="matrix(0.06172839506172839,0,0,0.06172839506172839,62.716049382716044,0)" xlink:href="#af"/><use transform="matrix(0.06172839506172839,0,0,0.06172839506172839,71.35802469135803,0)" xlink:href="#ag"/></g><path fill="#3a414a" d="M52-170c11-16 19-42 32-57-3-7-13-3-21-10-7 29-19 57-36 79 0 1 3 5 9 8 10 4 11-6 17-10h86C115-77 78-29 18 20l3 2c54-35 80-62 109-119 12 43 28 64 52 88-39 30-62 37-131 60l1 3c69-14 109-29 141-53 27 23 60 38 99 49 11-9 25-14 42-14v-4c-56-9-93-22-127-44 20-19 43-46 66-81 2-5 22-5 13-16-4-2-9-9-15-20l-17 14H139c5-13 11-28 16-45h166c10 1 14-8 5-11-7-4-12-9-16-13l-16 14H158c6-20 11-43 16-69 1-6 19-10 4-14-6-2-12-5-19-9-4 33-9 64-17 92H52zm82 65h124c-23 39-41 62-63 84-29-22-46-49-61-84zm138-92c12-3 15-22 0-30-7-4-22-17-37-20 16 17 18 19 27 41 2 5 6 9 10 9" id="ah"/><use transform="matrix(0.06172839506172839,0,0,0.06172839506172839,0,0)" xlink:href="#ah" id="v"/><path fill="#3a414a" d="M206-123c-1-17 0-33 7-42-4-7-23-5-28-9 4 13 3 33 3 51-25-1-56 3-77-2 13-17 22-29 38-61h174c10 0 10-9 1-12-10-6-17-12-22-19l-18 21H153c8-18 9-18 19-40 3-4 19-9 5-14-6-2-14-4-21-9-7 24-14 45-22 63H22l5 10h103C101-127 77-99 18-54l1 2c33-20 60-39 79-59 3 41-1 90 2 131 5-2 15-2 17-7v-127h71l1 171c5-3 14-2 17-8v-163h73v93c-1 23-21 9-40 8v4c16 6 26 13 33 24 9-2 25-16 25-30v-83c0-8 20-15 8-22-5-3-10-7-15-14l-14 11h-70" id="ai"/><use transform="matrix(0.06172839506172839,0,0,0.06172839506172839,0,0)" xlink:href="#ai" id="w"/><path fill="#3a414a" d="M110-174c14-6 11-26-1-39-9-9-21-21-38-34 12 26 23 32 29 65 2 5 6 8 10 8zm5 47c1-9 17-11 6-19-4-2-8-5-12-10-13 16-52 7-79 9l6 10h63V-5c0 7-4 12-10 16 6 7 11 14 15 21 22-16 44-36 64-60l-2-3c-17 13-34 23-51 30v-126zM235 50c11-2 23-18 23-36v-224h66c9 1 11-8 3-11-9-5-16-11-21-18l-16 20H141l6 9h93V11c1 16-27 10-41 10v4c21 4 29 13 36 25" id="aj"/><use transform="matrix(0.06172839506172839,0,0,0.06172839506172839,0,0)" xlink:href="#aj" id="x"/><path fill="#3a414a" d="M96-201c13-4 15-24-1-32-9-5-26-18-44-21 21 16 23 20 35 44 2 5 6 9 10 9zm-40 9c-1-9 13-15 1-18-8-2-15-2-20-4 9 79-1 184 4 268 5-3 14-2 15-8v-238zm260-32c1-10 18-12 5-19-4-2-8-6-12-11l-11 10H110l5 10h185V14c2 26-42 10-51 10v4c27 6 36 15 43 26 8 0 26-16 24-26v-252zm-172 68c5 11 18 8 17-7-5-16-22-24-40-36 8 18 19 20 23 43zm55 16c13-11 22-32 38-45 7-10-14-9-21-16-3 17-12 37-24 61-30-1-68 5-86-9 10 24-1 64 6 90 8-2 17-5 14-18h26c-6 63-31 86-82 105l1 3c59-21 91-38 98-108h19v62c-6 39 37 25 77 28 8-1 14-4 19-13-10-3-13-25-13-42h-3c-4 20 3 46-31 40-23-4-32 4-32-13v-62h24c1 5-3 14 3 14 4-2 11-2 12-5v-53c0-6 19-12 5-18-4-2-9-7-14-12-5 11-19 12-36 11zm-73 54v-44h103v44H126" id="ak"/><use transform="matrix(0.06172839506172839,0,0,0.06172839506172839,0,0)" xlink:href="#ak" id="y"/><path fill="#3a414a" d="M85-182c14-2 13-24 0-32-7-7-18-16-34-25 9 20 19 24 25 48 2 5 5 9 9 9zm3 55c0-9 16-11 6-19-4-2-8-5-13-10l-11 12H19l6 10h46V-4c0 7-4 11-12 15 6 7 11 14 14 20 21-14 39-31 57-51l-1-3c-14 9-27 17-41 22v-126zm141-94c-2-17 3-24 7-33l-26-8c4 9 3 27 3 41h-77l5 10h72v40h-99l6 9h177l-24 36c15 3 25-29 51-28 18-10-11-16-15-28l-12 11h-68v-40h79c9 0 10-10 1-11-8-5-14-11-19-17l-17 18h-44zm-79 76c18 10 22 21 33 29 16-17-9-27-32-32zm-20 37c19 12 25 24 36 34 9 0 11-16 3-22-6-4-18-10-37-15zM84 54c68-17 129-34 141-107h99c8 0 11-7 3-11-9-4-16-12-21-18l-16 19h-64c6-23-3-63 7-79l-26-9c3 2 5 25 5 69 0 7-1 13-2 19H110l5 10h93C190 16 153 26 82 51zm156-85l-2 4c31 19 56 38 71 63 6 10 20 11 21-3-14-32-44-40-90-64" id="al"/><path fill="#3a414a" d="M18 4H0l83-241h17" id="am"/><g id="z"><use transform="matrix(0.06172839506172839,0,0,0.06172839506172839,0,0)" xlink:href="#al"/><use transform="matrix(0.06172839506172839,0,0,0.06172839506172839,22.22222222222222,0)" xlink:href="#am"/></g><path fill="#3a414a" d="M288-188c12-7 12-33 35-34 9-1 10-10 3-14-6-4-12-9-18-16l-14 16H59c-1-6 4-19-6-16 0 34-16 43-30 60 2 6 6 9 13 10 16-4 20-23 22-44h239c-3 17-13 29-9 38zm-177 29c3-13 4-30 15-34-5-6-19-7-27-13-4 52-18 95-33 136 1 4 11 1 16 2 5-7 6-17 10-26h164c0 17-1 33-4 49H18l5 10h227c-10 32-8 61-41 61-8 0-17-1-28-4v3c15 6 22 16 28 26 48-12 51-36 60-86h57c10 0 10-9 1-12-10-6-17-11-22-18-10 9-13 24-35 20 4-15 0-43 12-52-4-8-12-9-18-19l-13 12H95c5-14 9-29 13-45h171c7 0 7-9 1-12-9-4-17-10-23-19l-19 21H111" id="an"/><use transform="matrix(0.06172839506172839,0,0,0.06172839506172839,0,0)" xlink:href="#an" id="A"/><path fill="#3a414a" d="M264-123c28-4 2-55 24-59-2-10-14-10-20-19l-11 12h-76v-29h134c9 0 11-9 2-11-9-5-15-12-20-18l-17 20h-99c-6-17 17-23 2-29-7 0-14-2-22-5 2 7 2 21 2 34H33l5 9h125v29c-35-2-81 7-101-10 10 22-2 61 7 84 7-3 16-3 13-15h81v27H51l5 10h107v34H17l5 10h141v33H43l5 10h115c-2 14 8 35-10 35h-35v4c21 3 30 11 37 22 23 0 30-31 26-61h85c1 5-2 16 3 16 5-2 15 0 15-7v-52c16-2 42 6 50-5-5-9-21-14-25-23-9 6-10 19-25 18v-22c0-9 23-11 8-20-5-4-10-9-15-14l-15 12h-81v-27h80s-1 7 3 7zM82-140v-40h81v40H82zm99-40h80v40h-80v-40zm0 87h85v34h-85v-34zm0 44h85v33h-85v-33" id="ao"/><use transform="matrix(0.06172839506172839,0,0,0.06172839506172839,0,0)" xlink:href="#ao" id="B"/><path fill="#3a414a" d="M81-153c4-8 8-14-5-17 10-19 20-41 30-66 3-3 19-6 5-12-6-3-12-7-19-14-16 70-41 120-74 168l3 2c14-15 28-33 42-55V51c1 9 10 0 15 0 2-1 3-2 3-4v-200zm77-20c9-11 9-32 22-41 6-2 5-6-2-9-6-2-13-5-20-10-10 54-26 93-55 126l3 3c20-18 33-37 47-59h59v86H102l5 10h105l1 122c5-3 14-3 16-9V-67h98c10 0 10-7 2-11-9-4-16-12-21-18l-18 19h-61v-86h86c7 0 6-8 1-11-9-4-16-10-22-18l-18 19h-47c2-26-6-62 7-75-5-7-23-4-29-8 7 15 5 57 5 83h-54" id="ap"/><use transform="matrix(0.06172839506172839,0,0,0.06172839506172839,0,0)" xlink:href="#ap" id="C"/><path fill="#3a414a" d="M141-199c14-3 13-23 0-33-8-5-23-20-41-23 18 19 23 22 32 48 2 5 5 8 9 8zm54 4c26-11 44-35 70-49-6-6-14-10-21-18-12 26-31 49-50 63zm77 33c-1-9 26-15 7-22-5-3-11-7-17-13l-11 12H96l-20-11c11 36-2 93 6 132 9-2 18-5 15-19h157c1 5-2 15 3 15 5-2 12-3 15-7v-87zM97-93v-82h157v82H97zM71-41C66-15 38 0 26 22c8 17 23 7 33-9 8-12 14-30 17-54h-5zm58 51c1-22-4-52 7-62-8-2-18-5-27-10 4 24 0 46 2 72 3 40 16 36 72 36 53 0 68 5 83-20-14-5-11-31-17-49-3 18-3 44-15 49-6 1-23 2-51 2-39 0-50 3-54-18zm71-16c13-4 13-25 1-35-7-6-21-21-36-26 16 21 17 25 26 52 2 5 5 9 9 9zm103 23c5 15 23 11 21-8-5-28-30-46-56-62 22 27 23 34 35 70" id="aq"/><use transform="matrix(0.06172839506172839,0,0,0.06172839506172839,0,0)" xlink:href="#aq" id="D"/><path fill="#3a414a" d="M43-145c23-25 29-66 51-98l-23-12c-7 42-22 87-49 108 5 8 7 16 8 23 18-11 34-11 58-22-15 29-37 70-65 82 6 8 9 16 10 23 30-20 53-24 93-53l-2-4C94-80 68-69 45-63c38-32 57-78 85-126-4-6-16-7-23-14-4 17-9 33-16 49-18 4-33 7-48 9zM34 41C62 12 92 4 136-38l-3-3C87-12 63 3 18 14c5 5 9 21 16 27zm292-61c-8 20-8 29-20 44-13-4-43-32-53-49 14-11 30-27 48-45 13 1 10-4 5-8-4-2-9-6-14-12-16 21-32 38-48 52-10-15-17-33-23-52l99-15c16-11-16-18-19-28l-14 23-69 10c-5-17-6-35-8-57l93-11c7 0 8-8 1-12-7-3-13-8-18-15l-12 20-65 8c1-21-10-68 7-78-4-9-18-4-32-10 9 30 4 60 8 90l-62 7 7 10 55-7c2 23 6 41 10 58l-70 11 7 9 66-10c7 23 16 43 26 60-32 25-80 49-109 58l2 4c38-6 80-25 115-49 24 28 42 61 81 61 16 0 6-14 4-22-2-1 5-26 2-45zm-97-219c24 15 30 31 44 44 9-1 9-19 1-24-6-4-26-21-45-20" id="ar"/><use transform="matrix(0.06172839506172839,0,0,0.06172839506172839,0,0)" xlink:href="#ar" id="E"/><path fill="#3a414a" d="M135-217c0-7 19-14 7-19-5-3-9-8-14-14-15 17-67 13-84-2 3 16 4 49 4 101C47-40 45-16 18 53l3 1C48 9 58-16 63-79h55v89c0 22-21 9-40 10v4c17 5 29 12 36 23 8-3 21-17 21-30v-234zM63-89l2-71h53v71H63zm2-81v-60h53v60H65zm235-42c1-5 22-7 8-16-5-3-10-9-14-16-24 17-77 5-114 8l-19-9c11 91 1 200 4 298 3 5 13-2 16-4v-156h26c8 52 17 79 40 108-14 18-29 30-60 48l1 2c29-11 50-22 67-40 13 14 29 27 46 35 9-7 20-11 33-11v-3c-28-7-52-18-68-34 20-28 29-48 40-96 6-3 21-7 7-13-4-4-8-10-12-18l-14 13H181v-110h103c-5 30 5 76-48 59v2c15 6 24 14 30 25 33-17 24-18 34-72zm-89 105h77c-6 46-14 67-31 95-24-26-37-54-46-95" id="as"/><use transform="matrix(0.06172839506172839,0,0,0.06172839506172839,0,0)" xlink:href="#as" id="F"/><path fill="#3a414a" d="M130-221c6-6 7-18 17-22 6-2 5-5-2-8-6-2-13-6-20-11-18 55-47 92-91 124l3 2c35-20 57-40 81-68 16 29 35 50 54 65-49 26-81 35-153 50l3 3c68-11 117-19 162-46 26 15 61 30 106 43 13-13 23-17 42-14v-4c-54-8-94-16-133-34 18-12 36-31 60-58 1-7 27-8 15-18-5-4-11-11-16-19l-16 15H130zm114 10c-23 32-36 45-59 63-25-12-41-30-63-61 35-6 83 0 122-2zM203 22c17 4 28 16 36 29 44-27 29-29 44-97 4-5 24-10 8-17-5-3-10-7-14-14l-13 13h-90c4-10 1-26 11-29 6-11-14-10-24-18-1 18-3 33-6 47H60l6 10h87C134 8 90 30 18 51l1 4C94 39 152 14 172-54h94c-10 76-4 88-63 72v4" id="at"/><use transform="matrix(0.06172839506172839,0,0,0.06172839506172839,0,0)" xlink:href="#at" id="G"/><use transform="matrix(0.06172839506172839,0,0,0.06172839506172839,0,0)" xlink:href="#Z" id="H"/><use transform="matrix(0.06172839506172839,0,0,0.06172839506172839,0,0)" xlink:href="#aa" id="I"/><path fill="#3a414a" d="M156-256c16 12 22 26 31 37 10 1 14-20 4-25-5-5-16-11-32-17zM22 54C74-1 70-101 70-206h251c8 1 8-8 2-11-9-4-16-9-22-17l-18 19H71l-24-12c10 26 5 59 5 91C52-61 49 2 21 51zM205-75c1-16-3-38 5-46-4-6-20-4-25-8 3 9 3 37 3 54h-68c15-21 28-44 42-69h147c11-12-17-17-22-29l-16 20H168c7-12 11-28 21-35l-20-8c-6 15-13 29-20 43H78l6 9h60c-16 30-31 53-49 76 3 5 15 12 20 3h73v39H70l6 10h112c1 23-2 49 1 70 5-3 14-3 16-8v-62h116c8-2 5-9-2-12-6-4-12-9-19-17l-17 19h-78v-39h85c8-1 6-10-1-13-6-3-13-7-20-15l-18 18h-46" id="au"/><use transform="matrix(0.06172839506172839,0,0,0.06172839506172839,0,0)" xlink:href="#au" id="J"/></defs></g></svg>