<svg xmlns="http://www.w3.org/2000/svg" xmlns:xlink="http://www.w3.org/1999/xlink" xmlns:lucid="lucid" width="880" height="516.33"><g transform="translate(-300 -152.66666666666663)" lucid:page-tab-id="0_0"><path d="M0 0h1870.87v1322.84H0z" fill="#fff"/><path d="M720 178.67a6 6 0 0 1 6-6h148a6 6 0 0 1 6 6v48a6 6 0 0 1-6 6H726a6 6 0 0 1-6-6z" stroke="#3a414a" fill="#fff"/><use xlink:href="#a" transform="matrix(1,0,0,1,725,177.66666666666663) translate(41.66666666666667 30.27777777777778)"/><use xlink:href="#b" transform="matrix(1,0,0,1,725,177.66666666666663) translate(63.88888888888889 30.27777777777778)"/><use xlink:href="#c" transform="matrix(1,0,0,1,725,177.66666666666663) translate(86.11111111111111 30.27777777777778)"/><path d="M720 593.33a6 6 0 0 1 6-6h148a6 6 0 0 1 6 6v48a6 6 0 0 1-6 6H726a6 6 0 0 1-6-6z" stroke="#3a414a" fill="#fff"/><use xlink:href="#d" transform="matrix(1,0,0,1,725,592.3333333333335) translate(41.66666666666667 30.27777777777778)"/><use xlink:href="#e" transform="matrix(1,0,0,1,725,592.3333333333335) translate(63.88888888888889 30.27777777777778)"/><use xlink:href="#f" transform="matrix(1,0,0,1,725,592.3333333333335) translate(86.11111111111111 30.27777777777778)"/><path d="M720 489.67a6 6 0 0 1 6-6h148a6 6 0 0 1 6 6v48a6 6 0 0 1-6 6H726a6 6 0 0 1-6-6z" stroke="#3a414a" fill="#fff"/><use xlink:href="#g" transform="matrix(1,0,0,1,725,488.6666666666667) translate(19.444444444444443 30.27777777777778)"/><use xlink:href="#b" transform="matrix(1,0,0,1,725,488.6666666666667) translate(41.666666666666664 30.27777777777778)"/><use xlink:href="#h" transform="matrix(1,0,0,1,725,488.6666666666667) translate(63.888888888888886 30.27777777777778)"/><use xlink:href="#i" transform="matrix(1,0,0,1,725,488.6666666666667) translate(86.1111111111111 30.27777777777778)"/><use xlink:href="#f" transform="matrix(1,0,0,1,725,488.6666666666667) translate(108.33333333333333 30.27777777777778)"/><path d="M720 386a6 6 0 0 1 6-6h148a6 6 0 0 1 6 6v48a6 6 0 0 1-6 6H726a6 6 0 0 1-6-6z" stroke="#3a414a" fill="#fff"/><use xlink:href="#j" transform="matrix(1,0,0,1,725,385) translate(19.444444444444443 30.27777777777778)"/><use xlink:href="#k" transform="matrix(1,0,0,1,725,385) translate(41.666666666666664 30.27777777777778)"/><use xlink:href="#l" transform="matrix(1,0,0,1,725,385) translate(63.888888888888886 30.27777777777778)"/><use xlink:href="#m" transform="matrix(1,0,0,1,725,385) translate(86.1111111111111 30.27777777777778)"/><use xlink:href="#f" transform="matrix(1,0,0,1,725,385) translate(108.33333333333333 30.27777777777778)"/><path d="M720 282.33a6 6 0 0 1 6-6h148a6 6 0 0 1 6 6v48a6 6 0 0 1-6 6H726a6 6 0 0 1-6-6z" stroke="#3a414a" fill="#fff"/><use xlink:href="#n" transform="matrix(1,0,0,1,725,281.3333333333333) translate(46.04938271604938 30.27777777777778)"/><use xlink:href="#f" transform="matrix(1,0,0,1,725,281.3333333333333) translate(81.72839506172839 30.27777777777778)"/><path d="M800 233.67v25.78" stroke="#3a414a" fill="none"/><path d="M800.5 233.68h-1v-.5h1z" stroke="#3a414a" stroke-width=".05" fill="#3a414a"/><path d="M800 274.2l-4.63-14.25h9.26z" stroke="#3a414a" fill="#3a414a"/><path d="M800 337.33v25.8" stroke="#3a414a" fill="none"/><path d="M800.5 337.35h-1v-.52h1z" stroke="#3a414a" stroke-width=".05" fill="#3a414a"/><path d="M800 377.88l-4.63-14.26h9.26z" stroke="#3a414a" fill="#3a414a"/><path d="M800 441v25.78" stroke="#3a414a" fill="none"/><path d="M800.5 441h-1v-.5h1z" stroke="#3a414a" stroke-width=".05" fill="#3a414a"/><path d="M800 481.55l-4.63-14.27h9.26z" stroke="#3a414a" fill="#3a414a"/><path d="M800 544.67v11.83" stroke="#3a414a" fill="none"/><path d="M800.5 544.68h-1v-.5h1z" stroke="#3a414a" stroke-width=".05" fill="#3a414a"/><path d="M815 571.33c0 8.3-6.72 15-15 15-8.28 0-15-6.7-15-15 0-8.28 6.72-15 15-15 8.28 0 15 6.72 15 15z" stroke="#3a414a" fill="#3a414a"/><path d="M719 410h-33.5a6 6 0 0 0-6 6v195.33a6 6 0 0 0 6 6h17.62" stroke="#3a414a" fill="none"/><path d="M719.5 410.5h-.5v-1h.5z" stroke="#3a414a" stroke-width=".05" fill="#3a414a"/><path d="M717.88 617.33l-14.26 4.64v-9.27z" stroke="#3a414a" fill="#3a414a"/><path d="M920 178.67a6 6 0 0 1 6-6h228a6 6 0 0 1 6 6v48a6 6 0 0 1-6 6H926a6 6 0 0 1-6-6z" stroke="#000" stroke-opacity="0" fill="#fff" fill-opacity="0"/><use xlink:href="#o" transform="matrix(1,0,0,1,925,177.66666666666663) translate(0 30.27777777777778)"/><use xlink:href="#p" transform="matrix(1,0,0,1,925,177.66666666666663) translate(22.22222222222222 30.27777777777778)"/><use xlink:href="#q" transform="matrix(1,0,0,1,925,177.66666666666663) translate(44.44444444444444 30.27777777777778)"/><use xlink:href="#r" transform="matrix(1,0,0,1,925,177.66666666666663) translate(66.66666666666666 30.27777777777778)"/><use xlink:href="#s" transform="matrix(1,0,0,1,925,177.66666666666663) translate(88.88888888888889 30.27777777777778)"/><use xlink:href="#h" transform="matrix(1,0,0,1,925,177.66666666666663) translate(111.11111111111111 30.27777777777778)"/><use xlink:href="#i" transform="matrix(1,0,0,1,925,177.66666666666663) translate(133.33333333333334 30.27777777777778)"/><use xlink:href="#t" transform="matrix(1,0,0,1,925,177.66666666666663) translate(155.55555555555557 30.27777777777778)"/><path d="M920 254a6 6 0 0 1 6-6h228a6 6 0 0 1 6 6v104.67a6 6 0 0 1-6 6H926a6 6 0 0 1-6-6z" stroke="#000" stroke-opacity="0" fill="#fff" fill-opacity="0"/><use xlink:href="#u" transform="matrix(1,0,0,1,925,253) translate(0 21.12152777777778)"/><use xlink:href="#v" transform="matrix(1,0,0,1,925,253) translate(22.22222222222222 21.12152777777778)"/><use xlink:href="#w" transform="matrix(1,0,0,1,925,253) translate(44.44444444444444 21.12152777777778)"/><use xlink:href="#x" transform="matrix(1,0,0,1,925,253) translate(66.66666666666666 21.12152777777778)"/><use xlink:href="#y" transform="matrix(1,0,0,1,925,253) translate(88.88888888888889 21.12152777777778)"/><use xlink:href="#z" transform="matrix(1,0,0,1,925,253) translate(111.11111111111111 21.12152777777778)"/><use xlink:href="#A" transform="matrix(1,0,0,1,925,253) translate(133.33333333333334 21.12152777777778)"/><use xlink:href="#B" transform="matrix(1,0,0,1,925,253) translate(155.55555555555557 21.12152777777778)"/><use xlink:href="#C" transform="matrix(1,0,0,1,925,253) translate(177.7777777777778 21.12152777777778)"/><use xlink:href="#D" transform="matrix(1,0,0,1,925,253) translate(200.00000000000003 21.12152777777778)"/><use xlink:href="#h" transform="matrix(1,0,0,1,925,253) translate(0 47.78819444444444)"/><use xlink:href="#E" transform="matrix(1,0,0,1,925,253) translate(22.22222222222222 47.78819444444444)"/><use xlink:href="#F" transform="matrix(1,0,0,1,925,253) translate(101.23456790123456 47.78819444444444)"/><use xlink:href="#G" transform="matrix(1,0,0,1,925,253) translate(123.45679012345678 47.78819444444444)"/><use xlink:href="#h" transform="matrix(1,0,0,1,925,253) translate(145.679012345679 47.78819444444444)"/><use xlink:href="#i" transform="matrix(1,0,0,1,925,253) translate(167.90123456790124 47.78819444444444)"/><use xlink:href="#H" transform="matrix(1,0,0,1,925,253) translate(190.12345679012347 47.78819444444444)"/><use xlink:href="#I" transform="matrix(1,0,0,1,925,253) translate(0 74.45486111111111)"/><use xlink:href="#J" transform="matrix(1,0,0,1,925,253) translate(22.22222222222222 74.45486111111111)"/><use xlink:href="#k" transform="matrix(1,0,0,1,925,253) translate(44.44444444444444 74.45486111111111)"/><use xlink:href="#h" transform="matrix(1,0,0,1,925,253) translate(66.66666666666666 74.45486111111111)"/><use xlink:href="#i" transform="matrix(1,0,0,1,925,253) translate(88.88888888888889 74.45486111111111)"/><use xlink:href="#F" transform="matrix(1,0,0,1,925,253) translate(111.11111111111111 74.45486111111111)"/><use xlink:href="#h" transform="matrix(1,0,0,1,925,253) translate(133.33333333333334 74.45486111111111)"/><use xlink:href="#i" transform="matrix(1,0,0,1,925,253) translate(155.55555555555557 74.45486111111111)"/><use xlink:href="#G" transform="matrix(1,0,0,1,925,253) translate(177.7777777777778 74.45486111111111)"/><use xlink:href="#K" transform="matrix(1,0,0,1,925,253) translate(200.00000000000003 74.45486111111111)"/><use xlink:href="#L" transform="matrix(1,0,0,1,925,253) translate(0 101.12152777777777)"/><use xlink:href="#M" transform="matrix(1,0,0,1,925,253) translate(22.22222222222222 101.12152777777777)"/><use xlink:href="#N" transform="matrix(1,0,0,1,925,253) translate(44.44444444444444 101.12152777777777)"/><path d="M920 486a6 6 0 0 1 6-6h228a6 6 0 0 1 6 6v51.33a6 6 0 0 1-6 6H926a6 6 0 0 1-6-6z" stroke="#000" stroke-opacity="0" fill="#fff" fill-opacity="0"/><g><use xlink:href="#g" transform="matrix(1,0,0,1,925,485) translate(0 21.15277777777778)"/><use xlink:href="#b" transform="matrix(1,0,0,1,925,485) translate(22.22222222222222 21.15277777777778)"/><use xlink:href="#h" transform="matrix(1,0,0,1,925,485) translate(44.44444444444444 21.15277777777778)"/><use xlink:href="#i" transform="matrix(1,0,0,1,925,485) translate(66.66666666666666 21.15277777777778)"/><use xlink:href="#O" transform="matrix(1,0,0,1,925,485) translate(88.88888888888889 21.15277777777778)"/><use xlink:href="#P" transform="matrix(1,0,0,1,925,485) translate(111.11111111111111 21.15277777777778)"/><use xlink:href="#Q" transform="matrix(1,0,0,1,925,485) translate(133.33333333333334 21.15277777777778)"/><use xlink:href="#R" transform="matrix(1,0,0,1,925,485) translate(155.55555555555557 21.15277777777778)"/><use xlink:href="#S" transform="matrix(1,0,0,1,925,485) translate(177.7777777777778 21.15277777777778)"/><use xlink:href="#D" transform="matrix(1,0,0,1,925,485) translate(200.00000000000003 21.15277777777778)"/><use xlink:href="#J" transform="matrix(1,0,0,1,925,485) translate(0 47.81944444444444)"/><use xlink:href="#k" transform="matrix(1,0,0,1,925,485) translate(22.22222222222222 47.81944444444444)"/><use xlink:href="#T" transform="matrix(1,0,0,1,925,485) translate(44.44444444444444 47.81944444444444)"/><use xlink:href="#U" transform="matrix(1,0,0,1,925,485) translate(66.66666666666666 47.81944444444444)"/></g><path d="M920 591.67a6 6 0 0 1 6-6h228a6 6 0 0 1 6 6V643a6 6 0 0 1-6 6H926a6 6 0 0 1-6-6z" stroke="#000" stroke-opacity="0" fill="#fff" fill-opacity="0"/><g><use xlink:href="#V" transform="matrix(1,0,0,1,925,590.6666666666669) translate(0 21.15277777777778)"/><use xlink:href="#W" transform="matrix(1,0,0,1,925,590.6666666666669) translate(22.22222222222222 21.15277777777778)"/><use xlink:href="#X" transform="matrix(1,0,0,1,925,590.6666666666669) translate(44.44444444444444 21.15277777777778)"/><use xlink:href="#Y" transform="matrix(1,0,0,1,925,590.6666666666669) translate(66.66666666666666 21.15277777777778)"/><use xlink:href="#Z" transform="matrix(1,0,0,1,925,590.6666666666669) translate(88.88888888888889 21.15277777777778)"/><use xlink:href="#q" transform="matrix(1,0,0,1,925,590.6666666666669) translate(111.11111111111111 21.15277777777778)"/><use xlink:href="#aa" transform="matrix(1,0,0,1,925,590.6666666666669) translate(133.33333333333334 21.15277777777778)"/><use xlink:href="#ab" transform="matrix(1,0,0,1,925,590.6666666666669) translate(155.55555555555557 21.15277777777778)"/><use xlink:href="#ac" transform="matrix(1,0,0,1,925,590.6666666666669) translate(0 47.81944444444444)"/></g><path d="M320 426a6 6 0 0 1 6-6h288a6 6 0 0 1 6 6v208a6 6 0 0 1-6 6H326a6 6 0 0 1-6-6z" stroke="#3a414a" fill="#fff"/><path d="M365.67 460h9.97m9.97 0h19.95m9.98 0h9.97M365.7 460h-1.03" stroke="#3a414a" stroke-width="2" fill="none"/><path d="M440.76 460l-14.26 4.63v-9.26z" stroke="#3a414a" stroke-width="2" fill="#3a414a"/><path d="M400 438a6 6 0 0 1 6-6h228a6 6 0 0 1 6 6v48a6 6 0 0 1-6 6H406a6 6 0 0 1-6-6z" stroke="#000" stroke-opacity="0" fill="#fff" fill-opacity="0"/><g><use xlink:href="#ad" transform="matrix(1,0,0,1,405,437) translate(57.129629629629626 30.27777777777778)"/></g><path d="M365 500h59.83M365.03 500H364" stroke="#3a414a" stroke-width="2" fill="none"/><path d="M440.1 500l-14.27 4.63v-9.26z" stroke="#3a414a" stroke-width="2" fill="#3a414a"/><path d="M440 475a6 6 0 0 1 6-6h108a6 6 0 0 1 6 6v48a6 6 0 0 1-6 6H446a6 6 0 0 1-6-6z" stroke="#000" stroke-opacity="0" fill="#fff" fill-opacity="0"/><g><use xlink:href="#ae" transform="matrix(1,0,0,1,445,474) translate(28.45679012345679 30.27777777777778)"/></g><path d="M363 536h47.67M363.03 536H362" stroke="#3a414a" stroke-width="2" fill="none"/><path d="M440.33 536c0 8.28-6.7 15-15 15-8.28 0-15-6.72-15-15 0-8.28 6.72-15 15-15 8.3 0 15 6.72 15 15z" stroke="#3a414a" stroke-width="2" fill="#3a414a"/><path d="M438 509.33a6 6 0 0 1 6-6h148a6 6 0 0 1 6 6v51.34a6 6 0 0 1-6 6H444a6 6 0 0 1-6-6z" stroke="#000" stroke-opacity="0" fill="#fff" fill-opacity="0"/><g><use xlink:href="#V" transform="matrix(1,0,0,1,443,508.3333333333333) translate(19.444444444444443 31.27777777777778)"/><use xlink:href="#W" transform="matrix(1,0,0,1,443,508.3333333333333) translate(41.666666666666664 31.27777777777778)"/><use xlink:href="#X" transform="matrix(1,0,0,1,443,508.3333333333333) translate(63.888888888888886 31.27777777777778)"/><use xlink:href="#af" transform="matrix(1,0,0,1,443,508.3333333333333) translate(86.1111111111111 31.27777777777778)"/><use xlink:href="#ag" transform="matrix(1,0,0,1,443,508.3333333333333) translate(108.33333333333333 31.27777777777778)"/></g><path d="M360 572.67a6 6 0 0 1 6-6h68a6 6 0 0 1 6 6V594a6 6 0 0 1-6 6h-68a6 6 0 0 1-6-6z" stroke="#3a414a" fill="#fff"/><path d="M420 557.67a6 6 0 0 1 6-6h148a6 6 0 0 1 6 6V609a6 6 0 0 1-6 6H426a6 6 0 0 1-6-6z" stroke="#000" stroke-opacity="0" fill="#fff" fill-opacity="0"/><g><use xlink:href="#ah" transform="matrix(1,0,0,1,425,556.6666666666665) translate(63.888888888888886 31.27777777777778)"/></g><defs><path fill="#3a414a" d="M156-255c19 17 24 34 35 48 11 0 12-21 4-29-6-7-18-15-36-23zM22 50C69-8 70-72 70-189h251c7 0 9-8 2-11-9-4-16-10-22-18l-18 19H70l-23-13c4 11 5 33 5 68C52-37 49-14 19 49zm104-70c5 14 21 8 20-8-4-36-24-60-47-91l-2 1c18 41 20 48 29 98zm77-6c20-9 8-37-1-60-7-19-21-41-39-67 14 47 24 60 31 119 2 5 5 8 9 8zm72-133c-13 69-32 119-59 169l2 3c32-38 53-85 72-144 4-5 19-7 5-13-6-3-13-8-20-15zM305 2l-18 19H67l6 10h251c10 0 10-8 2-12-9-4-16-11-21-17" id="ai"/><use transform="matrix(0.06172839506172839,0,0,0.06172839506172839,0,0)" xlink:href="#ai" id="a"/><path fill="#3a414a" d="M298-210c0-7 18-13 8-19-5-3-10-8-15-14l-12 11H81l-23-13c4 15 5 45 5 93C62-38 58-14 21 50l2 1C54 11 69-12 77-67h89V49c3 5 16-1 17-6V-67h99v80c-1 25-24 9-46 9v4c15 6 25 15 30 28 10-2 36-17 32-33v-231zM78-77c2-18 3-39 3-65h85v65H78zm105-65h99v65h-99v-65zM81-152v-70h85v70H81zm102-70h99v70h-99v-70" id="aj"/><use transform="matrix(0.06172839506172839,0,0,0.06172839506172839,0,0)" xlink:href="#aj" id="b"/><path fill="#3a414a" d="M305-218c-1-8 23-13 6-21-5-3-9-6-14-12l-11 14H81l-25-13c8 19 6 38 6 62-1 95-5 174-43 234l2 3C67-4 77-78 79-174h209c1 6-3 17 3 18 4-2 12-3 14-7v-55zm-225-9h208v43H80v-43zm188 76l-17 20H99l5 9h182c10 1 10-9 2-11-9-5-15-11-20-18zm-74 95c-2-4-15-5-19-9h142c11 0 11-9 2-12-10-6-17-12-22-19l-18 21H82l6 10h77c-7 21-33 82-74 87 11 14 10 15 16 24 50-17 121-19 173-39 7 7 9 31 22 34 16-7 8-27-6-41-11-9-33-29-57-38 20 17 28 26 38 40-41 9-95 16-162 20 24-17 48-40 70-72 2-3 9-2 9-6" id="ak"/><use transform="matrix(0.06172839506172839,0,0,0.06172839506172839,0,0)" xlink:href="#ak" id="c"/><path fill="#3a414a" d="M48-245c15 16 22 30 30 44 8 0 11-16 4-22-3-5-13-13-32-25zm85 45c21-2 32-27 50-37-4-6-14-7-20-14-7 22-17 36-30 51zm28 76c23-21-14-36-39-44v-13h69c9 1 9-8 2-10-7-4-13-10-17-15l-15 15h-39c1-20-4-48 6-59-5-5-20-4-25-8 4 12 3 47 3 67H29l5 10h63c-18 38-42 60-74 80l2 4c36-16 60-36 81-66v54l-4-2c-2 10-7 22-14 36H21l5 10h57C75-49 64-30 50-8c11 11 21-5 24-14 16 5 30 10 41 17-22 30-50 45-96 56v3c51-7 83-23 108-51 20 12 22 21 36 28 4-1 7-4 7-10-6-15-18-19-35-29 9-13 18-27 31-57 13-1 52 3 35-11-7-6-16-11-20-17l-16 18h-59c4-9 11-19 19-23-1-5-12-5-17-9 23-1 12-36 14-58 16 11 20 16 31 34 2 4 4 7 8 7zm-14 59c-10 25-18 42-25 51-11-5-27-9-45-13l23-38h47zm109 33c22-41 35-79 43-143 11 0 38 2 24-11-8-3-15-8-20-15l-16 16h-57c6-13 11-29 17-47 3-4 20-8 5-14-7-2-13-6-21-12-11 65-27 112-58 155l3 3c14-15 25-31 35-49 3 44 13 84 28 119-24 37-52 60-99 81l1 3c47-15 82-35 105-70 10 17 27 38 49 62 13-6 20-11 32-3l1-4c-35-21-54-41-72-71zm-7-14c-12-28-28-69-32-114 3-5 6-9 9-15h55c-6 58-16 92-32 129" id="al"/><use transform="matrix(0.06172839506172839,0,0,0.06172839506172839,0,0)" xlink:href="#al" id="d"/><path fill="#3a414a" d="M56 53c10 7 28-13 28-28V-83c15-6 32-13 51-22-14-6-37 8-51 8v-70h49c7 1 10-9 2-10-7-4-13-10-17-15-8 9-14 18-34 15v-60c-1-7 16-11 0-14-6 0-12-2-19-5 4 20 1 55 2 79H18l5 10h44v74l-52 7c5 5 9 22 17 27 4-8 21-14 35-18V25c-2 11-26 4-35 4v4c13 3 21 10 24 20zm257-279c0-9 24-13 7-21-4-3-10-6-15-12l-11 14H162l-23-14c4 13 5 42 5 86-2 125-9 151-56 219l3 1c44-50 62-74 69-158h69v51c-25 0-50 2-63-10 9 34 2 81 4 121 9 8 21-4 17-20h107c1 6-3 19 3 20 4-2 11-3 13-7v-85c0-9 23-12 7-21-5-3-10-6-15-12l-11 14h-45v-51h84c7 1 6-8 2-11-8-3-15-8-20-15l-17 16h-49c-2-19 1-32 7-41l-26-8c4 12 1 33 2 49h-68c1-15 1-33 1-52h135c1 6-3 16 3 17 4-2 11-3 13-7v-63zM187 21v-71h107v71H187zm-25-257h135v54H162v-54" id="am"/><use transform="matrix(0.06172839506172839,0,0,0.06172839506172839,0,0)" xlink:href="#am" id="e"/><use transform="matrix(0.06172839506172839,0,0,0.06172839506172839,0,0)" xlink:href="#ak" id="f"/><path fill="#3a414a" d="M305-152c1-7 19-14 7-20-5-3-10-7-14-13l-12 11h-59c6-5 7-16-2-22 25-7 49-23 80-29 19-11-11-17-15-29l-13 10H118l6 10h153l-56 35c-8-6-26-15-53-27l-2 2c28 19 39 32 53 50-32-1-72 6-90-10 10 58 1 133 4 198 2 7 15-1 17-4v-66h59c2 22-4 53 3 70 4-3 13-2 13-8v-62h63c-2 14 5 43-5 48-9 0-21-1-36-3v3c16 5 26 12 33 23 9-1 28-14 25-27v-140zM150-65v-47h59v47h-59zm75-47h63v47h-63v-47zm-75-10v-43h59v43h-59zm75-43h63v43h-63v-43zM70-189c6 16 23 10 21-8-7-19-29-34-54-43 19 20 24 23 33 51zm18 93c0-11 21-11 6-20-3-2-8-6-12-11-8 16-37 10-60 11l5 9h44V5C55 17 38 26 18 31c9 8 11 16 18 22 1-1 1-4 1-7C53 34 68 21 80 9c35 51 142 30 228 35 8-12 16-19 24-22v-4C285 26 115 45 88 5V-96" id="an"/><use transform="matrix(0.06172839506172839,0,0,0.06172839506172839,0,0)" xlink:href="#an" id="g"/><path fill="#3a414a" d="M135-217c0-7 19-14 7-19-5-3-9-8-14-14-15 17-67 13-84-2 3 16 4 49 4 101C47-40 45-16 18 53l3 1C48 9 58-16 63-79h55v89c0 22-21 9-40 10v4c17 5 29 12 36 23 8-3 21-17 21-30v-234zM63-89l2-71h53v71H63zm2-81v-60h53v60H65zm235-42c1-5 22-7 8-16-5-3-10-9-14-16-24 17-77 5-114 8l-19-9c11 91 1 200 4 298 3 5 13-2 16-4v-156h26c8 52 17 79 40 108-14 18-29 30-60 48l1 2c29-11 50-22 67-40 13 14 29 27 46 35 9-7 20-11 33-11v-3c-28-7-52-18-68-34 20-28 29-48 40-96 6-3 21-7 7-13-4-4-8-10-12-18l-14 13H181v-110h103c-5 30 5 76-48 59v2c15 6 24 14 30 25 33-17 24-18 34-72zm-89 105h77c-6 46-14 67-31 95-24-26-37-54-46-95" id="ao"/><use transform="matrix(0.06172839506172839,0,0,0.06172839506172839,0,0)" xlink:href="#ao" id="h"/><path fill="#3a414a" d="M130-221c6-6 7-18 17-22 6-2 5-5-2-8-6-2-13-6-20-11-18 55-47 92-91 124l3 2c35-20 57-40 81-68 16 29 35 50 54 65-49 26-81 35-153 50l3 3c68-11 117-19 162-46 26 15 61 30 106 43 13-13 23-17 42-14v-4c-54-8-94-16-133-34 18-12 36-31 60-58 1-7 27-8 15-18-5-4-11-11-16-19l-16 15H130zm114 10c-23 32-36 45-59 63-25-12-41-30-63-61 35-6 83 0 122-2zM203 22c17 4 28 16 36 29 44-27 29-29 44-97 4-5 24-10 8-17-5-3-10-7-14-14l-13 13h-90c4-10 1-26 11-29 6-11-14-10-24-18-1 18-3 33-6 47H60l6 10h87C134 8 90 30 18 51l1 4C94 39 152 14 172-54h94c-10 76-4 88-63 72v4" id="ap"/><use transform="matrix(0.06172839506172839,0,0,0.06172839506172839,0,0)" xlink:href="#ap" id="i"/><path fill="#3a414a" d="M147-259c23 14 30 28 42 41 11 0 11-18 2-25-7-5-21-12-43-19zm137 25l-19 22H52l6 9h248c9-1 7-9-1-12-6-4-13-10-21-19zm-147 92c11-2 12-21 1-29-6-4-17-17-29-20 12 17 13 18 19 40 2 5 5 9 9 9zM21 54c46-41 59-87 56-173h247c8 1 8-9 2-12-10-5-18-10-24-18l-19 20h-67c14-11 27-24 38-42 5-4 21-8 5-14-6-3-11-6-17-10-9 29-17 43-34 66H78l-23-12C65-73 58 16 18 53" id="aq"/><use transform="matrix(0.06172839506172839,0,0,0.06172839506172839,0,0)" xlink:href="#aq" id="j"/><path fill="#3a414a" d="M258-211c0-8 19-14 4-21-4-3-10-6-15-12l-11 12H104l-19-9c9 37 2 87 4 130 9 7 21-3 17-19h136c1 5-2 14 2 15 5-2 13-2 14-7v-89zm-152 71v-82h136v82H106zm44 77c-1-9 21-14 5-20-5-3-10-7-15-13l-11 11c-34-2-77 6-97-9 11 41-2 104 6 148 10-2 17-7 14-22h81c1 5-3 15 3 15 5-2 13-2 14-7V-63zM52 22v-97h81v97H52zm257-85c-1-8 19-13 4-20-5-2-10-7-15-13l-11 11c-34-2-78 6-99-9 9 41 2 97 4 145 9 7 21-3 17-19h83c1 6-3 16 3 17 5-2 13-3 14-8V-63zM209 22v-97h83v97h-83" id="ar"/><use transform="matrix(0.06172839506172839,0,0,0.06172839506172839,0,0)" xlink:href="#ar" id="k"/><use transform="matrix(0.06172839506172839,0,0,0.06172839506172839,0,0)" xlink:href="#ao" id="l"/><use transform="matrix(0.06172839506172839,0,0,0.06172839506172839,0,0)" xlink:href="#ap" id="m"/><path fill="#3a414a" d="M81-9v9H4v-9l26-5 81-224h33l83 224 30 5v9h-99v-9l31-5-23-68H73L49-14zm38-203L78-98h82" id="as"/><path fill="#3a414a" d="M75-108c48 3 76-12 76-58s-28-57-76-54v112zm111-58c-1 60-46 78-111 74v78l37 5v9H13v-9l28-5v-208l-31-4v-10c81 1 178-14 176 70" id="at"/><path fill="#3a414a" d="M77-14l30 5v9H13v-9l30-5v-208l-30-4v-10h94v10l-30 4v208" id="au"/><g id="n"><use transform="matrix(0.06172839506172839,0,0,0.06172839506172839,0,0)" xlink:href="#as"/><use transform="matrix(0.06172839506172839,0,0,0.06172839506172839,15.987654320987653,0)" xlink:href="#at"/><use transform="matrix(0.06172839506172839,0,0,0.06172839506172839,28.333333333333332,0)" xlink:href="#au"/></g><path fill="#3a414a" d="M268-250l-17 20H135l5 9h146c10 0 10-7 2-11-9-4-15-11-20-18zm-45 120c-2-5-15-6-20-11h109c9 0 11-9 2-11-9-5-15-12-20-18l-17 19H114l6 10h74c-13 50-22 68-47 107-10 1-20 1-29 1 6 4 13 40 23 24 37-13 79-17 136-35 6 9 6 40 21 42 17-7 11-30-2-45-9-10-24-32-45-41 12 16 20 26 24 40L155-35c22-22 41-51 57-87 1-5 12-2 11-8zM92-199c8-2 15-18 5-25-5-4-24-20-49-26 17 14 29 29 37 47 2 3 4 4 7 4zm-19 62c8-2 13-18 5-26-4-4-24-22-48-28 16 15 27 31 36 50 1 3 4 4 7 4zm16 60c-1-4 15-9 4-14-5-2-10-8-15-13-7 16-37 10-60 11l5 10h48V6C56 16 38 22 19 26c8 7 9 16 17 21 1-1 1-3 1-6 16-11 31-20 43-31 35 49 138 29 222 34 10-14 20-22 29-26v-4C287 24 120 39 89 6v-83" id="av"/><use transform="matrix(0.06172839506172839,0,0,0.06172839506172839,0,0)" xlink:href="#av" id="o"/><path fill="#3a414a" d="M21-168c41-16 72-42 104-71-5-6-14-8-21-15-19 39-50 62-85 84zm70 38c10-11 29-35 45-48-5-6-14-8-21-15-23 50-59 84-101 115 20-5 43-25 62-39l2 172c5-2 14-2 14-8v-163c1-5 8-12-1-14zm193-117l-16 20H148l6 9h148c10 0 11-9 2-11-9-5-15-12-20-18zM236 54c11-3 25-16 25-34v-154h63c8 1 12-9 3-11-9-5-16-11-21-18l-16 19H133l6 10h105V18c-2 17-34 7-49 6v4c24 4 34 13 41 26" id="aw"/><use transform="matrix(0.06172839506172839,0,0,0.06172839506172839,0,0)" xlink:href="#aw" id="p"/><path fill="#3a414a" d="M165 54c10-2 24-16 24-32v-131h134c10 0 10-9 1-12-10-6-17-12-22-19l-18 21h-95v-95h102c12 0 11-7 2-11s-16-12-21-18l-18 19H58l5 10h107v95H21l5 10h144V18c0 5-1 8-4 8-16 0-29-1-40-4v4c20 5 32 14 39 28" id="ax"/><use transform="matrix(0.06172839506172839,0,0,0.06172839506172839,0,0)" xlink:href="#ax" id="q"/><path fill="#3a414a" d="M183-218c-2-16 4-22 6-32l-28-9c5 9 4 26 4 41H55c-1-5 4-16-4-15 6 25-41 57-14 70 15-4 15-21 17-45h237c-7 16-13 28-19 37l3 3c15-8 19-29 43-32 9-1 10-11 3-14-6-4-13-9-19-16l-14 12H183zm-43 44c0-9 24-12 10-19-5-2-11-4-17-8-24 52-40 68-85 98l2 3c29-12 56-31 75-55 15 22 29 39 43 51-42 31-73 41-149 71l3 3c28-8 52-16 74-24 9 30-3 78 6 108 9-3 18-5 15-19h121c1 5-2 16 2 18 5-2 13-3 16-7v-72c-1-9 24-14 7-22-5-3-11-8-17-14l-11 13H116l-14-7c25-9 57-29 79-38 29 20 77 39 120 45 6-9 15-15 29-18v-4c-56-2-102-17-137-34 18-12 41-40 66-55-4-10-16-14-20-24-18 18-66 7-99 10zM117 25v-64h121v64H117zm112-190c-17 23-31 39-49 52-19-12-36-27-52-46 1-2 4-4 5-6h96" id="ay"/><use transform="matrix(0.06172839506172839,0,0,0.06172839506172839,0,0)" xlink:href="#ay" id="r"/><path fill="#3a414a" d="M137-254c25 20 33 37 48 53 11 0 14-20 4-26-5-6-21-15-49-29zm160 86c-1-14 28-15 8-24-4-3-9-8-14-14l-14 13H82l-26-15c4 11 6 33 6 67C61-32 56-8 18 53l3 1C61 6 76-15 80-97h225c5 0 7-2 7-6-20-7-13-39-15-65zM81-184h196v77H81v-77" id="az"/><use transform="matrix(0.06172839506172839,0,0,0.06172839506172839,0,0)" xlink:href="#az" id="s"/><path fill="#3a414a" d="M151-215c1-7 22-11 6-19-4-3-9-7-14-13-15 18-73 15-95 2 8 27 2 65 4 98 7 6 21-1 17-16h66c-2 12 5 12 13 7 8-13 1-40 3-59zm-82 42v-53h66v53H69zm226 18c11-20-8-67 14-72-3-8-15-11-21-20l-12 11c-30-1-68 5-85-9 8 27 2 64 4 97 6 6 21-1 17-15h70c1 4-2 12 2 12zm-83-18v-53h70v53h-70zm-10 68c18 25 35 42 65 54-23 4-64 5-80-8 8 31 2 73 4 110 8 7 19-3 16-18h62c1 5-2 15 3 16 5-2 12-4 14-8v-69c2-7 15-14 23-10 4-9 15-10 21-16-50-3-93-20-122-51h108c9 0 10-10 1-11-8-5-15-11-19-17l-16 18H158c11-10 11-18 26-27 8-10-14-10-19-17-9 17-19 32-28 44H23l6 10h100C99-73 74-57 18-33l1 3c16-6 31-11 44-16 6 27-2 72 4 100 10-2 17-7 14-21h58c1 4-2 13 2 14 4-2 12-3 14-7v-68c1-7 24-13 6-19-4-3-9-7-14-13-9 16-51 13-72 8 37-17 48-24 75-53h52zm5 129v-63h62v63h-62zM81 24v-63h58v63H81" id="aA"/><use transform="matrix(0.06172839506172839,0,0,0.06172839506172839,0,0)" xlink:href="#aA" id="t"/><path fill="#3a414a" d="M120-239c-28 70-47 93-101 135l2 4c50-22 85-63 112-112 3-7 24-10 7-16-6-2-12-6-20-11zm216 121c-65-21-96-58-118-123h-5c16 70 44 109 90 138 8-8 19-12 32-12zM185 24c13 4 20 14 25 26 29-9 32-12 40-38 5-19 8-58 12-117 4-4 18-10 7-17-5-3-11-8-15-14l-15 14H77l5 10h59C131-27 98 21 33 51l1 3c76-27 117-74 127-166h85c-8 79-1 119-32 134-4 0-12 0-27-2" id="aB"/><use transform="matrix(0.06172839506172839,0,0,0.06172839506172839,0,0)" xlink:href="#aB" id="u"/><path fill="#3a414a" d="M165-158c-1-9 21-13 5-20-5-3-10-7-15-13-6 10-18 13-35 11v-52h52c9 1 9-8 2-10-7-4-14-9-18-14l-15 15H21l5 9h43v52c-19 2-32-2-43-9 10 72 1 161 4 240 9 7 21-3 17-19h101c1 6-3 17 3 18 4-2 12-3 14-7v-201zM47 22v-45h101v45H47zm57-192c5 32-14 90 18 93h26v44H47v-17c32-30 36-61 37-120h20zm44 80c-11-2-28 7-28-10v-70h28v80zm-44-90H84v-52h20v52zM47-60v-110h22c-1 51-3 80-22 110zm268-151c0-7 17-12 5-19-5-4-10-8-14-13l-14 11H188l6 10h104v96c-38-2-88 7-110-11 9 42 1 90 4 137 3 44 1 43 47 43 33 0 79 10 92-14-13-5-7-37-12-53-7 24-3 58-41 52-32-5-69 16-69-28v-116h89c1 6-3 17 3 18 4-3 12-2 14-7v-106" id="aC"/><use transform="matrix(0.06172839506172839,0,0,0.06172839506172839,0,0)" xlink:href="#aC" id="v"/><path fill="#3a414a" d="M194-121c15-4 10-27-1-39-8-10-21-22-39-35 4 15 18 26 21 38-46 8-84 13-114 13 23-23 43-50 59-80h79c11 1 10-8 2-10-9-5-15-11-20-18l-16 19H25l5 9h67c-9 26-23 53-43 80-7 0-15 0-25-1 7 4 8 40 21 26 2-5 10-7 28-10 25-3 57-12 98-24 4 7 6 31 18 32zM30 14c6 3 13 39 23 24 42-17 89-24 156-50l-3-3c-31 7-58 13-81 17v-65h70c9 1 11-8 3-11-9-5-16-11-21-18l-16 20h-36c-1-20 0-38 7-47-5-5-18-4-26-8 5 13 2 37 3 55H37l6 9h66V5zm217-215c-3-11 16-16 1-20-6 0-13-2-20-5 10 64-3 149 5 214 5-3 14-2 14-8v-181zm62-36c0-7 15-14 1-14-6 0-13-2-20-5 5 86 0 184 2 274-4 13-32 6-43 2v4c18 4 25 14 31 27 13-1 29-15 29-33v-255" id="aD"/><use transform="matrix(0.06172839506172839,0,0,0.06172839506172839,0,0)" xlink:href="#aD" id="w"/><path fill="#3a414a" d="M128-180c0-25-3-55 7-67-6-4-20-4-29-9 8 18 3 51 4 76H34l6 10h70v91H18l5 9h303c10 0 10-7 2-11-9-4-17-11-22-17l-18 19h-45v-91h65c10 0 10-7 2-11-9-4-15-12-20-18l-17 19h-30c1-24-3-54 7-65-6-5-20-5-29-10 8 17 3 51 4 75h-97zm0 101v-91h97v91h-97zm-10 27C96 3 84 11 40 49l3 2c38-23 67-49 87-78 3-1 23-5 7-11-6-2-12-7-19-14zm106 6l-3 4c25 24 45 52 58 83 5 10 20 13 21-2-12-38-37-55-76-85" id="aE"/><use transform="matrix(0.06172839506172839,0,0,0.06172839506172839,0,0)" xlink:href="#aE" id="x"/><path fill="#3a414a" d="M184-222c-6-18 15-28 1-34-8 0-15-2-23-5 7 9 3 25 4 39H19l6 10h296c11 0 12-8 3-12s-16-11-21-17l-16 19H184zm84 55c0-8 22-13 7-21-5-3-11-6-16-12l-10 9H97l-19-9c10 22-2 62 7 85 7-3 17-3 14-15h152c-3 11 6 9 14 6 8-8 1-29 3-43zM99-140v-41h152v41H99zm56 191c32 10 29-44 28-82h138c11 0 12-9 2-11-9-5-16-11-21-18l-18 19H183c-2-9 4-10 6-15 24-7 48-23 78-29 17-9-11-16-14-26l-13 8H53l6 10h181c-25 10-43 43-77 28 2 6 3 13 3 24H18l5 10h143v52c-3 13-34 5-46 4v4c19 4 30 11 35 22" id="aF"/><use transform="matrix(0.06172839506172839,0,0,0.06172839506172839,0,0)" xlink:href="#aF" id="y"/><path fill="#3a414a" d="M103-170c15-4 10-27-2-40-9-8-27-26-46-34 23 26 27 31 39 66 2 5 5 8 9 8zm14 41c0-7 15-11 4-16-4-2-7-5-11-10-15 16-56 5-83 8l6 10h69V5c0 7-5 12-14 16 7 7 11 13 15 20 22-16 43-36 63-61l-1-3C149-9 133 1 117 9v-138zm125-18c2-33-7-80 7-100-5-5-18-3-26-8 5 33 1 72 2 108h-82l5 10h77V53c5 2 15-1 17-7v-183h81c10 1 10-9 2-11-9-5-15-11-20-18l-17 19h-46" id="aG"/><use transform="matrix(0.06172839506172839,0,0,0.06172839506172839,0,0)" xlink:href="#aG" id="z"/><path fill="#3a414a" d="M93-221c7-6 6-15 16-18 9-10-16-11-21-19-13 42-35 72-69 95l3 3c27-17 45-28 63-51h23c11 9 11 35 24 38 22-10-4-31-16-38h63c7 0 6-9 1-11-8-3-14-8-19-15l-17 16H93zm131-3c0-10 27-17 12-23-6-2-12-6-19-11-9 36-27 60-52 81l3 3c21-13 34-24 49-40h22c11 9 11 33 23 36 22-10-1-29-14-36h78c8 0 5-8 1-11-8-3-14-8-19-15l-17 16h-67zm51 82c-1-8 23-13 6-21-5-3-10-6-15-12l-10 8H99l-19-10c11 39-2 100 6 142 7-3 17-3 14-15h36c-1 13-3 23-5 32H22l5 10h101c-13 35-45 49-88 58l1 4c57-4 90-20 106-62h67c2 20-4 48 3 62 5-2 14-2 14-8V-8h90c12 0 11-7 2-11s-16-12-21-18l-18 19h-53v-32h27c-4 16 11 11 17 5v-97zM214-18h-65c2-9 3-19 4-32h61v32zM100-60v-26h158v26H100zm0-36v-27h158v27H100zm0-37v-25h158v25H100" id="aH"/><use transform="matrix(0.06172839506172839,0,0,0.06172839506172839,0,0)" xlink:href="#aH" id="A"/><path fill="#3a414a" d="M295-252l-19 22H37l6 9h123v136H19l6 10h141V54c3 6 17-1 18-7V-75h140c8-1 8-11-1-13-6-4-13-10-21-19l-19 22h-99v-136h133c9-1 8-9-1-12-6-4-13-10-21-19zM118-111c18-6 10-29-3-43-10-10-28-31-49-41 24 29 29 37 43 76 2 5 5 8 9 8zm150-90c-7 26-24 56-50 93l5 3c20-18 41-44 63-76 6-2 15-7 3-11-7-2-14-4-21-9" id="aI"/><use transform="matrix(0.06172839506172839,0,0,0.06172839506172839,0,0)" xlink:href="#aI" id="B"/><path fill="#3a414a" d="M308-109c17-11 8-33-8-50-12-13-35-36-64-48 27 26 37 34 50 62-76 3-139 5-191 5 25-26 51-59 77-100 8-2 14-8 2-12-7-2-14-5-21-10-9 34-33 75-68 122-19 0-27 1-49-2 7 5 10 46 23 28 63-13 136-11 230-26 5 9 7 29 19 31zm-32 52c0-7 26-14 6-21-4-3-10-8-16-14l-13 13H96L76-90c11 40-2 101 6 144 5-2 13-3 15-7V25h161c1 6-3 18 3 19l15-6v-95zM97 15v-85h161v85H97" id="aJ"/><use transform="matrix(0.06172839506172839,0,0,0.06172839506172839,0,0)" xlink:href="#aJ" id="C"/><path fill="#3a414a" d="M77-191c19-20 23-42 41-56-7-6-18-7-26-15-2 25-9 49-19 71-19 2-32-3-43-9 10 71 1 160 4 238 3 5 15-2 17-5V7h75c-4 16 6 30 17 15v-131c18-17 37-45 51-72h112c-3 76-5 133-11 170-4 24-5 39-23 39s-32-1-40-4v4c20 4 31 14 40 26 32-7 35-29 40-68 5-37 6-88 9-154 1-7 22-13 8-19-5-3-9-7-13-14l-13 10H199c9-17 13-44 29-56-6-5-18-8-26-14-8 58-30 103-59 145 1-25-6-60 11-66-3-9-15-10-21-19-8 14-35 9-56 10zM51-2v-90h75v90H51zm0-99v-80h75v80H51zm181 45c15-4 12-25 0-36-8-6-22-24-38-29 16 23 20 27 29 57 2 5 5 8 9 8" id="aK"/><use transform="matrix(0.06172839506172839,0,0,0.06172839506172839,0,0)" xlink:href="#aK" id="D"/><path fill="#3a414a" d="M63 37C37 37 20 21 20-4s18-40 43-40c26 0 44 15 44 40S89 37 63 37zm0-68C48-31 34-19 34-4s14 27 29 27S91 12 91-4 77-31 63-31" id="aL"/><g id="E"><use transform="matrix(0.06172839506172839,0,0,0.06172839506172839,0,0)" xlink:href="#ap"/><use transform="matrix(0.06172839506172839,0,0,0.06172839506172839,22.22222222222222,0)" xlink:href="#aL"/><use transform="matrix(0.06172839506172839,0,0,0.06172839506172839,43.33333333333333,0)" xlink:href="#as"/><use transform="matrix(0.06172839506172839,0,0,0.06172839506172839,59.32098765432098,0)" xlink:href="#at"/><use transform="matrix(0.06172839506172839,0,0,0.06172839506172839,71.66666666666666,0)" xlink:href="#au"/></g><use transform="matrix(0.06172839506172839,0,0,0.06172839506172839,0,0)" xlink:href="#ak" id="F"/><use transform="matrix(0.06172839506172839,0,0,0.06172839506172839,0,0)" xlink:href="#aK" id="G"/><path fill="#3a414a" d="M138-224c6-6 7-13 16-17 6-2 5-6-2-9-6-2-13-6-20-11-20 51-52 84-98 112 18 2 36-18 50-25 5 53 0 114 2 170 0 9 14-1 18-2v-152h152c2 47-4 100 2 143 5-2 13-2 15-6v-121c-2-10 27-14 9-23-5-3-11-7-17-13l-11 11h-68c19-12 30-31 54-38 8 1 9-9 3-11-6-4-12-10-18-20l-15 12h-72zm-52 48c16-13 30-21 44-38h82l-32 47c-32-2-75 7-94-9zm106 87c0-16 3-22 7-29-8-3-22-4-31-9 4 1 5 14 5 38C173 13 112 20 23 50l2 4c89-21 167-36 167-143zm3 71c50 22 81 48 111 69 16-4 6-21-4-29-14-11-49-26-105-42" id="aM"/><use transform="matrix(0.06172839506172839,0,0,0.06172839506172839,0,0)" xlink:href="#aM" id="H"/><path fill="#3a414a" d="M185-225c-6-17 16-24 1-30-7-1-15-4-23-7 5 8 5 23 5 37H48l5 10h115v27H74l6 10h88v31H26l6 10h291c10 1 9-9 1-11-8-5-14-11-19-17l-17 18H185v-31h95c8 1 10-9 2-11-8-5-14-9-18-15l-15 16h-64v-27h118c8 1 10-9 2-11-8-5-14-9-18-15l-15 16h-87zm81 139c0-10 24-15 6-23-5-3-10-7-16-13l-12 10H103l-21-11c9 37 2 88 4 132 1 9 10 0 15 0 2-1 3-2 3-3v-109h145c2 34-3 75 2 106 5-2 14-2 15-7v-82zm-78 36c-6-17 18-23-1-26-8-1-16-4-24-7 4 1 6 12 6 33 0 81-65 78-146 100l2 4c78-16 156-19 163-104zm3 49l-3 3c35 8 67 24 96 47 12 1 17-12 8-19-24-19-55-26-101-31" id="aN"/><use transform="matrix(0.06172839506172839,0,0,0.06172839506172839,0,0)" xlink:href="#aN" id="I"/><use transform="matrix(0.06172839506172839,0,0,0.06172839506172839,0,0)" xlink:href="#aq" id="J"/><path fill="#3a414a" d="M130-174c24-13-5-32-19-41h65c15-11-16-17-20-28l-17 18H87c0-11 26-18 11-25-6-2-11-6-18-11-12 42-31 73-61 98l3 3c25-17 41-33 59-55h22c14 10 15 34 27 41zm90-51c0-12 28-18 11-25-5-2-11-6-18-11-13 44-20 60-45 93 18-5 32-29 46-47h25c14 10 16 35 29 41 23-12-7-33-21-41h79c7 0 6-9 1-11-8-4-15-9-21-17l-18 18h-68zM96-138c5 13 21 8 18-7-3-17-25-29-44-36 16 17 17 19 26 43zm-31 9c-2-9 14-16 0-19-10-2-16-2-22-4C53-96 43-9 48 54c6-3 15-3 17-10v-173zm243-13c0-10 17-14 4-22-4-2-8-5-12-11l-13 13H121l5 10h164V14c3 23-30 12-39 11v4c22 6 27 16 35 25 7 0 24-17 22-26v-170zm-68 54c0-8 21-13 5-20-4-3-9-7-14-13l-11 13c-38-3-90 8-113-10 9 43 2 100 4 149 10 7 21-6 17-22h96c1 4-3 13 3 13 4-2 12-2 13-7V-88zM128-1v-44h96v44h-96zm0-53v-44h96v44h-96" id="aO"/><use transform="matrix(0.06172839506172839,0,0,0.06172839506172839,0,0)" xlink:href="#aO" id="K"/><path fill="#3a414a" d="M135-201c8-3 13-18 5-27-5-4-25-20-49-27 17 14 28 30 37 49 1 3 4 5 7 5zm63 2c27-11 46-31 71-45-6-6-15-10-22-19-13 24-33 48-52 60zm89 31c-1-9 21-14 5-21-4-3-10-6-15-12l-11 10H80l-20-9c13 39-1 103 7 147 10-2 17-7 14-21h85v40H18l5 10h143v78c3 6 17-1 18-7v-71h140c10 0 10-8 2-12-9-4-16-11-21-17l-18 19H184v-40h87c1 4-2 12 2 12 4-2 13-2 14-6v-100zM81-83v-44h85v44H81zm103-44h87v44h-87v-44zM81-137v-44h85v44H81zm103-44h87v44h-87v-44" id="aP"/><use transform="matrix(0.06172839506172839,0,0,0.06172839506172839,0,0)" xlink:href="#aP" id="L"/><path fill="#3a414a" d="M81-153c3-6 7-14-3-15 12-19 24-40 36-66 4-5 19-7 5-13-6-3-13-8-20-15-17 65-45 113-81 158l3 3c15-13 29-28 44-47l2 202c5-2 14-2 14-8v-199zM243 49c20-11-6-34-20-41 28-21 53-46 74-73 3-5 21-8 9-16-4-3-10-8-15-15l-14 8H160c6-13 11-27 16-41h147c10 0 10-7 2-11-9-4-15-12-20-18l-17 20H179c6-18 11-36 16-55h108c8 1 10-9 2-11-8-5-15-11-19-17l-17 18h-71c5-17 5-40 16-49-4-6-15-5-23-11-3 20-6 40-11 60h-68l6 10h60c-4 19-10 37-16 55H95l5 9h58l-22 57 12 8c4 1 8-12 12-14h122c-19 33-40 60-63 83-18-11-40-21-69-33l-3 4c36 19 64 40 82 64 4 5 8 8 14 9" id="aQ"/><use transform="matrix(0.06172839506172839,0,0,0.06172839506172839,0,0)" xlink:href="#aQ" id="M"/><path fill="#3a414a" d="M81-195c10-2 14-17 5-26-4-5-23-22-46-30 16 15 27 32 34 52 2 3 4 4 7 4zM53 10c43 53 164 31 259 36 9-12 18-21 26-24v-4C289 26 95 45 61 4c26-25 36-46 50-87 5-4 20-6 9-14-4-4-9-10-14-17-6 9-17 13-34 11 12-18 19-43 36-55 11-8-8-12-12-19l-10 11H21l5 10h60L44-85c7 6 22 1 22-8h29C85-47 79-32 59 1c-2 0-3-2-5 0-12 16-26 28-42 35 9 3 13 25 17 13 9-13 17-26 24-39zm139-227c11-1 11-19 0-26-7-4-19-17-33-19 14 14 18 18 25 38 2 4 4 7 8 7zm44 2c19-9 22-26 40-31 8-10-15-11-20-22-6 26-9 31-23 50zm77 66c-16-8-12-51 0-57-2-7-11-10-16-18l-13 12H130l6 9h73v50h-42l-17-13c0 22-7 45-18 69 0 4 1 5 4 5h56c-26 49-41 63-89 90l3 2c54-25 74-37 103-85V20c3 4 15-1 16-6V-92h73c-7 52 2 68-55 53l-1 4c15 3 26 12 35 26 36-13 28-23 38-77 1-6 20-10 5-15-6-2-11-8-15-14l-13 14h-67v-43h83c4 0 5-1 5-5zm-88-54h62v50h-62v-50zm-16 102h-56c5-12 9-27 11-43h45v43" id="aR"/><use transform="matrix(0.06172839506172839,0,0,0.06172839506172839,0,0)" xlink:href="#aR" id="N"/><path fill="#3a414a" d="M257 54c11-3 22-19 22-36v-237c16-3 46 7 52-6-7-8-25-16-29-25l-18 21H18l5 10h238V15c-1 17-33 9-49 9v4c27 4 36 13 45 26zm-70-195c0-9 21-14 5-21-5-3-10-6-15-12l-11 12c-35-2-80 7-101-9 12 44-2 111 6 158 15 0 15-15 14-32h85c1 6-3 16 3 17 4-2 12-3 14-7v-106zM85-54v-98h85v98H85" id="aS"/><use transform="matrix(0.06172839506172839,0,0,0.06172839506172839,0,0)" xlink:href="#aS" id="O"/><path fill="#3a414a" d="M89-215c-2-9 16-16 1-19-7-1-15-4-23-7 10 70 1 159 4 236C52 1 34 5 19 7c7 5 14 44 25 26C84 3 130-7 194-53l-3-4c-41 21-75 35-102 45v-203zm96 86c17-6 11-30-4-43-11-9-30-29-52-38 27 28 30 34 45 72 2 6 6 9 11 9zm103-46c0-23-1-47 7-57-8-4-23-5-33-11 4 2 6 25 6 68C268-33 216-1 114 47l1 4C181 33 234 4 263-52c25 31 30 40 45 84 2 6 6 9 11 9 7 0 10-8 9-17-4-35-34-55-63-80 17-30 23-57 23-119" id="aT"/><use transform="matrix(0.06172839506172839,0,0,0.06172839506172839,0,0)" xlink:href="#aT" id="P"/><path fill="#3a414a" d="M129-49c21-11-4-39-20-46 15-8 26-22 44-28-4-6-12-9-18-17-9 18-19 32-30 43-5-6-20-4-19-18 9-13 20-31 32-55 4-5 31-10 13-18-4-3-8-9-14-18-7 9-14 17-33 14 1-19-4-45 7-53-4-6-18-5-26-9 4 17 1 42 2 62H22l5 10h79C79-113 57-94 19-48c21-17 39-32 51-46V51c2 7 14-1 16-5v-149c18 16 22 22 34 46 2 5 5 8 9 8zm147-106c13 3 18-32 42-31 17-12-11-18-16-28l-11 13h-51c-1-20 0-38 7-49l-26-8c5 13 2 38 3 57h-44l-22-13c3 13 4 41 4 83-2 108-10 128-56 184l3 1c50-48 64-67 69-159h15c9 47 18 70 38 98-20 18-48 38-84 60 38-12 72-37 91-51 17 18 36 34 60 44 8-10 26-10 36-15-35-8-62-21-82-40 20-19 37-49 51-89 5-4 19-9 7-14-4-3-8-8-13-15l-14 12h-43v-77h52c-6 16-11 28-16 37zm-78 50h86c-12 42-22 67-42 86-23-22-34-50-44-86zm-20-10c2-24 1-52 1-77h45v77h-46" id="aU"/><use transform="matrix(0.06172839506172839,0,0,0.06172839506172839,0,0)" xlink:href="#aU" id="Q"/><path fill="#3a414a" d="M183-174c0-7 11-13-1-15 8-14 9-14 17-29h121c11 0 10-8 2-12-10-5-17-11-22-18l-18 21H25l5 9h146C135-139 89-96 18-56l1 4c62-26 109-60 144-110V50c3 9 18-1 20-6v-218zm5 22l-1 3c40 30 67 55 82 76 10 14 17 21 22 21 16-5 7-23-4-35-11-11-43-34-99-65" id="aV"/><use transform="matrix(0.06172839506172839,0,0,0.06172839506172839,0,0)" xlink:href="#aV" id="R"/><path fill="#3a414a" d="M310-214c0-8 21-14 9-21-5-3-11-8-16-15l-13 11H62l-21-11c10 91 1 201 4 300 1 9 10 0 15 0 2-1 3-2 3-3v-276h229V11c1 26-23 10-46 13v4c21 6 32 14 41 26 9-3 23-18 23-34v-234zm-70 21l-16 18H91l5 9h162c9 1 10-8 2-10-8-5-16-11-20-17zm0 97c-1-8 19-13 4-20-5-3-10-7-15-13l-11 13c-37-2-87 8-109-10 7 36 1 82 3 122 2 7 15-1 17-4v-20h95c-4 14 9 15 16 7v-75zM129-38v-69h95v69h-95" id="aW"/><use transform="matrix(0.06172839506172839,0,0,0.06172839506172839,0,0)" xlink:href="#aW" id="S"/><path fill="#3a414a" d="M81-156c1-5 9-14-2-14 11-18 23-39 35-64 4-5 19-7 5-13-6-3-13-8-20-15-17 65-45 113-81 158l3 3c15-13 29-28 44-47l2 202c5-2 14-2 14-8v-202zm232 15c1-9 24-13 7-21-4-3-10-6-15-12-12 16-51 7-77 9v-36h95c10 0 10-8 2-12-9-4-15-11-20-17l-17 19h-60c-1-15 0-29 5-37l-26-8c1 3 3 17 4 45H109l5 10h97v36c-31-1-69 5-87-9 10 30-2 78 6 111 7-3 17-3 14-15h65c-3 34-13 50-27 70-18-10-36-25-54-45l-3 3c15 22 32 38 49 51-22 24-42 31-85 50l2 3c37-9 68-24 94-45 32 20 72 29 118 37 8-8 19-14 31-18v-4c-51 0-103-9-139-26 17-21 27-39 31-76h71c-2 12 6 10 13 6 8-16 1-47 3-69zM144-88v-67h67c0 20 2 48-1 67h-66zm84-67h69v67h-70c1-20 1-45 1-67" id="aX"/><use transform="matrix(0.06172839506172839,0,0,0.06172839506172839,0,0)" xlink:href="#aX" id="T"/><use transform="matrix(0.06172839506172839,0,0,0.06172839506172839,0,0)" xlink:href="#aj" id="U"/><use transform="matrix(0.06172839506172839,0,0,0.06172839506172839,0,0)" xlink:href="#al" id="V"/><use transform="matrix(0.06172839506172839,0,0,0.06172839506172839,0,0)" xlink:href="#am" id="W"/><path fill="#3a414a" d="M156-256c16 12 22 26 31 37 10 1 14-20 4-25-5-5-16-11-32-17zM22 54C74-1 70-101 70-206h251c8 1 8-8 2-11-9-4-16-9-22-17l-18 19H71l-24-12c10 26 5 59 5 91C52-61 49 2 21 51zM205-75c1-16-3-38 5-46-4-6-20-4-25-8 3 9 3 37 3 54h-68c15-21 28-44 42-69h147c11-12-17-17-22-29l-16 20H168c7-12 11-28 21-35l-20-8c-6 15-13 29-20 43H78l6 9h60c-16 30-31 53-49 76 3 5 15 12 20 3h73v39H70l6 10h112c1 23-2 49 1 70 5-3 14-3 16-8v-62h116c8-2 5-9-2-12-6-4-12-9-19-17l-17 19h-78v-39h85c8-1 6-10-1-13-6-3-13-7-20-15l-18 18h-46" id="aY"/><use transform="matrix(0.06172839506172839,0,0,0.06172839506172839,0,0)" xlink:href="#aY" id="X"/><path fill="#3a414a" d="M75 51c9 8 29-10 29-27V-97c13-10 28-20 44-34l-2-3c-15 10-30 19-42 26v-63h47c7 1 10-9 2-10-8-4-13-10-17-15-8 8-13 18-32 15 2-24-5-59 7-69-5-5-18-3-26-8 5 18 2 53 3 77H21l5 10h62v72C68-89 42-77 22-74c6 3 12 37 21 21 5-10 33-22 45-32V24c-5 10-33 3-44 4v4c16 3 27 9 31 19zm148-259c22-5 46-19 74-26-4-8-14-10-20-20-34 29-83 45-126 54l2 4c18-2 35-4 53-8v102l-74 16 7 9 67-14V14c-8 45 49 30 98 30 10 0 20-2 24-13-11-6-13-36-13-57h-3c-5 17 2 50-16 54-30-3-79 9-73-14V-95l101-21c9-13-19-15-26-26l-13 23-62 13v-102" id="aZ"/><use transform="matrix(0.06172839506172839,0,0,0.06172839506172839,0,0)" xlink:href="#aZ" id="Y"/><path fill="#3a414a" d="M86-221c1-13 32-19 17-28-6-2-12-5-19-10-17 47-30 64-63 93l1 4c23-10 43-29 58-49h26c12 12 11 41 26 46 23-11-7-37-19-46h57c7 0 8-8 2-11-8-3-14-8-19-15l-17 16H86zm132 0c6-8 10-20 20-24-5-6-17-9-25-16-7 34-19 58-39 79-5-1-10-2-16-4 7 7 3 22 4 35H59v-17h-4c-2 32-20 40-34 57 1 6 5 9 11 10 17-4 24-19 26-40h240c-7 15-13 26-19 34l3 3c15-7 20-27 43-30 9-1 9-11 2-14-6-4-12-10-18-17l-14 14H180c-6-16 16-25 1-30 12-9 21-19 30-30h32c14 12 14 39 29 46 6-1 9-4 10-12-5-13-19-25-32-34h76c7 0 6-9 1-11-8-3-14-8-19-15l-17 16h-73zm33 128c0-8 25-13 8-21-5-3-10-6-15-12l-11 12H102l-21-10C91-74 82-7 85 50c1 9 10 0 14 0 5-1 4-4 4-9h154c-3 11 6 8 13 5 7-10 1-33 3-48-1-9 25-13 8-21-5-3-10-7-15-12l-10 12H103v-30h132c-2 12 5 12 13 7 7-10 3-32 3-47zM103 32v-45h154v45H103zm0-95v-41h132v41H103" id="ba"/><use transform="matrix(0.06172839506172839,0,0,0.06172839506172839,0,0)" xlink:href="#ba" id="Z"/><path fill="#3a414a" d="M288-239l-17 21H34l6 10h82V18H21l5 10h298c12 0 13-10 3-12-10-6-18-13-24-20l-19 22h-60v-226h85c10 0 11-9 2-12-10-6-18-12-23-19zM140 18v-226h66V18h-66zM89-46c18-8 10-33-1-51-7-12-23-37-41-50 18 37 22 45 31 91 2 6 6 10 11 10zm194-112c-8 38-21 75-41 110l4 2c24-18 39-66 66-95-6-7-20-8-29-17" id="bb"/><use transform="matrix(0.06172839506172839,0,0,0.06172839506172839,0,0)" xlink:href="#bb" id="aa"/><path fill="#3a414a" d="M276-219c1-5 31-8 13-18-4-3-10-7-16-15l-12 9H48l5 10h209l-36 128H79c16-34 14-79 28-105-6-4-20-4-29-9 7 45-5 92-23 125-1 2 12 8 14 9 5 1 7-9 12-11h217c-9 68-7 93-29 120-16 5-23 1-45-4v2c16 6 24 15 30 28 60-11 48-58 59-136-3-10 18-11 6-19-4-2-9-7-14-13l-11 13h-47zM236-56l-16 19H19l6 10h229c8 0 11-7 3-11-9-4-16-12-21-18" id="bc"/><use transform="matrix(0.06172839506172839,0,0,0.06172839506172839,0,0)" xlink:href="#bc" id="ab"/><path fill="#3a414a" d="M162-163c2-8 14-12-2-15 10-12 19-26 29-43 5-3 25-7 11-13-6-3-11-9-17-16l-10 10h-70l6 10h65c-5 19-11 36-18 52-4-1-8-2-13-4 5 16 2 48 3 70-19 9-35 15-47 19 5 3 16 29 22 12 13-8 13-7 25-15v76c-2 9-32 4-34 4v4c16 4 25 9 29 21 34-8 17-75 21-116 11-10 31-19 36-31-19 10-19 10-36 18v-43zm104-69c0-7 15-11 1-14-6-1-13-2-20-5 8 69 1 157 3 232-5 12-33 4-44 3v4c19 4 28 13 34 23 11-1 26-14 26-30v-213zm-49 72c-9 49-14 65-33 103l3 1c17-20 32-48 44-84 4-3 17-6 3-10-5-2-10-5-17-10zm100 88c16-5 11-28 1-44-7-10-20-32-35-42 14 32 17 38 25 77 1 5 5 9 9 9zM73-180c14-3 11-24-1-35-8-6-24-23-42-28 19 21 24 26 33 55 2 5 6 8 10 8zm9 71c0-11 22-13 6-21-3-2-7-6-11-11-9 14-37 9-59 10l5 9h43V-1C51 14 36 25 18 31c9 8 11 16 18 22 1-1 1-4 1-7C51 32 63 17 74 3c32 60 144 37 232 43 8-12 17-19 25-22v-4c-23 6-65 9-126 9-66 0-99 3-123-30v-108" id="bd"/><path fill="#3a414a" d="M319-222L242 5h-10l-61-162L108 5h-9L21-222l-21-4v-10h90v10l-34 4 56 166 63-163h8l61 163 54-166-37-4v-10h78v10" id="be"/><path fill="#3a414a" d="M178-68c0 79-95 82-154 59v-54h12c1 35 22 52 60 52 50 0 69-58 33-82-39-24-105-21-105-85 0-67 86-66 142-53v49h-12l-6-29c-31-27-121-7-89 42 28 43 119 24 119 101" id="bf"/><g id="ac"><use transform="matrix(0.06172839506172839,0,0,0.06172839506172839,0,0)" xlink:href="#bd"/><use transform="matrix(0.06172839506172839,0,0,0.06172839506172839,22.22222222222222,0)" xlink:href="#as"/><use transform="matrix(0.06172839506172839,0,0,0.06172839506172839,36.41975308641975,0)" xlink:href="#be"/><use transform="matrix(0.06172839506172839,0,0,0.06172839506172839,57.34567901234568,0)" xlink:href="#bf"/></g><path fill="#3a414a" d="M10 0v-9l31-5v-208l-31-4v-10h95v10l-30 4v93h110v-93l-30-4v-10h94v10l-30 4v208l30 5v9h-94v-9l30-5v-99H75v99l30 5v9H10" id="bg"/><path fill="#3a414a" d="M55 0v-9l38-5v-207c-22 1-53 0-70 4l-5 37H7v-56h207v56h-12l-5-37-70-3v206l37 5v9H55" id="bh"/><path fill="#3a414a" d="M18 4H0l83-241h17" id="bi"/><path fill="#3a414a" d="M199-173c-1 36-21 56-49 65l64 94 26 5v9h-57l-66-103H75v89l35 5v9H13v-9l28-5v-208l-31-4v-10c80 4 190-20 189 63zM75-119c50 2 89-1 89-51 0-49-39-52-89-50v101" id="bj"/><path fill="#3a414a" d="M10-9l31-5v-208l-31-4v-10h177v57h-11l-6-38c-28-4-63-3-95-3v92h63l6-28h11v73h-11l-6-29H75v96l105-3 10-43h12l-3 62H10v-9" id="bk"/><g id="ad"><use transform="matrix(0.06172839506172839,0,0,0.06172839506172839,0,0)" xlink:href="#bg"/><use transform="matrix(0.06172839506172839,0,0,0.06172839506172839,15.987654320987653,0)" xlink:href="#bh"/><use transform="matrix(0.06172839506172839,0,0,0.06172839506172839,29.50617283950617,0)" xlink:href="#bh"/><use transform="matrix(0.06172839506172839,0,0,0.06172839506172839,43.02469135802469,0)" xlink:href="#at"/><use transform="matrix(0.06172839506172839,0,0,0.06172839506172839,55.37037037037037,0)" xlink:href="#bi"/><use transform="matrix(0.06172839506172839,0,0,0.06172839506172839,61.54320987654321,0)" xlink:href="#bj"/><use transform="matrix(0.06172839506172839,0,0,0.06172839506172839,76.35802469135803,0)" xlink:href="#bk"/><use transform="matrix(0.06172839506172839,0,0,0.06172839506172839,89.87654320987654,0)" xlink:href="#bf"/><use transform="matrix(0.06172839506172839,0,0,0.06172839506172839,102.22222222222223,0)" xlink:href="#bh"/></g><path fill="#3a414a" d="M141-152c28 39 5 97-54 97-9 0-20-2-27-3L49-35c29 22 130-14 124 52-4 45-38 57-88 61C21 83-8 26 45-2 33-6 22-15 21-31l28-31c-19-9-28-26-28-51-2-51 53-65 100-52l38-20 7 8zM85 64c35 0 61-11 61-42 0-35-57-17-89-21-9 8-16 19-17 34 0 25 19 29 45 29zM52-113c1 26 7 46 35 44 28-1 34-16 35-44 0-26-6-43-34-43s-36 17-36 43" id="bl"/><path fill="#3a414a" d="M52-115c0 93 80 130 150 87l7-35h11l-1 55c-23 7-52 12-83 12C60 4 19-37 15-115c-5-113 97-141 201-114l1 51h-12l-5-30c-15-9-39-16-62-16-66 0-86 41-86 109" id="bm"/><g id="ae"><use transform="matrix(0.06172839506172839,0,0,0.06172839506172839,0,0)" xlink:href="#bl"/><use transform="matrix(0.06172839506172839,0,0,0.06172839506172839,11.11111111111111,0)" xlink:href="#bj"/><use transform="matrix(0.06172839506172839,0,0,0.06172839506172839,25.925925925925924,0)" xlink:href="#at"/><use transform="matrix(0.06172839506172839,0,0,0.06172839506172839,38.2716049382716,0)" xlink:href="#bm"/></g><path fill="#3a414a" d="M147-229c2-5 20-10 5-17-4-3-10-7-15-13l-12 11H18l5 9h107l-17 131H45c14-36 9-81 24-110-5-4-18-4-26-9 2 48-4 95-20 131-1 3 9 8 13 8 5 1 6-8 11-10h96c-7 69-6 92-22 123-14 7-18 1-39-4v3c14 6 22 15 27 27 19 0 31-14 36-32 6-20 10-55 13-105-2-10 19-12 5-19-4-2-8-7-13-13-6 4-8 12-20 10zM18-20c8 2 20 36 27 14 30-17 57-35 81-54l-1-3C78-41 42-27 18-20zm159 69c5 1 7-12 11-14h142c8-1 6-10-1-13-6-3-13-8-20-16l-17 19H185v-258h141c7 0 6-8 1-11-8-4-15-9-21-17l-18 18c-43-2-97 8-122-12 8 88 1 190 3 283 0 3-2 7-6 10-1 5 10 11 14 11zm142-69c0-33-23-63-41-88 10-24 19-51 28-80 4-6 24-9 7-15-6-2-13-6-21-11-9 37-17 68-25 92-18-22-39-44-65-67l-2 3c23 25 43 52 61 81-15 41-35 74-63 110l1 4c26-21 53-61 71-99 13 23 23 46 33 72 3 7 16 10 16-2" id="bn"/><use transform="matrix(0.06172839506172839,0,0,0.06172839506172839,0,0)" xlink:href="#bn" id="af"/><path fill="#3a414a" d="M143-229l-17 19H37l6 10h118c9 0 11-9 2-11-9-5-15-12-20-18zM165 5c15-7 10-28-1-43-8-11-21-24-39-39 5 19 18 30 22 46C109-16 73-5 38 2c25-40 46-82 61-125h78c8 1 12-9 3-11-9-5-16-12-21-18l-16 19H19l6 10h53C64-73 44-30 18 6c9 9 7 31 18 16l113-47c4 9 5 29 16 30zm71 21c14 4 20 15 28 25 32-13 36-17 43-51 5-26 9-79 13-159 4-4 18-11 6-16-5-3-10-8-14-14l-15 12h-53c1-24-4-57 6-70-6-4-20-4-29-9 7 30 7 49 5 79h-47l5 10h42C224-62 196 7 137 51l3 3c79-45 97-108 104-221h59c-4 98-10 158-20 181-15 19-15 11-47 8v4" id="bo"/><use transform="matrix(0.06172839506172839,0,0,0.06172839506172839,0,0)" xlink:href="#bo" id="ag"/><use transform="matrix(0.06172839506172839,0,0,0.06172839506172839,0,0)" xlink:href="#ak" id="ah"/></defs></g></svg>