<svg xmlns="http://www.w3.org/2000/svg" xmlns:xlink="http://www.w3.org/1999/xlink" xmlns:lucid="lucid" width="746" height="630"><g transform="translate(-314 -320)" lucid:page-tab-id="0_0"><path d="M0 0h1870.87v1322.84H0z" fill="#fff"/><path d="M780 765.04c0 5.22-26.86 9.45-60 9.45s-60-4.24-60-9.46v-75.6c0-5.2 26.86-9.44 60-9.44s60 4.23 60 9.45z" stroke="#3a414a" fill="#fff"/><path d="M780 689.45c0 5.22-26.86 9.45-60 9.45s-60-4.23-60-9.45" stroke="#3a414a" fill="none"/><use xlink:href="#a" transform="matrix(1,0,0,1,665,703.8976377952756) translate(14.413580246913583 38.40277777777778)"/><path d="M908.63 504.97A11.3 11.3 0 0 1 918 500h84a11.3 11.3 0 0 1 9.37 4.97l25.26 37.3a8.86 8.86 0 0 1 0 9.94l-25.27 37.32a11.3 11.3 0 0 1-9.36 4.97h-84a11.3 11.3 0 0 1-9.37-4.98l-25.26-37.3a8.86 8.86 0 0 1 0-9.94z" stroke="#3a414a" fill="#fff"/><use xlink:href="#b" transform="matrix(1,0,0,1,885,505) translate(52.782777777777774 33.71527777777778)"/><use xlink:href="#c" transform="matrix(1,0,0,1,885,505) translate(75.005 33.71527777777778)"/><use xlink:href="#d" transform="matrix(1,0,0,1,885,505) translate(41.67166666666667 60.38194444444445)"/><use xlink:href="#e" transform="matrix(1,0,0,1,885,505) translate(63.89388888888889 60.38194444444445)"/><use xlink:href="#f" transform="matrix(1,0,0,1,885,505) translate(86.11611111111111 60.38194444444445)"/><path d="M640 506a6 6 0 0 1 6-6h148a6 6 0 0 1 6 6v82.5a6 6 0 0 1-6 6H646a6 6 0 0 1-6-6z" stroke="#3a414a" fill="#fff"/><use xlink:href="#g" transform="matrix(1,0,0,1,652,512) translate(11.858024691358025 39.96527777777778)"/><use xlink:href="#h" transform="matrix(1,0,0,1,652,512) translate(79.69753086419753 39.96527777777778)"/><use xlink:href="#i" transform="matrix(1,0,0,1,652,512) translate(101.91975308641975 39.96527777777778)"/><path d="M640 346a6 6 0 0 1 6-6h148a6 6 0 0 1 6 6v82.5a6 6 0 0 1-6 6H646a6 6 0 0 1-6-6z" stroke="#3a414a" fill="#fff"/><use xlink:href="#j" transform="matrix(1,0,0,1,652,352) translate(25.74691358024692 39.96527777777778)"/><use xlink:href="#k" transform="matrix(1,0,0,1,652,352) translate(65.80864197530863 39.96527777777778)"/><use xlink:href="#l" transform="matrix(1,0,0,1,652,352) translate(88.03086419753086 39.96527777777778)"/><path d="M360 506a6 6 0 0 1 6-6h148a6 6 0 0 1 6 6v82.5a6 6 0 0 1-6 6H366a6 6 0 0 1-6-6z" stroke="#3a414a" fill="#cfe4ff"/><use xlink:href="#m" transform="matrix(1,0,0,1,372,512) translate(28 39.96527777777778)"/><path d="M801 387.24h153a6 6 0 0 1 6 6v89.88" stroke="#3a414a" fill="none"/><path d="M801 387.74h-.5v-1h.5z" stroke="#3a414a" stroke-width=".05" fill="#3a414a"/><path d="M960 497.88l-4.63-14.26h9.26z" stroke="#3a414a" fill="#3a414a"/><path d="M801 547.24h63.96" stroke="#3a414a" fill="none"/><path d="M801 547.74h-.5v-1h.5z" stroke="#3a414a" stroke-width=".05" fill="#3a414a"/><path d="M879.72 547.24l-14.26 4.64v-9.27z" stroke="#3a414a" fill="#3a414a"/><path d="M720 435.5v47.62" stroke="#3a414a" fill="none"/><path d="M720.5 435.5h-1v-.5h1z" stroke="#3a414a" stroke-width=".05" fill="#3a414a"/><path d="M720 497.88l-4.63-14.26h9.26z" stroke="#3a414a" fill="#3a414a"/><path d="M639 547.24H536.88" stroke="#3a414a" fill="none"/><path d="M639.5 547.74h-.5v-1h.5z" stroke="#3a414a" stroke-width=".05" fill="#3a414a"/><path d="M522.12 547.24l14.26-4.63v9.28z" stroke="#3a414a" fill="#3a414a"/><path d="M720 595.5v53.67" stroke="#3a414a" fill="none"/><path d="M720.5 595.5h-1v-.5h1z" stroke="#3a414a" stroke-width=".05" fill="#3a414a"/><path d="M735 664c0 8.28-6.72 15-15 15-8.28 0-15-6.72-15-15 0-8.28 6.72-15 15-15 8.28 0 15 6.72 15 15z" stroke="#3a414a" fill="#3a414a"/><path d="M320.5 640h83.12M320.5 640h-.5" stroke="#3a414a" fill="none"/><path d="M418.38 640l-14.26 4.63v-9.26z" stroke="#3a414a" fill="#3a414a"/><path d="M320.5 680h69.17M320.5 680h-.5" stroke="#3a414a" fill="none"/><path d="M419.5 680c0 8.28-6.72 15-15 15-8.28 0-15-6.72-15-15 0-8.28 6.72-15 15-15 8.28 0 15 6.72 15 15z" stroke="#3a414a" fill="#3a414a"/><path d="M348.9 722.4a10.6 10.6 0 0 1 9.1-5.16h24a10.6 10.6 0 0 1 9.1 5.15l5.8 9.7a10 10 0 0 1 0 10.3l-5.8 9.7a10.6 10.6 0 0 1-9.1 5.14h-24a10.6 10.6 0 0 1-9.1-5.14l-5.8-9.7a10 10 0 0 1 0-10.3zM400 810.5c0 2.2-13.43 4-30 4s-30-1.8-30-4v-32c0-2.22 13.43-4 30-4s30 1.78 30 4z" stroke="#3a414a" fill="#fff"/><path d="M400 778.5c0 2.2-13.43 4-30 4s-30-1.8-30-4" stroke="#3a414a" fill="none"/><path d="M340 833.24a6 6 0 0 1 6-6h48a6 6 0 0 1 6 6v28a6 6 0 0 1-6 6h-48a6 6 0 0 1-6-6z" stroke="#3a414a" fill="#fff"/><path d="M340 886a6 6 0 0 1 6-6h48a6 6 0 0 1 6 6v28a6 6 0 0 1-6 6h-48a6 6 0 0 1-6-6z" stroke="#3a414a" fill="#cfe4ff"/><path d="M440 606a6 6 0 0 1 6-6h148a6 6 0 0 1 6 6v48a6 6 0 0 1-6 6H446a6 6 0 0 1-6-6z" stroke="#000" stroke-opacity="0" fill="#fff" fill-opacity="0"/><use xlink:href="#n" transform="matrix(1,0,0,1,445,605) translate(17.129629629629626 30.27777777777778)"/><path d="M380 663.24a6 6 0 0 1 6-6h228a6 6 0 0 1 6 6v48a6 6 0 0 1-6 6H386a6 6 0 0 1-6-6z" stroke="#000" stroke-opacity="0" fill="#fff" fill-opacity="0"/><use xlink:href="#o" transform="matrix(1,0,0,1,385,662.2440944881889) translate(89.69135802469137 30.27777777777778)"/><use xlink:href="#p" transform="matrix(1,0,0,1,385,662.2440944881889) translate(118.08641975308643 30.27777777777778)"/><path d="M380 713.24a6 6 0 0 1 6-6h228a6 6 0 0 1 6 6v48a6 6 0 0 1-6 6H386a6 6 0 0 1-6-6z" stroke="#000" stroke-opacity="0" fill="#fff" fill-opacity="0"/><g><use xlink:href="#b" transform="matrix(1,0,0,1,385,712.2440944881889) translate(59.44444444444444 30.27777777777778)"/><use xlink:href="#q" transform="matrix(1,0,0,1,385,712.2440944881889) translate(81.66666666666666 30.27777777777778)"/><use xlink:href="#r" transform="matrix(1,0,0,1,385,712.2440944881889) translate(103.88888888888889 30.27777777777778)"/><use xlink:href="#e" transform="matrix(1,0,0,1,385,712.2440944881889) translate(126.1111111111111 30.27777777777778)"/><use xlink:href="#f" transform="matrix(1,0,0,1,385,712.2440944881889) translate(148.33333333333331 30.27777777777778)"/></g><path d="M380 770.5a6 6 0 0 1 6-6h228a6 6 0 0 1 6 6v48a6 6 0 0 1-6 6H386a6 6 0 0 1-6-6z" stroke="#000" stroke-opacity="0" fill="#fff" fill-opacity="0"/><g><use xlink:href="#s" transform="matrix(1,0,0,1,385,769.488188976378) translate(81.66666666666667 30.27777777777778)"/><use xlink:href="#t" transform="matrix(1,0,0,1,385,769.488188976378) translate(103.88888888888889 30.27777777777778)"/><use xlink:href="#u" transform="matrix(1,0,0,1,385,769.488188976378) translate(126.11111111111111 30.27777777777778)"/></g><path d="M380 823.24a6 6 0 0 1 6-6h228a6 6 0 0 1 6 6v48a6 6 0 0 1-6 6H386a6 6 0 0 1-6-6z" stroke="#000" stroke-opacity="0" fill="#fff" fill-opacity="0"/><g><use xlink:href="#v" transform="matrix(1,0,0,1,385,822.2440944881889) translate(81.66666666666667 30.27777777777778)"/><use xlink:href="#w" transform="matrix(1,0,0,1,385,822.2440944881889) translate(103.88888888888889 30.27777777777778)"/><use xlink:href="#x" transform="matrix(1,0,0,1,385,822.2440944881889) translate(126.11111111111111 30.27777777777778)"/></g><path d="M380 876a6 6 0 0 1 6-6h228a6 6 0 0 1 6 6v48a6 6 0 0 1-6 6H386a6 6 0 0 1-6-6z" stroke="#000" stroke-opacity="0" fill="#fff" fill-opacity="0"/><g><use xlink:href="#y" transform="matrix(1,0,0,1,385,875) translate(70.55555555555556 30.27777777777778)"/><use xlink:href="#z" transform="matrix(1,0,0,1,385,875) translate(92.77777777777777 30.27777777777778)"/><use xlink:href="#A" transform="matrix(1,0,0,1,385,875) translate(115 30.27777777777778)"/><use xlink:href="#B" transform="matrix(1,0,0,1,385,875) translate(137.22222222222223 30.27777777777778)"/></g><defs><path fill="#3a414a" d="M75-17c87 13 134-18 134-103 0-78-51-106-134-100v203zm171-102C246 5 139 7 10 0v-9l31-5v-208l-31-4v-10h107c82 0 129 35 129 117" id="C"/><path fill="#3a414a" d="M32-163c41-10 102-14 102 39v112c8 3 24-2 21 12h-45l-4-17C83 13 3 13 13-46c-2-50 45-50 92-51 4-36-5-70-42-56-6 2-12 4-16 6-4 7 0 23-15 20v-36zM42-47c0 41 41 33 63 22v-59c-34 1-63-1-63 37" id="D"/><path fill="#3a414a" d="M54-38c-1 25 24 26 44 20v12C71 10 25 9 25-35v-115H4c-2-14 14-10 21-15l18-38h11v38h38v15H54v112" id="E"/><path fill="#3a414a" d="M53-14c58 12 82-15 82-73 0-52-35-77-82-58v131zM89 4C64 4 42-2 24-9v-229l-24-4v-8h53l-1 94c48-33 114-4 114 69 0 57-23 91-77 91" id="F"/><path fill="#3a414a" d="M41-130c7 48 86 23 86 84 0 56-69 57-112 41v-40c20 0 9 29 31 31 35 19 77-26 41-50-27-18-72-13-72-59 0-50 58-52 100-41v36c-19 1-8-25-28-25-21-7-50-1-46 23" id="G"/><path fill="#3a414a" d="M84-170c49 0 66 33 63 87H46c-8 60 38 80 95 63v10C128-2 108 4 88 4 34 4 14-29 14-84c-1-54 22-86 70-86zm33 73c12-57-57-82-69-24-1 7-2 15-2 24h71" id="H"/><g id="a"><use transform="matrix(0.06172839506172839,0,0,0.06172839506172839,0,0)" xlink:href="#C"/><use transform="matrix(0.06172839506172839,0,0,0.06172839506172839,15.987654320987653,0)" xlink:href="#D"/><use transform="matrix(0.06172839506172839,0,0,0.06172839506172839,25.80246913580247,0)" xlink:href="#E"/><use transform="matrix(0.06172839506172839,0,0,0.06172839506172839,31.975308641975307,0)" xlink:href="#D"/><use transform="matrix(0.06172839506172839,0,0,0.06172839506172839,41.79012345679012,0)" xlink:href="#F"/><use transform="matrix(0.06172839506172839,0,0,0.06172839506172839,52.90123456790123,0)" xlink:href="#D"/><use transform="matrix(0.06172839506172839,0,0,0.06172839506172839,62.716049382716044,0)" xlink:href="#G"/><use transform="matrix(0.06172839506172839,0,0,0.06172839506172839,71.35802469135803,0)" xlink:href="#H"/></g><path fill="#3a414a" d="M135-217c0-7 19-14 7-19-5-3-9-8-14-14-15 17-67 13-84-2 3 16 4 49 4 101C47-40 45-16 18 53l3 1C48 9 58-16 63-79h55v89c0 22-21 9-40 10v4c17 5 29 12 36 23 8-3 21-17 21-30v-234zM63-89l2-71h53v71H63zm2-81v-60h53v60H65zm235-42c1-5 22-7 8-16-5-3-10-9-14-16-24 17-77 5-114 8l-19-9c11 91 1 200 4 298 3 5 13-2 16-4v-156h26c8 52 17 79 40 108-14 18-29 30-60 48l1 2c29-11 50-22 67-40 13 14 29 27 46 35 9-7 20-11 33-11v-3c-28-7-52-18-68-34 20-28 29-48 40-96 6-3 21-7 7-13-4-4-8-10-12-18l-14 13H181v-110h103c-5 30 5 76-48 59v2c15 6 24 14 30 25 33-17 24-18 34-72zm-89 105h77c-6 46-14 67-31 95-24-26-37-54-46-95" id="I"/><use transform="matrix(0.06172839506172839,0,0,0.06172839506172839,0,0)" xlink:href="#I" id="b"/><path fill="#3a414a" d="M130-221c6-6 7-18 17-22 6-2 5-5-2-8-6-2-13-6-20-11-18 55-47 92-91 124l3 2c35-20 57-40 81-68 16 29 35 50 54 65-49 26-81 35-153 50l3 3c68-11 117-19 162-46 26 15 61 30 106 43 13-13 23-17 42-14v-4c-54-8-94-16-133-34 18-12 36-31 60-58 1-7 27-8 15-18-5-4-11-11-16-19l-16 15H130zm114 10c-23 32-36 45-59 63-25-12-41-30-63-61 35-6 83 0 122-2zM203 22c17 4 28 16 36 29 44-27 29-29 44-97 4-5 24-10 8-17-5-3-10-7-14-14l-13 13h-90c4-10 1-26 11-29 6-11-14-10-24-18-1 18-3 33-6 47H60l6 10h87C134 8 90 30 18 51l1 4C94 39 152 14 172-54h94c-10 76-4 88-63 72v4" id="J"/><use transform="matrix(0.06172839506172839,0,0,0.06172839506172839,0,0)" xlink:href="#J" id="c"/><path fill="#3a414a" d="M45-245c25 17 30 36 46 49 12-1 12-22 2-29-7-8-22-16-45-25zm-22 86c23 16 29 34 43 47 12 0 12-20 3-28-8-6-21-15-43-23zM69 47c22-9-2-48 1-67 9-54 29-103 42-153l-2-1C89-128 73-88 59-54c-6 14-14 12-26 16v4c40 1-1 73 36 81zm104-298c24 19 31 39 45 56 12-1 10-21 2-30-8-8-23-19-46-30zm118 45l-16 20H122l6 9h72v87h-72l5 9h67V24h-97l6 9h214c11 0 10-8 1-11-10-6-17-12-22-19l-18 21h-67V-81h77c10 0 10-7 2-11-9-4-15-11-20-17l-17 19h-42v-87h92c10 0 10-7 2-11-9-4-15-11-20-18" id="K"/><use transform="matrix(0.06172839506172839,0,0,0.06172839506172839,0,0)" xlink:href="#K" id="d"/><path fill="#3a414a" d="M153-217c0-7 17-13 7-19-5-3-9-8-14-14l-13 14c-31 0-67 4-82-12 3 19 4 70 4 133H18l5 10h32C54-19 50-1 25 53l2 1C62 4 70-14 71-105h65V14c0 20-16 11-33 10v4c12 6 19 13 23 25 9-2 30-16 27-31v-127h36c-2 80-6 104-28 158l2 1c31-51 41-74 42-159h67V14c-1 20-16 11-33 10v4c14 5 19 14 25 25 9-2 24-16 24-31v-127c15-2 41 6 46-6-6-8-21-14-25-22-7 6-10 16-21 18v-100c1-7 20-13 8-20-5-3-9-7-14-13l-13 14h-62l-22-13c4 14 4 86 4 132h-36v-102zM71-115v-111h65v111H71zm135 0v-110h66v110h-66" id="L"/><use transform="matrix(0.06172839506172839,0,0,0.06172839506172839,0,0)" xlink:href="#L" id="e"/><path fill="#3a414a" d="M224-29c26-11 48-29 73-43-4-7-12-8-18-17-18 23-37 42-58 56-16-19-28-40-39-68h138c9 0 10-9 1-11-8-5-14-11-19-17l-16 18H183v-41h96c8 0 10-8 2-11-8-5-15-9-19-15l-15 16h-64v-42h115c7 0 11-8 2-11-8-5-15-11-20-17l-16 18h-81c-2-18 3-27 6-37l-26-8c4 10 3 30 3 45H50l5 10h111v42H65l5 10h96v41H29l5 10h117C116-56 76-31 21-9l1 4c37-11 68-25 93-42v69c-18 5-40 8-56 9 6 4 12 37 21 22 33-16 68-23 120-48l-2-3c-25 7-46 13-65 17v-79c14-11 27-25 40-41h3c23 76 63 117 121 147 8-10 22-11 33-15-47-14-77-31-106-60" id="M"/><use transform="matrix(0.06172839506172839,0,0,0.06172839506172839,0,0)" xlink:href="#M" id="f"/><path fill="#3a414a" d="M199-173c-1 36-21 56-49 65l64 94 26 5v9h-57l-66-103H75v89l35 5v9H13v-9l28-5v-208l-31-4v-10c80 4 190-20 189 63zM75-119c50 2 89-1 89-51 0-49-39-52-89-50v101" id="N"/><path fill="#3a414a" d="M47-200c-23 0-25-39 0-38 13 0 18 7 20 19-1 11-8 19-20 19zM65-12l28 4v8H8v-8l28-4v-141l-24-4v-8h53v153" id="O"/><path fill="#3a414a" d="M125-118c4-37-41-34-68-26v132l23 4v8H8C5-13 21-9 28-12v-141c-7-3-23 1-20-12h47l2 13c31-23 98-29 98 31v109c7 3 23-1 20 12h-72v-8l22-4v-106" id="P"/><path fill="#3a414a" d="M141-152c28 39 5 97-54 97-9 0-20-2-27-3L49-35c29 22 130-14 124 52-4 45-38 57-88 61C21 83-8 26 45-2 33-6 22-15 21-31l28-31c-19-9-28-26-28-51-2-51 53-65 100-52l38-20 7 8zM85 64c35 0 61-11 61-42 0-35-57-17-89-21-9 8-16 19-17 34 0 25 19 29 45 29zM52-113c1 26 7 46 35 44 28-1 34-16 35-44 0-26-6-43-34-43s-36 17-36 43" id="Q"/><g id="g"><use transform="matrix(0.06172839506172839,0,0,0.06172839506172839,0,0)" xlink:href="#N"/><use transform="matrix(0.06172839506172839,0,0,0.06172839506172839,14.814814814814813,0)" xlink:href="#D"/><use transform="matrix(0.06172839506172839,0,0,0.06172839506172839,24.629629629629626,0)" xlink:href="#E"/><use transform="matrix(0.06172839506172839,0,0,0.06172839506172839,30.802469135802465,0)" xlink:href="#O"/><use transform="matrix(0.06172839506172839,0,0,0.06172839506172839,36.9753086419753,0)" xlink:href="#P"/><use transform="matrix(0.06172839506172839,0,0,0.06172839506172839,48.08641975308642,0)" xlink:href="#Q"/><use transform="matrix(0.06172839506172839,0,0,0.06172839506172839,59.19753086419753,0)" xlink:href="#G"/></g><use transform="matrix(0.06172839506172839,0,0,0.06172839506172839,0,0)" xlink:href="#I" id="h"/><use transform="matrix(0.06172839506172839,0,0,0.06172839506172839,0,0)" xlink:href="#J" id="i"/><path fill="#3a414a" d="M319-222L242 5h-10l-61-162L108 5h-9L21-222l-21-4v-10h90v10l-34 4 56 166 63-163h8l61 163 54-166-37-4v-10h78v10" id="R"/><g id="j"><use transform="matrix(0.06172839506172839,0,0,0.06172839506172839,0,0)" xlink:href="#R"/><use transform="matrix(0.06172839506172839,0,0,0.06172839506172839,19.1358024691358,0)" xlink:href="#H"/><use transform="matrix(0.06172839506172839,0,0,0.06172839506172839,28.950617283950614,0)" xlink:href="#F"/></g><path fill="#3a414a" d="M280-212c-2-9 22-13 7-21-5-3-10-6-15-12l-11 11H85l-19-10c9 40 2 94 4 141 10 7 18-4 16-19h52C102-69 82-56 19-30l3 3c49-18 74-30 103-54C132 1 96 32 33 53l1 2C112 35 137 7 145-72c2 0 3-2 3-5l-20-7c11-10 22-23 33-38h32c12 19 25 34 36 43-5-4-18-3-22-6 5 40-1 94 3 136 5-3 13-3 15-8 2-39-6-96 6-121 19 15 39 28 59 36 9-8 22-12 37-12l1-5c-53-11-99-32-130-63h66c1 5-2 15 2 17 4-2 12-3 14-7v-100zM86-131v-42h80v42H86zm97-42h81v42h-81v-42zm-97-9v-43h80v43H86zm97-43h81v43h-81v-43" id="S"/><use transform="matrix(0.06172839506172839,0,0,0.06172839506172839,0,0)" xlink:href="#S" id="k"/><path fill="#3a414a" d="M306-151c1-7 21-11 5-19-4-3-9-6-14-12l-13 11H142c22-16 39-35 53-56h126c11 0 11-9 2-12-9-5-16-11-21-17l-18 19H19l6 10h149c-8 19-21 37-38 56-34-2-78 6-98-10 15 67-3 163 7 235 14-1 16-13 14-29h231c1 7-2 19 2 22 4-2 12-3 14-7v-191zM59 15v-177h66V15H59zm82 0v-54h69v54h-69zm86 0v-177h63V15h-63zm-86-64v-52h69v52h-69zm0-62v-51h69v51h-69" id="T"/><use transform="matrix(0.06172839506172839,0,0,0.06172839506172839,0,0)" xlink:href="#T" id="l"/><path fill="#3a414a" d="M81-9v9H4v-9l26-5 81-224h33l83 224 30 5v9h-99v-9l31-5-23-68H73L49-14zm38-203L78-98h82" id="U"/><path fill="#3a414a" d="M57-145c16-10 35-24 60-25v45c-19 1-8-30-40-17l-20 6v124l29 4v8H7v-8l21-4v-141c-8-3-24 2-21-12h48" id="V"/><path fill="#3a414a" d="M45-84c0 64 52 80 104 63 1 25-30 25-55 25-56 0-80-32-80-88 0-76 62-98 131-80v46h-10c-5-15-4-31-23-35-47-10-67 21-67 69" id="W"/><path fill="#3a414a" d="M126-119c3-38-42-31-69-25v132l23 4v8H7v-8l21-4v-226l-24-4v-8h53l-1 98c31-22 99-31 99 31v109c7 3 23-1 20 12h-71v-8l22-4v-107" id="X"/><path fill="#3a414a" d="M124-13C89 8 26 15 26-45v-108c-8-3-24 2-21-12h50v118c-3 37 42 32 69 25v-131l-25-4v-8h54v153c8 3 24-2 21 12h-48" id="Y"/><g id="m"><use transform="matrix(0.06172839506172839,0,0,0.06172839506172839,0,0)" xlink:href="#U"/><use transform="matrix(0.06172839506172839,0,0,0.06172839506172839,15.987654320987653,0)" xlink:href="#V"/><use transform="matrix(0.06172839506172839,0,0,0.06172839506172839,23.333333333333332,0)" xlink:href="#W"/><use transform="matrix(0.06172839506172839,0,0,0.06172839506172839,33.148148148148145,0)" xlink:href="#X"/><use transform="matrix(0.06172839506172839,0,0,0.06172839506172839,44.25925925925925,0)" xlink:href="#D"/><use transform="matrix(0.06172839506172839,0,0,0.06172839506172839,54.07407407407407,0)" xlink:href="#O"/><use transform="matrix(0.06172839506172839,0,0,0.06172839506172839,60.24691358024691,0)" xlink:href="#Y"/><use transform="matrix(0.06172839506172839,0,0,0.06172839506172839,71.35802469135803,0)" xlink:href="#G"/></g><path fill="#3a414a" d="M10 0v-9l31-5v-208l-31-4v-10h95v10l-30 4v93h110v-93l-30-4v-10h94v10l-30 4v208l30 5v9h-94v-9l30-5v-99H75v99l30 5v9H10" id="Z"/><path fill="#3a414a" d="M55 0v-9l38-5v-207c-22 1-53 0-70 4l-5 37H7v-56h207v56h-12l-5-37-70-3v206l37 5v9H55" id="aa"/><path fill="#3a414a" d="M75-108c48 3 76-12 76-58s-28-57-76-54v112zm111-58c-1 60-46 78-111 74v78l37 5v9H13v-9l28-5v-208l-31-4v-10c81 1 178-14 176 70" id="ab"/><path fill="#3a414a" d="M18 4H0l83-241h17" id="ac"/><path fill="#3a414a" d="M10-9l31-5v-208l-31-4v-10h177v57h-11l-6-38c-28-4-63-3-95-3v92h63l6-28h11v73h-11l-6-29H75v96l105-3 10-43h12l-3 62H10v-9" id="ad"/><path fill="#3a414a" d="M178-68c0 79-95 82-154 59v-54h12c1 35 22 52 60 52 50 0 69-58 33-82-39-24-105-21-105-85 0-67 86-66 142-53v49h-12l-6-29c-31-27-121-7-89 42 28 43 119 24 119 101" id="ae"/><g id="n"><use transform="matrix(0.06172839506172839,0,0,0.06172839506172839,0,0)" xlink:href="#Z"/><use transform="matrix(0.06172839506172839,0,0,0.06172839506172839,15.987654320987653,0)" xlink:href="#aa"/><use transform="matrix(0.06172839506172839,0,0,0.06172839506172839,29.50617283950617,0)" xlink:href="#aa"/><use transform="matrix(0.06172839506172839,0,0,0.06172839506172839,43.02469135802469,0)" xlink:href="#ab"/><use transform="matrix(0.06172839506172839,0,0,0.06172839506172839,55.37037037037037,0)" xlink:href="#ac"/><use transform="matrix(0.06172839506172839,0,0,0.06172839506172839,61.54320987654321,0)" xlink:href="#N"/><use transform="matrix(0.06172839506172839,0,0,0.06172839506172839,76.35802469135803,0)" xlink:href="#ad"/><use transform="matrix(0.06172839506172839,0,0,0.06172839506172839,89.87654320987654,0)" xlink:href="#ae"/><use transform="matrix(0.06172839506172839,0,0,0.06172839506172839,102.22222222222223,0)" xlink:href="#aa"/></g><path fill="#3a414a" d="M85-182c14-2 13-24 0-32-7-7-18-16-34-25 9 20 19 24 25 48 2 5 5 9 9 9zm3 55c0-9 16-11 6-19-4-2-8-5-13-10l-11 12H19l6 10h46V-4c0 7-4 11-12 15 6 7 11 14 14 20 21-14 39-31 57-51l-1-3c-14 9-27 17-41 22v-126zm141-94c-2-17 3-24 7-33l-26-8c4 9 3 27 3 41h-77l5 10h72v40h-99l6 9h177l-24 36c15 3 25-29 51-28 18-10-11-16-15-28l-12 11h-68v-40h79c9 0 10-10 1-11-8-5-14-11-19-17l-17 18h-44zm-79 76c18 10 22 21 33 29 16-17-9-27-32-32zm-20 37c19 12 25 24 36 34 9 0 11-16 3-22-6-4-18-10-37-15zM84 54c68-17 129-34 141-107h99c8 0 11-7 3-11-9-4-16-12-21-18l-16 19h-64c6-23-3-63 7-79l-26-9c3 2 5 25 5 69 0 7-1 13-2 19H110l5 10h93C190 16 153 26 82 51zm156-85l-2 4c31 19 56 38 71 63 6 10 20 11 21-3-14-32-44-40-90-64" id="af"/><g id="o"><use transform="matrix(0.06172839506172839,0,0,0.06172839506172839,0,0)" xlink:href="#af"/><use transform="matrix(0.06172839506172839,0,0,0.06172839506172839,22.22222222222222,0)" xlink:href="#ac"/></g><path fill="#3a414a" d="M288-188c12-7 12-33 35-34 9-1 10-10 3-14-6-4-12-9-18-16l-14 16H59c-1-6 4-19-6-16 0 34-16 43-30 60 2 6 6 9 13 10 16-4 20-23 22-44h239c-3 17-13 29-9 38zm-177 29c3-13 4-30 15-34-5-6-19-7-27-13-4 52-18 95-33 136 1 4 11 1 16 2 5-7 6-17 10-26h164c0 17-1 33-4 49H18l5 10h227c-10 32-8 61-41 61-8 0-17-1-28-4v3c15 6 22 16 28 26 48-12 51-36 60-86h57c10 0 10-9 1-12-10-6-17-11-22-18-10 9-13 24-35 20 4-15 0-43 12-52-4-8-12-9-18-19l-13 12H95c5-14 9-29 13-45h171c7 0 7-9 1-12-9-4-17-10-23-19l-19 21H111" id="ag"/><use transform="matrix(0.06172839506172839,0,0,0.06172839506172839,0,0)" xlink:href="#ag" id="p"/><use transform="matrix(0.06172839506172839,0,0,0.06172839506172839,0,0)" xlink:href="#J" id="q"/><use transform="matrix(0.06172839506172839,0,0,0.06172839506172839,0,0)" xlink:href="#K" id="r"/><path fill="#3a414a" d="M48-245c15 16 22 30 30 44 8 0 11-16 4-22-3-5-13-13-32-25zm85 45c21-2 32-27 50-37-4-6-14-7-20-14-7 22-17 36-30 51zm28 76c23-21-14-36-39-44v-13h69c9 1 9-8 2-10-7-4-13-10-17-15l-15 15h-39c1-20-4-48 6-59-5-5-20-4-25-8 4 12 3 47 3 67H29l5 10h63c-18 38-42 60-74 80l2 4c36-16 60-36 81-66v54l-4-2c-2 10-7 22-14 36H21l5 10h57C75-49 64-30 50-8c11 11 21-5 24-14 16 5 30 10 41 17-22 30-50 45-96 56v3c51-7 83-23 108-51 20 12 22 21 36 28 4-1 7-4 7-10-6-15-18-19-35-29 9-13 18-27 31-57 13-1 52 3 35-11-7-6-16-11-20-17l-16 18h-59c4-9 11-19 19-23-1-5-12-5-17-9 23-1 12-36 14-58 16 11 20 16 31 34 2 4 4 7 8 7zm-14 59c-10 25-18 42-25 51-11-5-27-9-45-13l23-38h47zm109 33c22-41 35-79 43-143 11 0 38 2 24-11-8-3-15-8-20-15l-16 16h-57c6-13 11-29 17-47 3-4 20-8 5-14-7-2-13-6-21-12-11 65-27 112-58 155l3 3c14-15 25-31 35-49 3 44 13 84 28 119-24 37-52 60-99 81l1 3c47-15 82-35 105-70 10 17 27 38 49 62 13-6 20-11 32-3l1-4c-35-21-54-41-72-71zm-7-14c-12-28-28-69-32-114 3-5 6-9 9-15h55c-6 58-16 92-32 129" id="ah"/><use transform="matrix(0.06172839506172839,0,0,0.06172839506172839,0,0)" xlink:href="#ah" id="s"/><path fill="#3a414a" d="M56 53c10 7 28-13 28-28V-83c15-6 32-13 51-22-14-6-37 8-51 8v-70h49c7 1 10-9 2-10-7-4-13-10-17-15-8 9-14 18-34 15v-60c-1-7 16-11 0-14-6 0-12-2-19-5 4 20 1 55 2 79H18l5 10h44v74l-52 7c5 5 9 22 17 27 4-8 21-14 35-18V25c-2 11-26 4-35 4v4c13 3 21 10 24 20zm257-279c0-9 24-13 7-21-4-3-10-6-15-12l-11 14H162l-23-14c4 13 5 42 5 86-2 125-9 151-56 219l3 1c44-50 62-74 69-158h69v51c-25 0-50 2-63-10 9 34 2 81 4 121 9 8 21-4 17-20h107c1 6-3 19 3 20 4-2 11-3 13-7v-85c0-9 23-12 7-21-5-3-10-6-15-12l-11 14h-45v-51h84c7 1 6-8 2-11-8-3-15-8-20-15l-17 16h-49c-2-19 1-32 7-41l-26-8c4 12 1 33 2 49h-68c1-15 1-33 1-52h135c1 6-3 16 3 17 4-2 11-3 13-7v-63zM187 21v-71h107v71H187zm-25-257h135v54H162v-54" id="ai"/><use transform="matrix(0.06172839506172839,0,0,0.06172839506172839,0,0)" xlink:href="#ai" id="t"/><path fill="#3a414a" d="M156-256c16 12 22 26 31 37 10 1 14-20 4-25-5-5-16-11-32-17zM22 54C74-1 70-101 70-206h251c8 1 8-8 2-11-9-4-16-9-22-17l-18 19H71l-24-12c10 26 5 59 5 91C52-61 49 2 21 51zM205-75c1-16-3-38 5-46-4-6-20-4-25-8 3 9 3 37 3 54h-68c15-21 28-44 42-69h147c11-12-17-17-22-29l-16 20H168c7-12 11-28 21-35l-20-8c-6 15-13 29-20 43H78l6 9h60c-16 30-31 53-49 76 3 5 15 12 20 3h73v39H70l6 10h112c1 23-2 49 1 70 5-3 14-3 16-8v-62h116c8-2 5-9-2-12-6-4-12-9-19-17l-17 19h-78v-39h85c8-1 6-10-1-13-6-3-13-7-20-15l-18 18h-46" id="aj"/><use transform="matrix(0.06172839506172839,0,0,0.06172839506172839,0,0)" xlink:href="#aj" id="u"/><path fill="#3a414a" d="M80-255c-13 37-33 61-58 85 32-7 54-48 80-69-6-4-15-9-22-16zm-9 127c11-11 18-31 33-40-4-7-15-8-22-17-15 45-38 78-67 107 15-2 26-19 40-30V53c3 5 14-2 16-6v-175zm98-21c2-33-6-79 7-98l-26-8c7 28 1 72 3 106h-27c2-24-5-58 6-72-3-7-20-4-25-8 7 26 0 79 4 110 10-2 18-5 15-21h68c0 5-1 13 1 16 5-3 13-4 15-9 2-28-6-67 6-85-3-7-20-4-25-8 4 15 3 54 3 77h-25zM147 9c7 3 18 31 25 12 22-15 42-30 60-47l-1-2c-17 9-33 16-46 22v-83c13-1 50 4 34-10-7-4-13-10-17-15l-15 16H91c2 13 21 8 35 9-3 60-13 105-45 133l1 3c43-26 56-70 62-136h25V1c-8 3-16 6-22 8zm188 27c-28-11-48-37-62-65 23-45 26-71 33-142 11 0 37 2 24-11-8-3-15-8-20-15l-16 16h-42c6-14 11-31 17-53 2-3 19-9 3-13-6-2-12-6-19-11-7 57-18 100-40 140l3 3c8-10 14-21 20-32 4 57 13 84 20 121-20 36-38 53-76 76l1 4c42-22 59-35 82-66 10 24 23 48 39 62 9-7 20-11 33-11v-3zm-70-83c-12-32-20-67-25-108 3-5 4-12 8-16h39c-5 61-8 85-22 124" id="ak"/><use transform="matrix(0.06172839506172839,0,0,0.06172839506172839,0,0)" xlink:href="#ak" id="v"/><use transform="matrix(0.06172839506172839,0,0,0.06172839506172839,0,0)" xlink:href="#I" id="w"/><use transform="matrix(0.06172839506172839,0,0,0.06172839506172839,0,0)" xlink:href="#J" id="x"/><path fill="#3a414a" d="M165-158c-1-9 21-13 5-20-5-3-10-7-15-13-6 10-18 13-35 11v-52h52c9 1 9-8 2-10-7-4-14-9-18-14l-15 15H21l5 9h43v52c-19 2-32-2-43-9 10 72 1 161 4 240 9 7 21-3 17-19h101c1 6-3 17 3 18 4-2 12-3 14-7v-201zM47 22v-45h101v45H47zm57-192c5 32-14 90 18 93h26v44H47v-17c32-30 36-61 37-120h20zm44 80c-11-2-28 7-28-10v-70h28v80zm-44-90H84v-52h20v52zM47-60v-110h22c-1 51-3 80-22 110zm268-151c0-7 17-12 5-19-5-4-10-8-14-13l-14 11H188l6 10h104v96c-38-2-88 7-110-11 9 42 1 90 4 137 3 44 1 43 47 43 33 0 79 10 92-14-13-5-7-37-12-53-7 24-3 58-41 52-32-5-69 16-69-28v-116h89c1 6-3 17 3 18 4-3 12-2 14-7v-106" id="al"/><use transform="matrix(0.06172839506172839,0,0,0.06172839506172839,0,0)" xlink:href="#al" id="y"/><path fill="#3a414a" d="M298-225c0-8 21-13 5-20-5-2-10-7-15-13l-11 10H63l-19-10c10 22-2 61 7 84 7-3 17-3 14-15h217c-3 12 5 12 13 7 8-8 3-29 3-43zM65-199v-40h60v40H65zm76 0v-40h64v40h-64zm80 0v-40h61v40h-61zm44 110c-1-8 25-13 8-20-5-3-10-7-15-13-17 14-58 4-87 7l12-30h120c8 0 8-9 0-11-6-4-11-10-16-17l-15 18h-85c0-10 19-18 8-23-5-1-11-4-18-7-1 8-4 17-8 30H37l6 10h123l-13 30c-26 0-53 2-67-9 11 40 2 96 5 144 4 4 18-1 16-10h142c-3 12 5 10 13 6 2-1 3-2 3-3V-89zM107 0v-28h142V0H107zm0-38v-27h142v27H107zm0-37v-30h142v30H107zm-47 0c-1-9 14-15 2-20-9-1-17-3-22-5 8 45-1 106 4 154 6-4 18-1 16-13h252c7 1 6-7 2-10-8-3-15-9-20-16l-17 17H60V-75" id="am"/><use transform="matrix(0.06172839506172839,0,0,0.06172839506172839,0,0)" xlink:href="#am" id="z"/><path fill="#3a414a" d="M99-129c11-26 30-42 43-72h174c11 0 10-8 2-12-9-4-16-11-21-17l-18 19H147c6-12 11-28 22-36-6-5-20-8-29-15-3 17-8 34-14 51H30l6 10h87c-8 18-17 36-28 53-8-1-13-3-18-4 2 5 4 14 4 25-16 22-36 43-59 65l3 3c19-14 37-31 56-52l1 165c6-3 15-3 17-10v-173zm133 24c21-7 31-27 58-31 11-1 13-8 5-13-6-4-12-11-18-21l-13 12H140l6 10h120c-14 17-28 31-42 42-6-1-11-3-18-5 3 10 3 30 3 46h-99l5 9h94v74c-2 12-32 6-44 6v4c17 4 24 13 30 25 13-2 32-16 32-35v-74h96c9 0 11-9 2-11-9-5-15-12-20-18l-17 20h-61c-1-17 0-32 8-38 0-1-1-2-3-2" id="an"/><use transform="matrix(0.06172839506172839,0,0,0.06172839506172839,0,0)" xlink:href="#an" id="A"/><path fill="#3a414a" d="M84-167c1-8 8-13-4-15 7-15 13-34 20-55 2-4 20-7 5-13-6-2-13-6-21-12-12 71-32 121-66 168l3 2c19-20 34-45 46-67V50c1 9 10 0 14 0 2-1 3-2 3-4v-213zm82-15c13-4 10-23-2-34-8-6-24-23-42-28 20 20 23 25 34 53 2 5 6 9 10 9zm-10 45c1-9 17-11 6-18-4-2-8-6-12-11-7 14-34 9-55 10 3 15 29 7 45 9V-5c0 7-4 12-10 16 7 7 12 14 16 21 17-17 41-40 52-67-14 15-28 26-42 34v-136zm69 49c20-13 34-25 47-39h54c10 0 10-8 2-12-9-4-15-11-20-17-9 7-10 21-28 19 13-16 28-41 47-74 2-3 16-7 5-12-5-2-11-5-17-9-17 42-34 74-52 95h-17v-56h45c9 1 9-9 2-11-7-4-13-9-17-14-8 7-12 18-30 15-1-21 0-41 7-51l-26-8c4 15 1 40 2 59h-42l5 10h37v56h-56l6 10h76c-20 23-51 47-92 70l2 3c16-8 30-16 43-24 3 40 0 86 1 128 1 9 10 0 14 0 5-3 1-12 2-18h69c1 5-2 14 3 14 4-2 11-3 13-7 3-38-8-93 7-117-3-9-15-10-20-19l-11 12c-20-2-47 4-61-3zm0 110v-46h69v46h-69zm0-56v-41h69v41h-69" id="ao"/><use transform="matrix(0.06172839506172839,0,0,0.06172839506172839,0,0)" xlink:href="#ao" id="B"/></defs></g></svg>